Samaano-Bold-Slanted.ufo
<glyph name=".notdef" format="2">
  <advance width="3374"/>
  <unicode hex="0000"/>
  <outline>
    <contour>
      <point x="889.544921875" y="-26.0" type="line"/>
      <point x="1887.54492188" y="-26.0" type="line"/>
      <point x="2484.45507812" y="1614.0" type="line"/>
      <point x="1486.45507812" y="1614.0" type="line"/>
    </contour>
    <contour>
      <point x="992.662109375" y="54.0" type="line"/>
      <point x="1532.4296875" y="1537.0" type="line"/>
      <point x="1663.37109375" y="817.0" type="line"/>
    </contour>
    <contour>
      <point x="1084.66210938" y="54.0" type="line"/>
      <point x="1673.34570312" y="740.0" type="line"/>
      <point x="1764.66210938" y="54.0" type="line"/>
    </contour>
    <contour>
      <point x="1656.43359375" y="1548.0" type="line"/>
      <point x="2287.43359375" y="1548.0" type="line"/>
      <point x="1733.21679688" y="899.0" type="line"/>
    </contour>
    <contour>
      <point x="1743.19140625" y="822.0" type="line"/>
      <point x="2383.43359375" y="1548.0" type="line"/>
      <point x="1839.66210938" y="54.0" type="line"/>
    </contour>
  </outline>
</glyph>
<glyph name="exclam" format="2">
  <advance width="1024"/>
  <unicode hex="0021"/>
  <outline>
    <contour>
      <point x="169.477" y="17" type="line"/>
      <point x="313.477" y="17" type="line"/>
      <point x="403.741" y="265" type="line"/>
      <point x="259.741" y="265" type="line"/>
    </contour>
    <contour>
      <point x="356.002" y="502" type="line"/>
      <point x="484.002" y="502" type="line"/>
      <point x="854.523" y="1520" type="line"/>
      <point x="726.523" y="1520" type="line"/>
    </contour>
  </outline>
</glyph>
<glyph name="quotedbl" format="2">
  <advance width="1508"/>
  <unicode hex="0022"/>
  <outline>
    <contour>
      <point x="436.868164062" y="1326.0" type="line"/>
      <point x="580.868164062" y="1326.0" type="line"/>
      <point x="671.131835938" y="1574.0" type="line"/>
      <point x="527.131835938" y="1574.0" type="line"/>
    </contour>
    <contour>
      <point x="836.868164062" y="1326.0" type="line"/>
      <point x="980.868164062" y="1326.0" type="line"/>
      <point x="1071.13183594" y="1574.0" type="line"/>
      <point x="927.131835938" y="1574.0" type="line"/>
    </contour>
  </outline>
</glyph>
<glyph name="numbersign" format="2">
  <advance width="2250"/>
  <unicode hex="0023"/>
  <outline>
    <contour>
      <point x="1017.97558594" y="1347.0" type="line"/>
      <point x="641.630859375" y="313.0" type="line"/>
      <point x="781.630859375" y="313.0" type="line"/>
      <point x="1157.97558594" y="1347.0" type="line"/>
    </contour>
    <contour>
      <point x="1429.06738281" y="1350.0" type="line"/>
      <point x="1039.25585938" y="279.0" type="line"/>
      <point x="1207.25585938" y="279.0" type="line"/>
      <point x="1597.06738281" y="1350.0" type="line"/>
    </contour>
    <contour>
      <point x="818.821289062" y="1157.0" type="line"/>
      <point x="765.318359375" y="1010.0" type="line"/>
      <point x="1583.31835938" y="1010.0" type="line"/>
      <point x="1636.82128906" y="1157.0" type="line"/>
    </contour>
    <contour>
      <point x="676.873046875" y="767.0" type="line"/>
      <point x="613.178710938" y="592.0" type="line"/>
      <point x="1441.17871094" y="592.0" type="line"/>
      <point x="1504.87304688" y="767.0" type="line"/>
    </contour>
  </outline>
</glyph>
<glyph name="dollar" format="2">
  <advance width="1024"/>
  <unicode hex="0024"/>
  <outline>
    <contour>
      <point x="478.7109375" y="1537.0" type="line"/>
      <point x="413.560546875" y="1358.0" type="line"/>
      <point x="1011.56054688" y="1358.0" type="line"/>
      <point x="1076.7109375" y="1537.0" type="line"/>
    </contour>
    <contour>
      <point x="480.53125" y="1542.0" type="line"/>
      <point x="293.450195312" y="1028.0" type="line"/>
      <point x="498.450195312" y="1028.0" type="line"/>
      <point x="685.53125" y="1542.0" type="line"/>
    </contour>
    <contour>
      <point x="6.6162109375" y="163.0" type="line"/>
      <point x="-52.7109375" y="0.0" type="line"/>
      <point x="655.2890625" y="0.0" type="line"/>
      <point x="714.616210938" y="163.0" type="line"/>
    </contour>
    <contour>
      <point x="485.2890625" y="0.0" type="line"/>
      <point x="691.2890625" y="0.0" type="line"/>
      <point x="820.498046875" y="355.0" type="line"/>
      <point x="614.498046875" y="355.0" type="line"/>
    </contour>
    <contour>
      <point x="293.450195312" y="1028.0" type="line"/>
      <point x="614.498046875" y="355.0" type="line"/>
      <point x="820.498046875" y="355.0" type="line"/>
      <point x="498.450195312" y="1028.0" type="line"/>
    </contour>
    <contour>
      <point x="773.744140625" y="1636.0" type="line"/>
      <point x="100.03515625" y="-215.0" type="line"/>
      <point x="314.03515625" y="-215.0" type="line"/>
      <point x="987.744140625" y="1636.0" type="line"/>
    </contour>
  </outline>
</glyph>
<glyph name="percent" format="2">
  <advance width="2120"/>
  <unicode hex="0025"/>
  <outline>
    <contour>
      <point x="590.876953125" y="522.0" type="line"/>
      <point x="582.1015625" y="377.0" type="line"/>
      <point x="1529.48632812" y="716.0" type="line"/>
      <point x="1537.8984375" y="860.0" type="line"/>
    </contour>
    <contour>
      <point x="958.72265625" y="1148.0" type="line"/>
      <point x="840.068359375" y="822.0" type="line"/>
      <point x="918.068359375" y="822.0" type="line"/>
      <point x="1036.72265625" y="1148.0" type="line"/>
    </contour>
    <contour>
      <point x="960.177734375" y="1152.0" type="line"/>
      <point x="925.6015625" y="1057.0" type="line"/>
      <point x="1273.6015625" y="1057.0" type="line"/>
      <point x="1308.17773438" y="1152.0" type="line"/>
    </contour>
    <contour>
      <point x="857.90234375" y="871.0" type="line"/>
      <point x="828.056640625" y="789.0" type="line"/>
      <point x="1172.05664062" y="789.0" type="line"/>
      <point x="1201.90234375" y="871.0" type="line"/>
    </contour>
    <contour>
      <point x="1216.17773438" y="1152.0" type="line"/>
      <point x="1084.78515625" y="791.0" type="line"/>
      <point x="1176.78515625" y="791.0" type="line"/>
      <point x="1308.17773438" y="1152.0" type="line"/>
    </contour>
    <contour>
      <point x="1027.57617188" y="436.0" type="line"/>
      <point x="908.921875" y="110.0" type="line"/>
      <point x="986.921875" y="110.0" type="line"/>
      <point x="1105.57617188" y="436.0" type="line"/>
    </contour>
    <contour>
      <point x="1029.03125" y="440.0" type="line"/>
      <point x="994.453125" y="345.0" type="line"/>
      <point x="1340.453125" y="345.0" type="line"/>
      <point x="1375.03125" y="440.0" type="line"/>
    </contour>
    <contour>
      <point x="926.755859375" y="159.0" type="line"/>
      <point x="896.91015625" y="77.0" type="line"/>
      <point x="1240.91015625" y="77.0" type="line"/>
      <point x="1270.75585938" y="159.0" type="line"/>
    </contour>
    <contour>
      <point x="1283.03125" y="440.0" type="line"/>
      <point x="1151.63867188" y="79.0" type="line"/>
      <point x="1243.63867188" y="79.0" type="line"/>
      <point x="1375.03125" y="440.0" type="line"/>
    </contour>
  </outline>
</glyph>
<glyph name="ampersand" format="2">
  <advance width="2696"/>
  <unicode hex="0026"/>
  <outline>
    <contour>
      <point x="1430.61914062" y="1537.0" type="line"/>
      <point x="1323.56445312" y="12.0" type="line"/>
      <point x="1485.58007812" y="56.0" type="line"/>
      <point x="1592.61914062" y="1537.0" type="line"/>
    </contour>
    <contour>
      <point x="1925.11914062" y="1401.0" type="line"/>
      <point x="1974.61914062" y="1537.0" type="line"/>
      <point x="1508.61914062" y="1537.0" type="line"/>
      <point x="1459.11914062" y="1401.0" type="line"/>
    </contour>
    <contour>
      <point x="1781.49804688" y="1446.0" type="line"/>
      <point x="1588.95800781" y="917.0" type="line"/>
      <point x="1748.95800781" y="917.0" type="line"/>
      <point x="1941.49804688" y="1446.0" type="line"/>
    </contour>
    <contour>
      <point x="1099.54589844" y="1045.0" type="line"/>
      <point x="1026.02441406" y="843.0" type="line"/>
      <point x="1722.02441406" y="843.0" type="line"/>
      <point x="1795.54589844" y="1045.0" type="line"/>
    </contour>
    <contour>
      <point x="1099.54589844" y="1045.0" type="line"/>
      <point x="727.932617188" y="24.0" type="line"/>
      <point x="937.932617188" y="24.0" type="line"/>
      <point x="1309.54589844" y="1045.0" type="line"/>
    </contour>
    <contour>
      <point x="788.3515625" y="190.0" type="line"/>
      <point x="721.380859375" y="6.0" type="line"/>
      <point x="1529.38085938" y="6.0" type="line"/>
      <point x="1596.3515625" y="190.0" type="line"/>
    </contour>
  </outline>
</glyph>
<glyph name="quotesingle" format="2">
  <advance width="668"/>
  <unicode hex="0027"/>
  <outline>
    <contour>
      <point x="311.220703125" y="1496.0" type="line"/>
      <point x="226.779296875" y="1264.0" type="line"/>
      <point x="356.779296875" y="1264.0" type="line"/>
      <point x="441.220703125" y="1496.0" type="line"/>
    </contour>
  </outline>
</glyph>
<glyph name="parenleft" format="2">
  <advance width="1024"/>
  <unicode hex="0028"/>
  <outline>
    <contour>
      <point x="379.311" y="1023" type="line"/>
      <point x="72.1191" y="179" type="line"/>
      <point x="262.119" y="179" type="line"/>
      <point x="569.311" y="1023" type="line"/>
    </contour>
    <contour>
      <point x="919.332" y="1633" type="line"/>
      <point x="381.131" y="1028" type="line"/>
      <point x="569.131" y="1028" type="line"/>
      <point x="951.881" y="1640" type="line"/>
    </contour>
    <contour>
      <point x="72.1191" y="179" type="line"/>
      <point x="203.197" y="-406" type="line"/>
      <point x="235.197" y="-406" type="line"/>
      <point x="262.119" y="179" type="line"/>
    </contour>
  </outline>
</glyph>
<glyph name="parenright" format="2">
  <advance width="1884"/>
  <unicode hex="0029"/>
  <outline>
    <contour>
      <point x="1178.05664062" y="1023.0" type="line"/>
      <point x="870.865234375" y="179.0" type="line"/>
      <point x="1060.86523438" y="179.0" type="line"/>
      <point x="1368.05664062" y="1023.0" type="line"/>
    </contour>
    <contour>
      <point x="1256.62207031" y="1629.0" type="line"/>
      <point x="1178.05664062" y="1023.0" type="line"/>
      <point x="1368.05664062" y="1023.0" type="line"/>
      <point x="1294.62207031" y="1629.0" type="line"/>
    </contour>
    <contour>
      <point x="870.865234375" y="179.0" type="line"/>
      <point x="515.943359375" y="-406.0" type="line"/>
      <point x="543.943359375" y="-406.0" type="line"/>
      <point x="1060.86523438" y="179.0" type="line"/>
    </contour>
  </outline>
</glyph>
<glyph name="asterisk" format="2">
  <advance width="2342"/>
  <unicode hex="002A"/>
  <outline>
    <contour>
      <point x="1246.66601562" y="1297.0" type="line"/>
      <point x="883.787109375" y="300.0" type="line"/>
      <point x="1113.78710938" y="300.0" type="line"/>
      <point x="1476.66601562" y="1297.0" type="line"/>
    </contour>
    <contour>
      <point x="817.599609375" y="1099.0" type="line"/>
      <point x="1276.625" y="360.0" type="line"/>
      <point x="1488.03710938" y="504.0" type="line"/>
      <point x="1024.28320312" y="1241.0" type="line"/>
    </contour>
    <contour>
      <point x="1618.0078125" y="1232.0" type="line"/>
      <point x="637.6796875" y="525.0" type="line"/>
      <point x="723.9921875" y="372.0" type="line"/>
      <point x="1704.3203125" y="1079.0" type="line"/>
    </contour>
  </outline>
</glyph>
<glyph name="plus" format="2">
  <advance width="1024"/>
  <unicode hex="002B"/>
  <outline>
    <contour>
      <point x="567.44140625" y="1221.0" type="line"/>
      <point x="183.087890625" y="165.0" type="line"/>
      <point x="408.087890625" y="165.0" type="line"/>
      <point x="792.44140625" y="1221.0" type="line"/>
    </contour>
    <contour>
      <point x="98.853515625" y="821.0" type="line"/>
      <point x="23.146484375" y="613.0" type="line"/>
      <point x="925.146484375" y="613.0" type="line"/>
      <point x="1000.85351562" y="821.0" type="line"/>
    </contour>
  </outline>
</glyph>
<glyph name="comma" format="2">
  <advance width="1024"/>
  <unicode hex="002C"/>
  <outline>
    <contour>
      <point x="467.700195312" y="237.0" type="line"/>
      <point x="384.3515625" y="8.0" type="line"/>
      <point x="632.3515625" y="8.0" type="line"/>
      <point x="715.700195312" y="237.0" type="line"/>
    </contour>
    <contour>
      <point x="528.575195312" y="135.0" type="line"/>
      <point x="308.299804688" y="-146.0" type="line"/>
      <point x="430.461914062" y="-206.0" type="line"/>
      <point x="627.439453125" y="0.0" type="line"/>
    </contour>
  </outline>
</glyph>
<glyph name="hyphen" format="2">
  <advance width="1024"/>
  <unicode hex="002D"/>
  <outline>
    <contour>
      <point x="137" y="808" type="line"/>
      <point x="61" y="600" type="line"/>
      <point x="887" y="600" type="line"/>
      <point x="963" y="808" type="line"/>
    </contour>
  </outline>
</glyph>
<glyph name="period" format="2">
  <advance width="1024"/>
  <unicode hex="002E"/>
  <outline>
    <contour>
      <point x="424.769" y="246" type="line"/>
      <point x="335.231" y="0" type="line"/>
      <point x="599.231" y="0" type="line"/>
      <point x="688.769" y="246" type="line"/>
    </contour>
  </outline>
</glyph>
<glyph name="slash" format="2">
  <advance width="1024"/>
  <unicode hex="002F"/>
  <outline>
    <contour>
      <point x="985.076171875" y="1483.0" type="line"/>
      <point x="-122.5078125" y="6.0" type="line"/>
      <point x="38.923828125" y="-67.0" type="line"/>
      <point x="1146.5078125" y="1410.0" type="line"/>
    </contour>
  </outline>
</glyph>
<glyph name="zero" format="2">
  <advance width="1024"/>
  <unicode hex="0030"/>
  <outline>
    <contour>
      <point x="457.996" y="908" type="line"/>
      <point x="658.996" y="908" type="line"/>
      <point x="586.203" y="708" type="line"/>
      <point x="385.203" y="708" type="line"/>
    </contour>
    <contour>
      <point x="505.146" y="1359" type="line"/>
      <point x="940.146" y="1359" type="line"/>
      <point x="521.217" y="208" type="line"/>
      <point x="86.2168" y="208" type="line"/>
    </contour>
    <contour>
      <point x="375.941" y="1559" type="line"/>
      <point x="-188.941" y="7" type="line"/>
      <point x="648.059" y="7" type="line"/>
      <point x="1212.94" y="1559" type="line"/>
    </contour>
  </outline>
</glyph>
<glyph name="one" format="2">
  <advance width="1712"/>
  <unicode hex="0031"/>
  <outline>
    <contour>
      <point x="474.787109375" y="0.0" type="line"/>
      <point x="673.787109375" y="0.0" type="line"/>
      <point x="1237.21289062" y="1548.0" type="line"/>
      <point x="1038.21289062" y="1548.0" type="line"/>
    </contour>
    <contour>
      <point x="1042.21289062" y="1548.0" type="line"/>
      <point x="736.477539062" y="1252.0" type="line"/>
      <point x="850.081054688" y="1152.0" type="line"/>
      <point x="1156.1796875" y="1449.0" type="line"/>
    </contour>
  </outline>
</glyph>
<glyph name="two" format="2">
  <advance width="2918"/>
  <unicode hex="0032"/>
  <outline>
    <contour>
      <point x="1258.46289062" y="1344.0" type="line"/>
      <point x="1867.46289062" y="1344.0" type="line"/>
      <point x="1708.77246094" y="908.0" type="line"/>
      <point x="1106.77246094" y="908.0" type="line"/>
      <point x="776.287109375" y="0.0" type="line"/>
      <point x="1564.28710938" y="0.0" type="line"/>
      <point x="1637.08105469" y="200.0" type="line"/>
      <point x="1052.08105469" y="200.0" type="line"/>
      <point x="1236.61425781" y="707.0" type="line"/>
      <point x="1835.61425781" y="707.0" type="line"/>
      <point x="2141.71289062" y="1548.0" type="line"/>
      <point x="1332.71289062" y="1548.0" type="line"/>
    </contour>
  </outline>
</glyph>
<glyph name="three" format="2">
  <advance width="3130"/>
  <unicode hex="0033"/>
  <outline>
    <contour>
      <point x="1141.71484375" y="736.0" type="line"/>
      <point x="1799.71484375" y="736.0" type="line"/>
      <point x="1601.71484375" y="192.0" type="line"/>
      <point x="901.71484375" y="192.0" type="line"/>
      <point x="828.920898438" y="-8.0" type="line"/>
      <point x="1732.92089844" y="-8.0" type="line"/>
      <point x="2301.07910156" y="1553.0" type="line"/>
      <point x="1427.07910156" y="1553.0" type="line"/>
      <point x="1354.28515625" y="1353.0" type="line"/>
      <point x="2022.28515625" y="1353.0" type="line"/>
      <point x="1870.50878906" y="936.0" type="line"/>
      <point x="1214.50878906" y="936.0" type="line"/>
    </contour>
  </outline>
</glyph>
<glyph name="four" format="2">
  <advance width="1024"/>
  <unicode hex="0034"/>
  <outline>
    <contour>
      <point x="-50" y="761" type="line"/>
      <point x="592" y="761" type="line"/>
      <point x="317" y="7" type="line"/>
      <point x="513" y="7" type="line"/>
      <point x="1074" y="1548" type="line"/>
      <point x="875" y="1548" type="line"/>
      <point x="662" y="961" type="line"/>
      <point x="223" y="961" type="line"/>
      <point x="436" y="1548" type="line"/>
      <point x="236" y="1548" type="line"/>
    </contour>
  </outline>
</glyph>
<glyph name="five" format="2">
  <advance width="1024"/>
  <unicode hex="0035"/>
  <outline>
    <contour>
      <point x="755.54" y="759" type="line"/>
      <point x="551.354" y="198" type="line"/>
      <point x="-161.646" y="198" type="line"/>
      <point x="-233.713" y="0" type="line"/>
      <point x="684.287" y="0" type="line"/>
      <point x="1033.33" y="959" type="line"/>
      <point x="316.335" y="959" type="line"/>
      <point x="459.375" y="1352" type="line"/>
      <point x="1186.38" y="1352" type="line"/>
      <point x="1257.71" y="1548" type="line"/>
      <point x="330.713" y="1548" type="line"/>
      <point x="43.54" y="759" type="line"/>
    </contour>
  </outline>
</glyph>
<glyph name="six" format="2">
  <advance width="1024"/>
  <unicode hex="0036"/>
  <outline>
    <contour>
      <point x="321.713" y="1548" type="line"/>
      <point x="-168.555" y="201" type="line"/>
      <point x="-241.713" y="0" type="line"/>
      <point x="697.287" y="0" type="line"/>
      <point x="1046.33" y="959" type="line"/>
      <point x="310.335" y="959" type="line"/>
      <point x="451.919" y="1348" type="line"/>
      <point x="1192.92" y="1348" type="line"/>
      <point x="1265.71" y="1548" type="line"/>
    </contour>
    <contour>
      <point x="765.54" y="759" type="line"/>
      <point x="563.173" y="203" type="line"/>
      <point x="41.1729" y="203" type="line"/>
      <point x="243.54" y="759" type="line"/>
    </contour>
  </outline>
</glyph>
<glyph name="seven" format="2">
  <advance width="2162"/>
  <unicode hex="0037"/>
  <outline>
    <contour>
      <point x="587.739257812" y="1355.0" type="line"/>
      <point x="1297.73925781" y="1355.0" type="line"/>
      <point x="804.559570312" y="0.0" type="line"/>
      <point x="1007.55957031" y="0.0" type="line"/>
      <point x="1574.26074219" y="1557.0" type="line"/>
      <point x="661.260742188" y="1557.0" type="line"/>
    </contour>
  </outline>
</glyph>
<glyph name="eight" format="2">
  <advance width="1024"/>
  <unicode hex="0038"/>
  <outline>
    <contour>
      <point x="337.213" y="1548" type="line"/>
      <point x="-226.213" y="0" type="line"/>
      <point x="686.787" y="0" type="line"/>
      <point x="1250.21" y="1548" type="line"/>
    </contour>
    <contour>
      <point x="761.04" y="759" type="line"/>
      <point x="556.489" y="197" type="line"/>
      <point x="49.4893" y="197" type="line"/>
      <point x="254.04" y="759" type="line"/>
    </contour>
    <contour>
      <point x="834.835" y="959" type="line"/>
      <point x="326.835" y="959" type="line"/>
      <point x="469.146" y="1350" type="line"/>
      <point x="977.146" y="1350" type="line"/>
    </contour>
  </outline>
</glyph>
<glyph name="nine" format="2">
  <advance width="1024"/>
  <unicode hex="0039"/>
  <outline>
    <contour>
      <point x="758" y="759" type="line"/>
      <point x="555" y="200" type="line"/>
      <point x="-147" y="200" type="line"/>
      <point x="-220" y="0" type="line"/>
      <point x="678" y="0" type="line"/>
      <point x="1244" y="1554" type="line"/>
      <point x="324" y="1554" type="line"/>
      <point x="318" y="1537" type="line"/>
      <point x="34" y="759" type="line"/>
    </contour>
    <contour>
      <point x="828" y="959" type="line"/>
      <point x="307" y="959" type="line"/>
      <point x="451" y="1354" type="line"/>
      <point x="972" y="1354" type="line"/>
    </contour>
  </outline>
</glyph>
<glyph name="colon" format="2">
  <advance width="1024"/>
  <unicode hex="003A"/>
  <outline>
    <contour>
      <point x="275" y="430" type="line"/>
      <point x="192" y="201" type="line"/>
      <point x="440" y="201" type="line"/>
      <point x="523" y="430" type="line"/>
    </contour>
    <contour>
      <point x="566" y="1294" type="line"/>
      <point x="476" y="1047" type="line"/>
      <point x="742" y="1047" type="line"/>
      <point x="832" y="1294" type="line"/>
    </contour>
  </outline>
</glyph>
<glyph name="semicolon" format="2">
  <advance width="1024"/>
  <unicode hex="003B"/>
  <outline>
    <contour>
      <point x="390" y="430" type="line"/>
      <point x="307" y="201" type="line"/>
      <point x="555" y="201" type="line"/>
      <point x="638" y="430" type="line"/>
    </contour>
    <contour>
      <point x="451" y="328" type="line"/>
      <point x="231" y="47" type="line"/>
      <point x="353" y="-13" type="line"/>
      <point x="552" y="197" type="line"/>
    </contour>
    <contour>
      <point x="527" y="871" type="line"/>
      <point x="437" y="624" type="line"/>
      <point x="703" y="624" type="line"/>
      <point x="793" y="871" type="line"/>
    </contour>
  </outline>
</glyph>
<glyph name="less" format="2">
  <advance width="1024"/>
  <unicode hex="003C"/>
  <outline>
    <contour>
      <point x="97.9043" y="777" type="line"/>
      <point x="22.1982" y="569" type="line"/>
      <point x="926.823" y="807" type="line"/>
      <point x="1001.8" y="1013" type="line"/>
    </contour>
    <contour>
      <point x="97.9043" y="777" type="line"/>
      <point x="22.1982" y="569" type="line"/>
      <point x="675.504" y="122" type="line"/>
      <point x="747.206" y="319" type="line"/>
    </contour>
  </outline>
</glyph>
<glyph name="equal" format="2">
  <advance width="2264"/>
  <unicode hex="003D"/>
  <outline>
    <contour>
      <point x="826.639648438" y="914.0" type="line"/>
      <point x="757.485351562" y="724.0" type="line"/>
      <point x="1573.48535156" y="724.0" type="line"/>
      <point x="1642.63964844" y="914.0" type="line"/>
    </contour>
    <contour>
      <point x="690.514648438" y="540.0" type="line"/>
      <point x="621.360351562" y="350.0" type="line"/>
      <point x="1437.36035156" y="350.0" type="line"/>
      <point x="1506.51464844" y="540.0" type="line"/>
    </contour>
  </outline>
</glyph>
<glyph name="greater" format="2">
  <advance width="1024"/>
  <unicode hex="003E"/>
  <outline>
    <contour>
      <point x="1041.2" y="777" type="line"/>
      <point x="305.098" y="1013" type="line"/>
      <point x="230.119" y="807" type="line"/>
      <point x="967.131" y="568" type="line"/>
    </contour>
    <contour>
      <point x="1041.2" y="777" type="line"/>
      <point x="54.502" y="319" type="line"/>
      <point x="-17.2002" y="122" type="line"/>
      <point x="967.131" y="568" type="line"/>
    </contour>
  </outline>
</glyph>
<glyph name="question" format="2">
  <advance width="1024"/>
  <unicode hex="003F"/>
  <outline>
    <contour>
      <point x="94.375" y="247.0" type="line"/>
      <point x="4.474609375" y="0.0" type="line"/>
      <point x="250.474609375" y="0.0" type="line"/>
      <point x="340.375" y="247.0" type="line"/>
    </contour>
    <contour>
      <point x="381.345703125" y="1519.0" type="line"/>
      <point x="313.646484375" y="1333.0" type="line"/>
      <point x="949.646484375" y="1333.0" type="line"/>
      <point x="1017.34570312" y="1519.0" type="line"/>
    </contour>
    <contour>
      <point x="825.525390625" y="1514.0" type="line"/>
      <point x="626.0703125" y="966.0" type="line"/>
      <point x="820.0703125" y="966.0" type="line"/>
      <point x="1019.52539062" y="1514.0" type="line"/>
    </contour>
    <contour>
      <point x="373.904296875" y="1015.0" type="line"/>
      <point x="301.474609375" y="816.0" type="line"/>
      <point x="765.474609375" y="816.0" type="line"/>
      <point x="837.904296875" y="1015.0" type="line"/>
    </contour>
    <contour>
      <point x="372.448242188" y="1011.0" type="line"/>
      <point x="147.151367188" y="392.0" type="line"/>
      <point x="395.151367188" y="392.0" type="line"/>
      <point x="620.448242188" y="1011.0" type="line"/>
    </contour>
  </outline>
</glyph>
<glyph name="at" format="2">
  <advance width="1024"/>
  <unicode hex="0040"/>
  <outline>
    <contour>
      <point x="336.306640625" y="1023.0" type="line"/>
      <point x="283.89453125" y="879.0" type="line"/>
      <point x="1102.89453125" y="879.0" type="line"/>
      <point x="1155.30664062" y="1023.0" type="line"/>
    </contour>
    <contour>
      <point x="715.435546875" y="592.0" type="line"/>
      <point x="499.96484375" y="0.0" type="line"/>
      <point x="652.96484375" y="0.0" type="line"/>
      <point x="868.435546875" y="592.0" type="line"/>
    </contour>
    <contour>
      <point x="385.34765625" y="600.0" type="line"/>
      <point x="328.568359375" y="444.0" type="line"/>
      <point x="753.568359375" y="444.0" type="line"/>
      <point x="810.34765625" y="600.0" type="line"/>
    </contour>
    <contour>
      <point x="378.34375" y="589.0" type="line"/>
      <point x="168.33203125" y="12.0" type="line"/>
      <point x="342.33203125" y="12.0" type="line"/>
      <point x="552.34375" y="589.0" type="line"/>
    </contour>
    <contour>
      <point x="230.392578125" y="188.0" type="line"/>
      <point x="161.96484375" y="0.0" type="line"/>
      <point x="655.96484375" y="0.0" type="line"/>
      <point x="724.392578125" y="188.0" type="line"/>
    </contour>
    <contour>
      <point x="248.306640625" y="1023.0" type="line"/>
      <point x="-205.19921875" y="-223.0" type="line"/>
      <point x="-29.19921875" y="-223.0" type="line"/>
      <point x="424.306640625" y="1023.0" type="line"/>
    </contour>
    <contour>
      <point x="-157.3359375" y="-86.0" type="line"/>
      <point x="-219.939453125" y="-258.0" type="line"/>
      <point x="728.060546875" y="-258.0" type="line"/>
      <point x="790.6640625" y="-86.0" type="line"/>
    </contour>
    <contour>
      <point x="1092.93945312" y="1011.0" type="line"/>
      <point x="724.96484375" y="0.0" type="line"/>
      <point x="875.96484375" y="0.0" type="line"/>
      <point x="1243.93945312" y="1011.0" type="line"/>
    </contour>
    <contour>
      <point x="660.66015625" y="175.0" type="line"/>
      <point x="596.96484375" y="0.0" type="line"/>
      <point x="805.96484375" y="0.0" type="line"/>
      <point x="869.66015625" y="175.0" type="line"/>
    </contour>
  </outline>
</glyph>
<glyph name="A" format="2">
  <advance width="1024"/>
  <unicode hex="0041"/>
  <anchor x="809" y="1641" name="top"/>
  <anchor x="546" y="0" name="base"/>
  <outline>
    <contour>
      <point x="-168.213" y="0" type="line"/>
      <point x="30.7871" y="0" type="line"/>
      <point x="594.213" y="1548" type="line"/>
      <point x="395.213" y="1548" type="line"/>
    </contour>
    <contour>
      <point x="377.596" y="1332" type="line"/>
      <point x="1038.6" y="1332" type="line"/>
      <point x="1117.21" y="1548" type="line"/>
      <point x="456.213" y="1548" type="line"/>
    </contour>
    <contour>
      <point x="283.129" y="1023" type="line"/>
      <point x="219.798" y="849" type="line"/>
      <point x="850.798" y="849" type="line"/>
      <point x="914.129" y="1023" type="line"/>
    </contour>
    <contour>
      <point x="428.787" y="0" type="line"/>
      <point x="628.787" y="0" type="line"/>
      <point x="1192.21" y="1548" type="line"/>
      <point x="992.213" y="1548" type="line"/>
    </contour>
  </outline>
</glyph>
<glyph name="B" format="2">
  <advance width="2732"/>
  <unicode hex="0042"/>
  <outline>
    <contour>
      <point x="725.888671875" y="0.0" type="line"/>
      <point x="933.888671875" y="0.0" type="line"/>
      <point x="1493.31054688" y="1537.0" type="line"/>
      <point x="1285.31054688" y="1537.0" type="line"/>
    </contour>
    <contour>
      <point x="1534.33203125" y="1331.0" type="line"/>
      <point x="1922.85546875" y="989.0" type="line"/>
      <point x="2005.11132812" y="1215.0" type="line"/>
      <point x="1609.31054688" y="1537.0" type="line"/>
    </contour>
    <contour>
      <point x="1347.34375" y="820.0" type="line"/>
      <point x="1924.58203125" y="991.0" type="line"/>
      <point x="2006.11132812" y="1215.0" type="line"/>
      <point x="1421.23046875" y="1023.0" type="line"/>
    </contour>
    <contour>
      <point x="1064.046875" y="201.0" type="line"/>
      <point x="990.888671875" y="0.0" type="line"/>
      <point x="1677.37304688" y="364.0" type="line"/>
      <point x="1758.90234375" y="588.0" type="line"/>
    </contour>
    <contour>
      <point x="1264.25976562" y="567.0" type="line"/>
      <point x="1677.37304688" y="364.0" type="line"/>
      <point x="1758.17382812" y="586.0" type="line"/>
      <point x="1336.68945312" y="766.0" type="line"/>
    </contour>
    <contour>
      <point x="1259.23046875" y="1023.0" type="line"/>
      <point x="1185.34375" y="820.0" type="line"/>
      <point x="1347.34375" y="820.0" type="line"/>
      <point x="1421.23046875" y="1023.0" type="line"/>
    </contour>
    <contour>
      <point x="1164.68945312" y="766.0" type="line"/>
      <point x="1092.25976562" y="567.0" type="line"/>
      <point x="1264.25976562" y="567.0" type="line"/>
      <point x="1336.68945312" y="766.0" type="line"/>
    </contour>
    <contour>
      <point x="896.681640625" y="200.0" type="line"/>
      <point x="823.888671875" y="0.0" type="line"/>
      <point x="990.888671875" y="0.0" type="line"/>
      <point x="1063.68164062" y="200.0" type="line"/>
    </contour>
    <contour>
      <point x="1445.31054688" y="1537.0" type="line"/>
      <point x="1370.33203125" y="1331.0" type="line"/>
      <point x="1533.33203125" y="1331.0" type="line"/>
      <point x="1608.31054688" y="1537.0" type="line"/>
    </contour>
  </outline>
</glyph>
<glyph name="C" format="2">
  <advance width="1024"/>
  <unicode hex="0043"/>
  <outline>
    <contour>
      <point x="350.7109375" y="1537.0" type="line"/>
      <point x="-208.7109375" y="0.0" type="line"/>
      <point x="-8.7109375" y="0.0" type="line"/>
      <point x="550.7109375" y="1537.0" type="line"/>
    </contour>
    <contour>
      <point x="449.7109375" y="1537.0" type="line"/>
      <point x="377.28125" y="1338.0" type="line"/>
      <point x="1160.28125" y="1338.0" type="line"/>
      <point x="1232.7109375" y="1537.0" type="line"/>
    </contour>
    <contour>
      <point x="-51.28125" y="199.0" type="line"/>
      <point x="-123.7109375" y="0.0" type="line"/>
      <point x="671.2890625" y="0.0" type="line"/>
      <point x="743.71875" y="199.0" type="line"/>
    </contour>
  </outline>
</glyph>
<glyph name="D" format="2">
  <advance width="1024"/>
  <unicode hex="0044"/>
  <anchor x="310.171" y="-108" name="base"/>
  <anchor x="871.171" y="1660" name="top"/>
  <outline>
    <contour>
      <point x="671.171" y="1548" type="line"/>
      <point x="107.171" y="0" type="line"/>
      <point x="309.171" y="0" type="line"/>
      <point x="873.171" y="1548" type="line"/>
    </contour>
    <contour>
      <point x="997.171" y="1548" type="line"/>
      <point x="925.171" y="1350" type="line"/>
      <point x="1195.17" y="767" type="line"/>
      <point x="1289.17" y="1023" type="line"/>
    </contour>
    <contour>
      <point x="514.171" y="201" type="line"/>
      <point x="441.171" y="0" type="line"/>
      <point x="1193.17" y="769" type="line"/>
      <point x="1286.17" y="1023" type="line"/>
    </contour>
    <contour>
      <point x="835.171" y="1548" type="line"/>
      <point x="762.171" y="1349" type="line"/>
      <point x="924.171" y="1349" type="line"/>
      <point x="997.171" y="1548" type="line"/>
    </contour>
    <contour>
      <point x="352.171" y="200" type="line"/>
      <point x="279.171" y="0" type="line"/>
      <point x="441.171" y="0" type="line"/>
      <point x="514.171" y="200" type="line"/>
    </contour>
  </outline>
</glyph>
<glyph name="E" format="2">
  <advance width="2884"/>
  <unicode hex="0045"/>
  <outline>
    <contour>
      <point x="1323.2109375" y="1537.0" type="line"/>
      <point x="763.7890625" y="0.0" type="line"/>
      <point x="963.7890625" y="0.0" type="line"/>
      <point x="1523.2109375" y="1537.0" type="line"/>
    </contour>
    <contour>
      <point x="1401.2109375" y="1537.0" type="line"/>
      <point x="1326.9609375" y="1333.0" type="line"/>
      <point x="2045.9609375" y="1333.0" type="line"/>
      <point x="2120.2109375" y="1537.0" type="line"/>
    </contour>
    <contour>
      <point x="904.674804688" y="203.0" type="line"/>
      <point x="830.7890625" y="0.0" type="line"/>
      <point x="1576.7890625" y="0.0" type="line"/>
      <point x="1650.67480469" y="203.0" type="line"/>
    </contour>
    <contour>
      <point x="1153.99511719" y="888.0" type="line"/>
      <point x="1081.20019531" y="688.0" type="line"/>
      <point x="1580.20019531" y="688.0" type="line"/>
      <point x="1652.99511719" y="888.0" type="line"/>
    </contour>
  </outline>
</glyph>
<glyph name="F" format="2">
  <advance width="1024"/>
  <unicode hex="0046"/>
  <outline>
    <contour>
      <point x="425.712890625" y="1548.0" type="line"/>
      <point x="-137.712890625" y="0.0" type="line"/>
      <point x="62.287109375" y="0.0" type="line"/>
      <point x="625.712890625" y="1548.0" type="line"/>
    </contour>
    <contour>
      <point x="527.712890625" y="1548.0" type="line"/>
      <point x="454.5546875" y="1347.0" type="line"/>
      <point x="1088.5546875" y="1347.0" type="line"/>
      <point x="1161.71289062" y="1548.0" type="line"/>
    </contour>
    <contour>
      <point x="270.760742188" y="875.0" type="line"/>
      <point x="196.875" y="672.0" type="line"/>
      <point x="745.875" y="672.0" type="line"/>
      <point x="819.760742188" y="875.0" type="line"/>
    </contour>
  </outline>
</glyph>
<glyph name="G" format="2">
  <advance width="1024"/>
  <unicode hex="0047"/>
  <anchor x="826" y="1637" name="top"/>
  <anchor x="268" y="-58" name="base"/>
  <outline>
    <contour>
      <point x="415" y="1548" type="line"/>
      <point x="-149" y="0" type="line"/>
      <point x="53" y="0" type="line"/>
      <point x="617" y="1548" type="line"/>
    </contour>
    <contour>
      <point x="473" y="1548" type="line"/>
      <point x="400" y="1347" type="line"/>
      <point x="1100" y="1347" type="line"/>
      <point x="1173" y="1548" type="line"/>
    </contour>
    <contour>
      <point x="-44" y="202" type="line"/>
      <point x="-118" y="0" type="line"/>
      <point x="645" y="0" type="line"/>
      <point x="719" y="202" type="line"/>
    </contour>
    <contour>
      <point x="650" y="561" type="line"/>
      <point x="453" y="18" type="line"/>
      <point x="652" y="18" type="line"/>
      <point x="849" y="561" type="line"/>
    </contour>
  </outline>
</glyph>
<glyph name="H" format="2">
  <advance width="2884"/>
  <unicode hex="0048"/>
  <outline>
    <contour>
      <point x="1323.7109375" y="1537.0" type="line"/>
      <point x="764.2890625" y="0.0" type="line"/>
      <point x="964.2890625" y="0.0" type="line"/>
      <point x="1523.7109375" y="1537.0" type="line"/>
    </contour>
    <contour>
      <point x="1909.7109375" y="1537.0" type="line"/>
      <point x="1350.2890625" y="0.0" type="line"/>
      <point x="1560.2890625" y="0.0" type="line"/>
      <point x="2119.7109375" y="1537.0" type="line"/>
    </contour>
    <contour>
      <point x="1256.63085938" y="1023.0" type="line"/>
      <point x="1182.01660156" y="818.0" type="line"/>
      <point x="1728.01660156" y="818.0" type="line"/>
      <point x="1802.63085938" y="1023.0" type="line"/>
    </contour>
  </outline>
</glyph>
<glyph name="I" format="2">
  <advance width="1024"/>
  <unicode hex="0049"/>
  <anchor x="790" y="1645" name="top"/>
  <anchor x="236" y="-50" name="base"/>
  <outline>
    <contour>
      <point x="450.119" y="1537" type="line"/>
      <point x="376.598" y="1335" type="line"/>
      <point x="1077.6" y="1335" type="line"/>
      <point x="1151.12" y="1537" type="line"/>
    </contour>
    <contour>
      <point x="658.006" y="1468" type="line"/>
      <point x="154.271" y="84" type="line"/>
      <point x="354.271" y="84" type="line"/>
      <point x="858.006" y="1468" type="line"/>
    </contour>
    <contour>
      <point x="-55.0527" y="204" type="line"/>
      <point x="-127.119" y="6" type="line"/>
      <point x="628.881" y="6" type="line"/>
      <point x="700.947" y="204" type="line"/>
    </contour>
  </outline>
</glyph>
<glyph name="J" format="2">
  <advance width="1024"/>
  <unicode hex="004A"/>
  <outline>
    <contour>
      <point x="976.890625" y="1527.0" type="line"/>
      <point x="421.109375" y="0.0" type="line"/>
      <point x="621.109375" y="0.0" type="line"/>
      <point x="1176.890625" y="1527.0" type="line"/>
    </contour>
    <contour>
      <point x="-77.185546875" y="208.0" type="line"/>
      <point x="-152.890625" y="0.0" type="line"/>
      <point x="462.109375" y="0.0" type="line"/>
      <point x="537.814453125" y="208.0" type="line"/>
    </contour>
    <contour>
      <point x="29.185546875" y="503.0" type="line"/>
      <point x="-134.96484375" y="52.0" type="line"/>
      <point x="63.03515625" y="52.0" type="line"/>
      <point x="227.185546875" y="503.0" type="line"/>
    </contour>
  </outline>
</glyph>
<glyph name="K" format="2">
  <advance width="1024"/>
  <unicode hex="004B"/>
  <anchor x="202" y="-86" name="base"/>
  <anchor x="524" y="1642" name="top"/>
  <outline>
    <contour>
      <point x="381.756" y="1537" type="line"/>
      <point x="-175.846" y="5" type="line"/>
      <point x="25.1543" y="5" type="line"/>
      <point x="582.756" y="1537" type="line"/>
    </contour>
    <contour>
      <point x="230.941" y="999" type="line"/>
      <point x="290.25" y="835" type="line"/>
      <point x="1199.85" y="1529" type="line"/>
      <point x="932.846" y="1529" type="line"/>
    </contour>
    <contour>
      <point x="287.783" y="798" type="line"/>
      <point x="94.3672" y="643" type="line"/>
      <point x="415.334" y="0" type="line"/>
      <point x="696.334" y="0" type="line"/>
    </contour>
  </outline>
</glyph>
<glyph name="L" format="2">
  <advance width="1024"/>
  <unicode hex="004C"/>
  <anchor x="498" y="-43" name="base"/>
  <anchor x="780" y="1663" name="top"/>
  <outline>
    <contour>
      <point x="619" y="1542" type="line"/>
      <point x="58" y="0" type="line"/>
      <point x="256" y="0" type="line"/>
      <point x="817" y="1542" type="line"/>
    </contour>
    <contour>
      <point x="240" y="202" type="line"/>
      <point x="167" y="0" type="line"/>
      <point x="893" y="0" type="line"/>
      <point x="966" y="202" type="line"/>
    </contour>
  </outline>
</glyph>
<glyph name="M" format="2">
  <advance width="1024"/>
  <unicode hex="004D"/>
  <anchor x="288" y="-67" name="base"/>
  <anchor x="814" y="1620" name="top"/>
  <outline>
    <contour>
      <point x="384" y="1548" type="line"/>
      <point x="-179" y="0" type="line"/>
      <point x="24" y="0" type="line"/>
      <point x="587" y="1548" type="line"/>
    </contour>
    <contour>
      <point x="1001" y="1537" type="line"/>
      <point x="442" y="0" type="line"/>
      <point x="644" y="0" type="line"/>
      <point x="1203" y="1537" type="line"/>
    </contour>
    <contour>
      <point x="378" y="1429" type="line"/>
      <point x="523" y="1031" type="line"/>
      <point x="711" y="1031" type="line"/>
      <point x="563" y="1548" type="line"/>
    </contour>
    <contour>
      <point x="1028" y="1537" type="line"/>
      <point x="519" y="1023" type="line"/>
      <point x="706" y="1023" type="line"/>
      <point x="1176" y="1488" type="line"/>
    </contour>
  </outline>
</glyph>
<glyph name="N" format="2">
  <advance width="1024"/>
  <unicode hex="004E"/>
  <anchor x="820" y="1617" name="top"/>
  <anchor x="256" y="-55" name="base"/>
  <outline>
    <contour>
      <point x="379.213" y="1548" type="line"/>
      <point x="-184.213" y="0" type="line"/>
      <point x="20.7871" y="0" type="line"/>
      <point x="584.213" y="1548" type="line"/>
    </contour>
    <contour>
      <point x="1006.21" y="1548" type="line"/>
      <point x="442.787" y="0" type="line"/>
      <point x="644.787" y="0" type="line"/>
      <point x="1208.21" y="1548" type="line"/>
    </contour>
    <contour>
      <point x="380.213" y="1548" type="line"/>
      <point x="443.787" y="0" type="line"/>
      <point x="646.787" y="0" type="line"/>
      <point x="585.213" y="1548" type="line"/>
    </contour>
  </outline>
</glyph>
<glyph name="O" format="2">
  <advance width="2892"/>
  <unicode hex="004F"/>
  <outline>
    <contour>
      <point x="1325.7109375" y="1537.0" type="line"/>
      <point x="766.2890625" y="0.0" type="line"/>
      <point x="967.2890625" y="0.0" type="line"/>
      <point x="1526.7109375" y="1537.0" type="line"/>
    </contour>
    <contour>
      <point x="1922.7109375" y="1537.0" type="line"/>
      <point x="1363.2890625" y="0.0" type="line"/>
      <point x="1566.2890625" y="0.0" type="line"/>
      <point x="2125.7109375" y="1537.0" type="line"/>
    </contour>
    <contour>
      <point x="1389.7109375" y="1537.0" type="line"/>
      <point x="1316.91699219" y="1337.0" type="line"/>
      <point x="1959.91699219" y="1337.0" type="line"/>
      <point x="2032.7109375" y="1537.0" type="line"/>
    </contour>
    <contour>
      <point x="880.5390625" y="204.0" type="line"/>
      <point x="806.2890625" y="0.0" type="line"/>
      <point x="1479.2890625" y="0.0" type="line"/>
      <point x="1553.5390625" y="204.0" type="line"/>
    </contour>
  </outline>
</glyph>
<glyph name="P" format="2">
  <advance width="1024"/>
  <unicode hex="0050"/>
  <anchor x="508" y="-19" name="base"/>
  <anchor x="730" y="1658" name="top"/>
  <outline>
    <contour>
      <point x="415" y="1548" type="line"/>
      <point x="-146" y="9" type="line"/>
      <point x="44" y="9" type="line"/>
      <point x="605" y="1548" type="line"/>
    </contour>
    <contour>
      <point x="494" y="1548" type="line"/>
      <point x="420" y="1346" type="line"/>
      <point x="1076" y="1346" type="line"/>
      <point x="1150" y="1548" type="line"/>
    </contour>
    <contour>
      <point x="970" y="1548" type="line"/>
      <point x="727" y="881" type="line"/>
      <point x="927" y="881" type="line"/>
      <point x="1170" y="1548" type="line"/>
    </contour>
    <contour>
      <point x="303" y="1068" type="line"/>
      <point x="230" y="868" type="line"/>
      <point x="917" y="868" type="line"/>
      <point x="990" y="1068" type="line"/>
    </contour>
  </outline>
</glyph>
<glyph name="Q" format="2">
  <advance width="1024"/>
  <unicode hex="0051"/>
  <outline>
    <contour>
      <point x="390.80078125" y="1537.0" type="line"/>
      <point x="-166.80078125" y="5.0" type="line"/>
      <point x="32.19921875" y="5.0" type="line"/>
      <point x="589.80078125" y="1537.0" type="line"/>
    </contour>
    <contour>
      <point x="989.80078125" y="1537.0" type="line"/>
      <point x="430.37890625" y="0.0" type="line"/>
      <point x="631.37890625" y="0.0" type="line"/>
      <point x="1190.80078125" y="1537.0" type="line"/>
    </contour>
    <contour>
      <point x="454.80078125" y="1537.0" type="line"/>
      <point x="382.006835938" y="1337.0" type="line"/>
      <point x="1025.00683594" y="1337.0" type="line"/>
      <point x="1097.80078125" y="1537.0" type="line"/>
    </contour>
    <contour>
      <point x="-54.0068359375" y="205.0" type="line"/>
      <point x="-128.62109375" y="0.0" type="line"/>
      <point x="544.37890625" y="0.0" type="line"/>
      <point x="618.993164062" y="205.0" type="line"/>
    </contour>
    <contour>
      <point x="287.022460938" y="21.0" type="line"/>
      <point x="361.647460938" y="-285.0" type="line"/>
      <point x="594.868164062" y="-169.0" type="line"/>
      <point x="520.243164062" y="137.0" type="line"/>
    </contour>
  </outline>
</glyph>
<glyph name="R" format="2">
  <advance width="2816"/>
  <unicode hex="0052"/>
  <outline>
    <contour>
      <point x="1306.7109375" y="1537.0" type="line"/>
      <point x="747.2890625" y="0.0" type="line"/>
      <point x="948.2890625" y="0.0" type="line"/>
      <point x="1507.7109375" y="1537.0" type="line"/>
    </contour>
    <contour>
      <point x="1385.7109375" y="1537.0" type="line"/>
      <point x="1312.18945312" y="1335.0" type="line"/>
      <point x="1968.18945312" y="1335.0" type="line"/>
      <point x="2041.7109375" y="1537.0" type="line"/>
    </contour>
    <contour>
      <point x="1868.7109375" y="1537.0" type="line"/>
      <point x="1626.67089844" y="872.0" type="line"/>
      <point x="1826.67089844" y="872.0" type="line"/>
      <point x="2068.7109375" y="1537.0" type="line"/>
    </contour>
    <contour>
      <point x="1203.01269531" y="1079.0" type="line"/>
      <point x="1126.21484375" y="868.0" type="line"/>
      <point x="1813.21484375" y="868.0" type="line"/>
      <point x="1890.01269531" y="1079.0" type="line"/>
    </contour>
    <contour>
      <point x="1267.39941406" y="874.0" type="line"/>
      <point x="1351.2890625" y="0.0" type="line"/>
      <point x="1591.2890625" y="0.0" type="line"/>
      <point x="1493.67089844" y="872.0" type="line"/>
    </contour>
  </outline>
</glyph>
<glyph name="S" format="2">
  <advance width="1024"/>
  <unicode hex="0053"/>
  <anchor x="834" y="1644" name="top"/>
  <anchor x="330" y="-77" name="base"/>
  <outline>
    <contour>
      <point x="479" y="1537" type="line"/>
      <point x="406" y="1336" type="line"/>
      <point x="1004" y="1336" type="line"/>
      <point x="1077" y="1537" type="line"/>
    </contour>
    <contour>
      <point x="481" y="1542" type="line"/>
      <point x="293" y="1028" type="line"/>
      <point x="495" y="1028" type="line"/>
      <point x="683" y="1542" type="line"/>
    </contour>
    <contour>
      <point x="20" y="199" type="line"/>
      <point x="-53" y="0" type="line"/>
      <point x="655" y="0" type="line"/>
      <point x="728" y="199" type="line"/>
    </contour>
    <contour>
      <point x="490" y="0" type="line"/>
      <point x="691" y="0" type="line"/>
      <point x="820" y="355" type="line"/>
      <point x="619" y="355" type="line"/>
    </contour>
    <contour>
      <point x="293" y="1028" type="line"/>
      <point x="619" y="355" type="line"/>
      <point x="820" y="355" type="line"/>
      <point x="495" y="1028" type="line"/>
    </contour>
  </outline>
</glyph>
<glyph name="T" format="2">
  <advance width="1024"/>
  <unicode hex="0054"/>
  <anchor x="704" y="1629" name="top"/>
  <anchor x="100" y="-79" name="base"/>
  <outline>
    <contour>
      <point x="262" y="1548" type="line"/>
      <point x="189" y="1348" type="line"/>
      <point x="963" y="1348" type="line"/>
      <point x="1036" y="1548" type="line"/>
    </contour>
    <contour>
      <point x="508" y="1436" type="line"/>
      <point x="-12" y="6" type="line"/>
      <point x="188" y="6" type="line"/>
      <point x="708" y="1436" type="line"/>
    </contour>
  </outline>
</glyph>
<glyph name="U" format="2">
  <advance width="1024"/>
  <unicode hex="0055"/>
  <anchor x="778" y="1642" name="top"/>
  <anchor x="201" y="-100" name="base"/>
  <outline>
    <contour>
      <point x="437" y="1537" type="line"/>
      <point x="-123" y="0" type="line"/>
      <point x="77" y="0" type="line"/>
      <point x="637" y="1537" type="line"/>
    </contour>
    <contour>
      <point x="948" y="1537" type="line"/>
      <point x="388" y="0" type="line"/>
      <point x="587" y="0" type="line"/>
      <point x="1147" y="1537" type="line"/>
    </contour>
    <contour>
      <point x="-3" y="200" type="line"/>
      <point x="-76" y="0" type="line"/>
      <point x="544" y="0" type="line"/>
      <point x="617" y="200" type="line"/>
    </contour>
  </outline>
</glyph>
<glyph name="V" format="2">
  <advance width="2402"/>
  <unicode hex="0056"/>
  <outline>
    <contour>
      <point x="947.212890625" y="1548.0" type="line"/>
      <point x="643.787109375" y="0.0" type="line"/>
      <point x="864.787109375" y="0.0" type="line"/>
      <point x="1148.21289062" y="1548.0" type="line"/>
    </contour>
    <contour>
      <point x="1557.21289062" y="1548.0" type="line"/>
      <point x="768.787109375" y="0.0" type="line"/>
      <point x="991.787109375" y="0.0" type="line"/>
      <point x="1758.21289062" y="1548.0" type="line"/>
    </contour>
  </outline>
</glyph>
<glyph name="W" format="2">
  <advance width="2938"/>
  <unicode hex="0057"/>
  <outline>
    <contour>
      <point x="1342.21289062" y="1548.0" type="line"/>
      <point x="778.787109375" y="0.0" type="line"/>
      <point x="979.787109375" y="0.0" type="line"/>
      <point x="1543.21289062" y="1548.0" type="line"/>
    </contour>
    <contour>
      <point x="1959.21289062" y="1548.0" type="line"/>
      <point x="1400.15429688" y="12.0" type="line"/>
      <point x="1601.15429688" y="12.0" type="line"/>
      <point x="2160.21289062" y="1548.0" type="line"/>
    </contour>
    <contour>
      <point x="1461.94824219" y="1028.0" type="line"/>
      <point x="1087.78710938" y="0.0" type="line"/>
      <point x="1288.78710938" y="0.0" type="line"/>
      <point x="1662.94824219" y="1028.0" type="line"/>
    </contour>
    <contour>
      <point x="850.9453125" y="201.0" type="line"/>
      <point x="777.787109375" y="0.0" type="line"/>
      <point x="1596.78710938" y="0.0" type="line"/>
      <point x="1669.9453125" y="201.0" type="line"/>
    </contour>
  </outline>
</glyph>
<glyph name="X" format="2">
  <advance width="1024"/>
  <unicode hex="0058"/>
  <anchor x="811" y="1627" name="top"/>
  <anchor x="288" y="-32" name="base"/>
  <outline>
    <contour>
      <point x="374.121" y="1548" type="line"/>
      <point x="452.695" y="0" type="line"/>
      <point x="652.695" y="0" type="line"/>
      <point x="573.121" y="1548" type="line"/>
    </contour>
    <contour>
      <point x="-184.121" y="6" type="line"/>
      <point x="16.8789" y="6" type="line"/>
      <point x="1208.12" y="1548" type="line"/>
      <point x="1009.12" y="1548" type="line"/>
    </contour>
  </outline>
</glyph>
<glyph name="Y" format="2">
  <advance width="1024"/>
  <unicode hex="0059"/>
  <outline>
    <contour>
      <point x="330.268554688" y="897.0" type="line"/>
      <point x="3.787109375" y="0.0" type="line"/>
      <point x="205.787109375" y="0.0" type="line"/>
      <point x="532.268554688" y="897.0" type="line"/>
    </contour>
    <contour>
      <point x="316.212890625" y="1548.0" type="line"/>
      <point x="65.4375" y="859.0" type="line"/>
      <point x="265.4375" y="859.0" type="line"/>
      <point x="516.212890625" y="1548.0" type="line"/>
    </contour>
    <contour>
      <point x="821.212890625" y="1548.0" type="line"/>
      <point x="570.4375" y="859.0" type="line"/>
      <point x="769.4375" y="859.0" type="line"/>
      <point x="1020.21289062" y="1548.0" type="line"/>
    </contour>
    <contour>
      <point x="193.12890625" y="1023.0" type="line"/>
      <point x="133.4375" y="859.0" type="line"/>
      <point x="679.4375" y="859.0" type="line"/>
      <point x="739.12890625" y="1023.0" type="line"/>
    </contour>
  </outline>
</glyph>
<glyph name="Z" format="2">
  <advance width="1024"/>
  <unicode hex="005A"/>
  <anchor x="784" y="1649" name="top"/>
  <anchor x="178" y="-84" name="base"/>
  <outline>
    <contour>
      <point x="376" y="1548" type="line"/>
      <point x="299" y="1336" type="line"/>
      <point x="1133" y="1336" type="line"/>
      <point x="1210" y="1548" type="line"/>
    </contour>
    <contour>
      <point x="-109" y="212" type="line"/>
      <point x="-186" y="0" type="line"/>
      <point x="642" y="0" type="line"/>
      <point x="719" y="212" type="line"/>
    </contour>
    <contour>
      <point x="872" y="1335" type="line"/>
      <point x="-109" y="211" type="line"/>
      <point x="98" y="211" type="line"/>
      <point x="1117" y="1335" type="line"/>
    </contour>
  </outline>
</glyph>
<glyph name="bracketleft" format="2">
  <advance width="1024"/>
  <unicode hex="005B"/>
  <outline>
    <contour>
      <point x="704.979" y="1542" type="line"/>
      <point x="55.6562" y="-242" type="line"/>
      <point x="177.656" y="-242" type="line"/>
      <point x="826.979" y="1542" type="line"/>
    </contour>
    <contour>
      <point x="759.344" y="1543" type="line"/>
      <point x="713.119" y="1416" type="line"/>
      <point x="922.119" y="1416" type="line"/>
      <point x="968.344" y="1543" type="line"/>
    </contour>
    <contour>
      <point x="164.616" y="-91" type="line"/>
      <point x="109.656" y="-242" type="line"/>
      <point x="323.656" y="-242" type="line"/>
      <point x="378.616" y="-91" type="line"/>
    </contour>
  </outline>
</glyph>
<glyph name="backslash" format="2">
  <advance width="1024"/>
  <unicode hex="005C"/>
  <outline>
    <contour>
      <point x="353.412109375" y="1441.0" type="line"/>
      <point x="451.19921875" y="-13.0" type="line"/>
      <point x="670.587890625" y="65.0" type="line"/>
      <point x="573.80078125" y="1519.0" type="line"/>
    </contour>
  </outline>
</glyph>
<glyph name="bracketright" format="2">
  <advance width="1024"/>
  <unicode hex="005D"/>
  <outline>
    <contour>
      <point x="850.662" y="1542" type="line"/>
      <point x="201.338" y="-242" type="line"/>
      <point x="323.338" y="-242" type="line"/>
      <point x="972.662" y="1542" type="line"/>
    </contour>
    <contour>
      <point x="701.025" y="1543" type="line"/>
      <point x="654.801" y="1416" type="line"/>
      <point x="863.801" y="1416" type="line"/>
      <point x="910.025" y="1543" type="line"/>
    </contour>
    <contour>
      <point x="106.299" y="-91" type="line"/>
      <point x="51.3379" y="-242" type="line"/>
      <point x="265.338" y="-242" type="line"/>
      <point x="320.299" y="-91" type="line"/>
    </contour>
  </outline>
</glyph>
<glyph name="asciicircum" format="2">
  <advance width="1024"/>
  <unicode hex="005E"/>
  <outline>
    <contour>
      <point x="812.98" y="1023" type="line"/>
      <point x="663.98" y="1023" type="line"/>
      <point x="174.773" y="407" type="line"/>
      <point x="302.207" y="345" type="line"/>
    </contour>
    <contour>
      <point x="626.668" y="904" type="line"/>
      <point x="678.48" y="343" type="line"/>
      <point x="849.227" y="400" type="line"/>
      <point x="812.98" y="1023" type="line"/>
    </contour>
  </outline>
</glyph>
<glyph name="underscore" format="2">
  <advance width="1024"/>
  <unicode hex="005F"/>
  <outline>
    <contour>
      <point x="12.0107421875" y="-5.0" type="line"/>
      <point x="-12.0107421875" y="-71.0" type="line"/>
      <point x="1011.98925781" y="-71.0" type="line"/>
      <point x="1036.01074219" y="-5.0" type="line"/>
    </contour>
  </outline>
</glyph>
<glyph name="grave" format="2">
  <advance width="1024"/>
  <unicode hex="0060"/>
  <outline>
    <contour>
      <point x="406.673828125" y="1358.0" type="line"/>
      <point x="442.119140625" y="1057.0" type="line"/>
      <point x="617.326171875" y="1129.0" type="line"/>
      <point x="580.880859375" y="1430.0" type="line"/>
    </contour>
  </outline>
</glyph>
<glyph name="a" format="2">
  <advance width="1024"/>
  <unicode hex="0061"/>
  <anchor x="659" y="1144" name="top"/>
  <anchor x="347" y="-76" name="base"/>
  <outline>
    <contour>
      <point x="353.671" y="1023" type="line"/>
      <point x="281.24" y="824" type="line"/>
      <point x="887.24" y="824" type="line"/>
      <point x="959.671" y="1023" type="line"/>
    </contour>
    <contour>
      <point x="846.671" y="1023" type="line"/>
      <point x="474.329" y="0" type="line"/>
      <point x="668.329" y="0" type="line"/>
      <point x="1040.67" y="1023" type="line"/>
    </contour>
    <contour>
      <point x="203.348" y="599" type="line"/>
      <point x="130.917" y="400" type="line"/>
      <point x="754.917" y="400" type="line"/>
      <point x="827.348" y="599" type="line"/>
    </contour>
    <contour>
      <point x="194.612" y="575" type="line"/>
      <point x="-14.6709" y="0" type="line"/>
      <point x="186.329" y="0" type="line"/>
      <point x="395.612" y="575" type="line"/>
    </contour>
    <contour>
      <point x="56.4873" y="201" type="line"/>
      <point x="-16.6709" y="0" type="line"/>
      <point x="673.329" y="0" type="line"/>
      <point x="746.487" y="201" type="line"/>
    </contour>
  </outline>
</glyph>
<glyph name="b" format="2">
  <advance width="2432"/>
  <unicode hex="0062"/>
  <outline>
    <contour>
      <point x="1210.43164062" y="1537.0" type="line"/>
      <point x="651.009765625" y="0.0" type="line"/>
      <point x="850.009765625" y="0.0" type="line"/>
      <point x="1409.43164062" y="1537.0" type="line"/>
    </contour>
    <contour>
      <point x="1123.99023438" y="1033.0" type="line"/>
      <point x="1051.56054688" y="834.0" type="line"/>
      <point x="1569.56054688" y="834.0" type="line"/>
      <point x="1641.99023438" y="1033.0" type="line"/>
    </contour>
    <contour>
      <point x="1581.99023438" y="1033.0" type="line"/>
      <point x="1206.00976562" y="0.0" type="line"/>
      <point x="1405.00976562" y="0.0" type="line"/>
      <point x="1780.99023438" y="1033.0" type="line"/>
    </contour>
    <contour>
      <point x="851.3515625" y="207.0" type="line"/>
      <point x="776.009765625" y="0.0" type="line"/>
      <point x="1326.00976562" y="0.0" type="line"/>
      <point x="1401.3515625" y="207.0" type="line"/>
    </contour>
  </outline>
</glyph>
<glyph name="c" format="2">
  <advance width="2304"/>
  <unicode hex="0063"/>
  <outline>
    <contour>
      <point x="989.170898438" y="1023.0" type="line"/>
      <point x="917.46875" y="826.0" type="line"/>
      <point x="1613.46875" y="826.0" type="line"/>
      <point x="1685.17089844" y="1023.0" type="line"/>
    </contour>
    <contour>
      <point x="976.975585938" y="984.0" type="line"/>
      <point x="618.829101562" y="0.0" type="line"/>
      <point x="820.829101562" y="0.0" type="line"/>
      <point x="1178.97558594" y="984.0" type="line"/>
    </contour>
    <contour>
      <point x="797.987304688" y="201.0" type="line"/>
      <point x="724.829101562" y="0.0" type="line"/>
      <point x="1306.82910156" y="0.0" type="line"/>
      <point x="1379.98730469" y="201.0" type="line"/>
    </contour>
  </outline>
</glyph>
<glyph name="d" format="2">
  <advance width="1024"/>
  <unicode hex="0064"/>
  <anchor x="298" y="-63" name="base"/>
  <anchor x="1032" y="1632" name="top"/>
  <outline>
    <contour>
      <point x="969" y="1527" type="line"/>
      <point x="414" y="0" type="line"/>
      <point x="615" y="0" type="line"/>
      <point x="1170" y="1527" type="line"/>
    </contour>
    <contour>
      <point x="322" y="1023" type="line"/>
      <point x="249" y="822" type="line"/>
      <point x="802" y="822" type="line"/>
      <point x="875" y="1023" type="line"/>
    </contour>
    <contour>
      <point x="226" y="1023" type="line"/>
      <point x="-146" y="0" type="line"/>
      <point x="55" y="0" type="line"/>
      <point x="427" y="1023" type="line"/>
    </contour>
    <contour>
      <point x="21" y="195" type="line"/>
      <point x="-50" y="0" type="line"/>
      <point x="567" y="0" type="line"/>
      <point x="638" y="195" type="line"/>
    </contour>
  </outline>
</glyph>
<glyph name="e" format="2">
  <advance width="1024"/>
  <unicode hex="0065"/>
  <anchor x="730" y="1156" name="top"/>
  <anchor x="329" y="-75" name="base"/>
  <outline>
    <contour>
      <point x="405.671" y="1023" type="line"/>
      <point x="328.873" y="812" type="line"/>
      <point x="963.873" y="812" type="line"/>
      <point x="1040.67" y="1023" type="line"/>
    </contour>
    <contour>
      <point x="355.671" y="1023" type="line"/>
      <point x="-16.6709" y="0" type="line"/>
      <point x="185.329" y="0" type="line"/>
      <point x="557.671" y="1023" type="line"/>
    </contour>
    <contour>
      <point x="158.487" y="201" type="line"/>
      <point x="85.3291" y="0" type="line"/>
      <point x="667.329" y="0" type="line"/>
      <point x="740.487" y="201" type="line"/>
    </contour>
    <contour>
      <point x="280.811" y="625" type="line"/>
      <point x="215.66" y="446" type="line"/>
      <point x="805.66" y="446" type="line"/>
      <point x="870.811" y="625" type="line"/>
    </contour>
    <contour>
      <point x="832.752" y="993" type="line"/>
      <point x="633.296" y="445" type="line"/>
      <point x="828.296" y="445" type="line"/>
      <point x="1027.75" y="993" type="line"/>
    </contour>
  </outline>
</glyph>
<glyph name="f" format="2">
  <advance width="2300"/>
  <unicode hex="0066"/>
  <outline>
    <contour>
      <point x="1138.05664062" y="1023.0" type="line"/>
      <point x="617.943359375" y="-406.0" type="line"/>
      <point x="817.943359375" y="-406.0" type="line"/>
      <point x="1338.05664062" y="1023.0" type="line"/>
    </contour>
    <contour>
      <point x="1200.05664062" y="1023.0" type="line"/>
      <point x="1130.17382812" y="831.0" type="line"/>
      <point x="1612.17382812" y="831.0" type="line"/>
      <point x="1682.05664062" y="1023.0" type="line"/>
    </contour>
    <contour>
      <point x="785.173828125" y="559.0" type="line"/>
      <point x="711.288085938" y="356.0" type="line"/>
      <point x="1342.28808594" y="356.0" type="line"/>
      <point x="1416.17382812" y="559.0" type="line"/>
    </contour>
  </outline>
</glyph>
<glyph name="g" format="2">
  <advance width="1024"/>
  <unicode hex="0067"/>
  <anchor x="758" y="1134" name="top"/>
  <anchor x="237" y="-467" name="base"/>
  <outline>
    <contour>
      <point x="487" y="1023" type="line"/>
      <point x="115" y="0" type="line"/>
      <point x="307" y="0" type="line"/>
      <point x="679" y="1023" type="line"/>
    </contour>
    <contour>
      <point x="527" y="1023" type="line"/>
      <point x="455" y="823" type="line"/>
      <point x="971" y="823" type="line"/>
      <point x="1043" y="1023" type="line"/>
    </contour>
    <contour>
      <point x="871" y="1023" type="line"/>
      <point x="349" y="-411" type="line"/>
      <point x="543" y="-411" type="line"/>
      <point x="1065" y="1023" type="line"/>
    </contour>
    <contour>
      <point x="250" y="198" type="line"/>
      <point x="178" y="0" type="line"/>
      <point x="635" y="0" type="line"/>
      <point x="707" y="198" type="line"/>
    </contour>
    <contour>
      <point x="31" y="-214" type="line"/>
      <point x="-41" y="-413" type="line"/>
      <point x="494" y="-413" type="line"/>
      <point x="566" y="-214" type="line"/>
    </contour>
  </outline>
</glyph>
<glyph name="h" format="2">
  <advance width="2264"/>
  <unicode hex="0068"/>
  <outline>
    <contour>
      <point x="1166.15917969" y="1537.0" type="line"/>
      <point x="608.920898438" y="6.0" type="line"/>
      <point x="808.920898438" y="6.0" type="line"/>
      <point x="1366.15917969" y="1537.0" type="line"/>
    </contour>
    <contour>
      <point x="1116.07910156" y="1023.0" type="line"/>
      <point x="1044.37695312" y="826.0" type="line"/>
      <point x="1575.37695312" y="826.0" type="line"/>
      <point x="1647.07910156" y="1023.0" type="line"/>
    </contour>
    <contour>
      <point x="1456.07910156" y="1023.0" type="line"/>
      <point x="1083.73730469" y="0.0" type="line"/>
      <point x="1282.73730469" y="0.0" type="line"/>
      <point x="1655.07910156" y="1023.0" type="line"/>
    </contour>
  </outline>
</glyph>
<glyph name="i" format="2">
  <advance width="1024"/>
  <unicode hex="0069"/>
  <outline>
    <contour>
      <point x="700.291992188" y="1018.0" type="line"/>
      <point x="380.362304688" y="139.0" type="line"/>
      <point x="582.362304688" y="139.0" type="line"/>
      <point x="902.291992188" y="1018.0" type="line"/>
    </contour>
    <contour>
      <point x="134.020507812" y="204.0" type="line"/>
      <point x="61.9541015625" y="6.0" type="line"/>
      <point x="803.954101562" y="6.0" type="line"/>
      <point x="876.020507812" y="204.0" type="line"/>
    </contour>
    <contour>
      <point x="764.045898438" y="1369.0" type="line"/>
      <point x="690.887695312" y="1168.0" type="line"/>
      <point x="888.887695312" y="1168.0" type="line"/>
      <point x="962.045898438" y="1369.0" type="line"/>
    </contour>
    <contour>
      <point x="480.291992188" y="1018.0" type="line"/>
      <point x="407.498046875" y="818.0" type="line"/>
      <point x="783.498046875" y="818.0" type="line"/>
      <point x="856.291992188" y="1018.0" type="line"/>
    </contour>
  </outline>
</glyph>
<glyph name="j" format="2">
  <advance width="1024"/>
  <unicode hex="006A"/>
  <anchor x="1070" y="1521" name="top"/>
  <anchor x="176" y="-455" name="base"/>
  <outline>
    <contour>
      <point x="820" y="1023" type="line"/>
      <point x="298" y="-411" type="line"/>
      <point x="497" y="-411" type="line"/>
      <point x="1019" y="1023" type="line"/>
    </contour>
    <contour>
      <point x="-59" y="-209" type="line"/>
      <point x="-131" y="-406" type="line"/>
      <point x="399" y="-406" type="line"/>
      <point x="471" y="-209" type="line"/>
    </contour>
    <contour>
      <point x="16" y="-6" type="line"/>
      <point x="-110" y="-351" type="line"/>
      <point x="90" y="-351" type="line"/>
      <point x="216" y="-6" type="line"/>
    </contour>
    <contour>
      <point x="954" y="1413" type="line"/>
      <point x="881" y="1214" type="line"/>
      <point x="1082" y="1214" type="line"/>
      <point x="1155" y="1413" type="line"/>
    </contour>
  </outline>
</glyph>
<glyph name="k" format="2">
  <advance width="2484"/>
  <unicode hex="006B"/>
  <outline>
    <contour>
      <point x="1221.84082031" y="1537.0" type="line"/>
      <point x="664.239257812" y="5.0" type="line"/>
      <point x="864.239257812" y="5.0" type="line"/>
      <point x="1421.84082031" y="1537.0" type="line"/>
    </contour>
    <contour>
      <point x="899.227539062" y="516.0" type="line"/>
      <point x="868.881835938" y="298.0" type="line"/>
      <point x="1819.76074219" y="1023.0" type="line"/>
      <point x="1602.76074219" y="1023.0" type="line"/>
    </contour>
    <contour>
      <point x="1198.08398438" y="631.0" type="line"/>
      <point x="992.216796875" y="483.0" type="line"/>
      <point x="1266.41894531" y="0.0" type="line"/>
      <point x="1504.41894531" y="0.0" type="line"/>
    </contour>
  </outline>
</glyph>
<glyph name="l" format="2">
  <advance width="1024"/>
  <unicode hex="006C"/>
  <anchor x="347" y="-61" name="base"/>
  <anchor x="925" y="1640" name="top"/>
  <outline>
    <contour>
      <point x="96.2188" y="209" type="line"/>
      <point x="23.4248" y="9" type="line"/>
      <point x="657.425" y="9" type="line"/>
      <point x="730.219" y="209" type="line"/>
    </contour>
    <contour>
      <point x="800.575" y="1548" type="line"/>
      <point x="268.451" y="86" type="line"/>
      <point x="468.451" y="86" type="line"/>
      <point x="1000.58" y="1548" type="line"/>
    </contour>
    <contour>
      <point x="644.575" y="1548" type="line"/>
      <point x="572.146" y="1349" type="line"/>
      <point x="807.146" y="1349" type="line"/>
      <point x="879.575" y="1548" type="line"/>
    </contour>
  </outline>
</glyph>
<glyph name="m" format="2">
  <advance width="1024"/>
  <unicode hex="006D"/>
  <outline>
    <contour>
      <point x="272.751953125" y="993.0" type="line"/>
      <point x="-88.6708984375" y="0.0" type="line"/>
      <point x="111.329101562" y="0.0" type="line"/>
      <point x="472.751953125" y="993.0" type="line"/>
    </contour>
    <contour>
      <point x="580.108398438" y="972.0" type="line"/>
      <point x="226.329101562" y="0.0" type="line"/>
      <point x="426.329101562" y="0.0" type="line"/>
      <point x="780.108398438" y="972.0" type="line"/>
    </contour>
    <contour>
      <point x="896.564453125" y="976.0" type="line"/>
      <point x="541.329101562" y="0.0" type="line"/>
      <point x="741.329101562" y="0.0" type="line"/>
      <point x="1096.56445312" y="976.0" type="line"/>
    </contour>
    <contour>
      <point x="206.670898438" y="1023.0" type="line"/>
      <point x="134.96875" y="826.0" type="line"/>
      <point x="1040.96875" y="826.0" type="line"/>
      <point x="1112.67089844" y="1023.0" type="line"/>
    </contour>
  </outline>
</glyph>
<glyph name="n" format="2">
  <advance width="1024"/>
  <unicode hex="006E"/>
  <outline>
    <contour>
      <point x="386.659179688" y="990.0" type="line"/>
      <point x="26.3291015625" y="0.0" type="line"/>
      <point x="227.329101562" y="0.0" type="line"/>
      <point x="587.659179688" y="990.0" type="line"/>
    </contour>
    <contour>
      <point x="780.564453125" y="976.0" type="line"/>
      <point x="425.329101562" y="0.0" type="line"/>
      <point x="626.329101562" y="0.0" type="line"/>
      <point x="981.564453125" y="976.0" type="line"/>
    </contour>
    <contour>
      <point x="219.670898438" y="1023.0" type="line"/>
      <point x="147.96875" y="826.0" type="line"/>
      <point x="925.96875" y="826.0" type="line"/>
      <point x="997.670898438" y="1023.0" type="line"/>
    </contour>
  </outline>
</glyph>
<glyph name="o" format="2">
  <advance width="1024"/>
  <unicode hex="006F"/>
  <anchor x="695" y="1127" name="top"/>
  <anchor x="304" y="-69" name="base"/>
  <outline>
    <contour>
      <point x="289.671" y="1023" type="line"/>
      <point x="-82.6709" y="0" type="line"/>
      <point x="117.329" y="0" type="line"/>
      <point x="489.671" y="1023" type="line"/>
    </contour>
    <contour>
      <point x="904.671" y="1023" type="line"/>
      <point x="532.329" y="0" type="line"/>
      <point x="734.329" y="0" type="line"/>
      <point x="1106.67" y="1023" type="line"/>
    </contour>
    <contour>
      <point x="412.671" y="1023" type="line"/>
      <point x="339.513" y="822" type="line"/>
      <point x="925.513" y="822" type="line"/>
      <point x="998.671" y="1023" type="line"/>
    </contour>
    <contour>
      <point x="117.123" y="200" type="line"/>
      <point x="44.3291" y="0" type="line"/>
      <point x="616.329" y="0" type="line"/>
      <point x="689.123" y="200" type="line"/>
    </contour>
  </outline>
</glyph>
<glyph name="p" format="2">
  <advance width="2486"/>
  <unicode hex="0070"/>
  <outline>
    <contour>
      <point x="1250.07128906" y="1203.0" type="line"/>
      <point x="664.443359375" y="-406.0" type="line"/>
      <point x="864.443359375" y="-406.0" type="line"/>
      <point x="1450.07128906" y="1203.0" type="line"/>
    </contour>
    <contour>
      <point x="1282.55664062" y="1023.0" type="line"/>
      <point x="1209.03417969" y="821.0" type="line"/>
      <point x="1748.03417969" y="821.0" type="line"/>
      <point x="1821.55664062" y="1023.0" type="line"/>
    </contour>
    <contour>
      <point x="987.737304688" y="202.0" type="line"/>
      <point x="914.21484375" y="0.0" type="line"/>
      <point x="1454.21484375" y="0.0" type="line"/>
      <point x="1527.73730469" y="202.0" type="line"/>
    </contour>
    <contour>
      <point x="1571.05273438" y="876.0" type="line"/>
      <point x="1315.90917969" y="175.0" type="line"/>
      <point x="1513.90917969" y="175.0" type="line"/>
      <point x="1769.05273438" y="876.0" type="line"/>
    </contour>
  </outline>
</glyph>
<glyph name="q" format="2">
  <advance width="1024"/>
  <unicode hex="0071"/>
  <outline>
    <contour>
      <point x="867.064453125" y="1201.0" type="line"/>
      <point x="282.1640625" y="-406.0" type="line"/>
      <point x="481.1640625" y="-406.0" type="line"/>
      <point x="1066.06445312" y="1201.0" type="line"/>
    </contour>
    <contour>
      <point x="329.27734375" y="1023.0" type="line"/>
      <point x="256.484375" y="823.0" type="line"/>
      <point x="905.484375" y="823.0" type="line"/>
      <point x="978.27734375" y="1023.0" type="line"/>
    </contour>
    <contour>
      <point x="31.822265625" y="203.0" type="line"/>
      <point x="-42.064453125" y="0.0" type="line"/>
      <point x="573.935546875" y="0.0" type="line"/>
      <point x="647.822265625" y="203.0" type="line"/>
    </contour>
    <contour>
      <point x="267.130859375" y="855.0" type="line"/>
      <point x="-5.119140625" y="107.0" type="line"/>
      <point x="194.880859375" y="107.0" type="line"/>
      <point x="467.130859375" y="855.0" type="line"/>
    </contour>
    <contour>
      <point x="371.392578125" y="-268.0" type="line"/>
      <point x="321.1640625" y="-406.0" type="line"/>
      <point x="557.1640625" y="-406.0" type="line"/>
      <point x="607.392578125" y="-268.0" type="line"/>
    </contour>
  </outline>
</glyph>
<glyph name="r" format="2">
  <advance width="1952"/>
  <unicode hex="0072"/>
  <outline>
    <contour>
      <point x="688.170898438" y="1023.0" type="line"/>
      <point x="614.6484375" y="821.0" type="line"/>
      <point x="1347.6484375" y="821.0" type="line"/>
      <point x="1421.17089844" y="1023.0" type="line"/>
    </contour>
    <contour>
      <point x="878.056640625" y="954.0" type="line"/>
      <point x="530.829101562" y="0.0" type="line"/>
      <point x="730.829101562" y="0.0" type="line"/>
      <point x="1078.05664062" y="954.0" type="line"/>
    </contour>
    <contour>
      <point x="1204.06445312" y="976.0" type="line"/>
      <point x="1085.41015625" y="650.0" type="line"/>
      <point x="1285.41015625" y="650.0" type="line"/>
      <point x="1404.06445312" y="976.0" type="line"/>
    </contour>
  </outline>
</glyph>
<glyph name="s" format="2">
  <advance width="2132"/>
  <unicode hex="0073"/>
  <outline>
    <contour>
      <point x="947.170898438" y="1023.0" type="line"/>
      <point x="875.46875" y="826.0" type="line"/>
      <point x="1484.46875" y="826.0" type="line"/>
      <point x="1556.17089844" y="1023.0" type="line"/>
    </contour>
    <contour>
      <point x="947.170898438" y="1023.0" type="line"/>
      <point x="842.7109375" y="736.0" type="line"/>
      <point x="1042.7109375" y="736.0" type="line"/>
      <point x="1147.17089844" y="1023.0" type="line"/>
    </contour>
    <contour>
      <point x="648.987304688" y="201.0" type="line"/>
      <point x="575.829101562" y="0.0" type="line"/>
      <point x="1180.82910156" y="0.0" type="line"/>
      <point x="1253.98730469" y="201.0" type="line"/>
    </contour>
    <contour>
      <point x="1086.47265625" y="293.0" type="line"/>
      <point x="984.196289062" y="12.0" type="line"/>
      <point x="1184.19628906" y="12.0" type="line"/>
      <point x="1286.47265625" y="293.0" type="line"/>
    </contour>
    <contour>
      <point x="843.7109375" y="736.0" type="line"/>
      <point x="1086.47265625" y="293.0" type="line"/>
      <point x="1286.47265625" y="293.0" type="line"/>
      <point x="1043.7109375" y="736.0" type="line"/>
    </contour>
  </outline>
</glyph>
<glyph name="t" format="2">
  <advance width="1024"/>
  <unicode hex="0074"/>
  <anchor x="805" y="1649" name="top"/>
  <anchor x="181" y="-82" name="base"/>
  <outline>
    <contour>
      <point x="670.255" y="1548" type="line"/>
      <point x="106.829" y="0" type="line"/>
      <point x="306.829" y="0" type="line"/>
      <point x="870.255" y="1548" type="line"/>
    </contour>
    <contour>
      <point x="187.259" y="199" type="line"/>
      <point x="114.829" y="0" type="line"/>
      <point x="505.829" y="0" type="line"/>
      <point x="578.259" y="199" type="line"/>
    </contour>
    <contour>
      <point x="243.171" y="1023" type="line"/>
      <point x="170.74" y="824" type="line"/>
      <point x="844.74" y="824" type="line"/>
      <point x="917.171" y="1023" type="line"/>
    </contour>
  </outline>
</glyph>
<glyph name="u" format="2">
  <advance width="2180"/>
  <unicode hex="0075"/>
  <outline>
    <contour>
      <point x="960.170898438" y="1023.0" type="line"/>
      <point x="587.829101562" y="0.0" type="line"/>
      <point x="788.829101562" y="0.0" type="line"/>
      <point x="1161.17089844" y="1023.0" type="line"/>
    </contour>
    <contour>
      <point x="1392.17089844" y="1023.0" type="line"/>
      <point x="1019.82910156" y="0.0" type="line"/>
      <point x="1219.82910156" y="0.0" type="line"/>
      <point x="1592.17089844" y="1023.0" type="line"/>
    </contour>
    <contour>
      <point x="707.623046875" y="200.0" type="line"/>
      <point x="634.829101562" y="0.0" type="line"/>
      <point x="1336.82910156" y="0.0" type="line"/>
      <point x="1409.62304688" y="200.0" type="line"/>
    </contour>
  </outline>
</glyph>
<glyph name="v" format="2">
  <advance width="1024"/>
  <unicode hex="0076"/>
  <anchor x="184" y="-78" name="base"/>
  <anchor x="532" y="1122" name="top"/>
  <outline>
    <contour>
      <point x="254" y="1023" type="line"/>
      <point x="110" y="0" type="line"/>
      <point x="317" y="0" type="line"/>
      <point x="453" y="1023" type="line"/>
    </contour>
    <contour>
      <point x="716" y="1023" type="line"/>
      <point x="108" y="0" type="line"/>
      <point x="315" y="0" type="line"/>
      <point x="916" y="1023" type="line"/>
    </contour>
  </outline>
</glyph>
<glyph name="w" format="2">
  <advance width="1024"/>
  <unicode hex="0077"/>
  <anchor x="295" y="-93" name="base"/>
  <anchor x="692" y="1092" name="top"/>
  <outline>
    <contour>
      <point x="288.762" y="1023" type="line"/>
      <point x="-83.5801" y="0" type="line"/>
      <point x="115.42" y="0" type="line"/>
      <point x="487.762" y="1023" type="line"/>
    </contour>
    <contour>
      <point x="909.58" y="1028" type="line"/>
      <point x="539.787" y="12" type="line"/>
      <point x="738.787" y="12" type="line"/>
      <point x="1108.58" y="1028" type="line"/>
    </contour>
    <contour>
      <point x="443.441" y="610" type="line"/>
      <point x="221.42" y="0" type="line"/>
      <point x="422.42" y="0" type="line"/>
      <point x="644.441" y="610" type="line"/>
    </contour>
    <contour>
      <point x="15.875" y="276" type="line"/>
      <point x="-84.5801" y="0" type="line"/>
      <point x="734.42" y="0" type="line"/>
      <point x="834.875" y="276" type="line"/>
    </contour>
  </outline>
</glyph>
<glyph name="x" format="2">
  <advance width="1024"/>
  <unicode hex="0078"/>
  <outline>
    <contour>
      <point x="-92.1708984375" y="0.0" type="line"/>
      <point x="108.829101562" y="0.0" type="line"/>
      <point x="1116.17089844" y="1023.0" type="line"/>
      <point x="917.170898438" y="1023.0" type="line"/>
    </contour>
    <contour>
      <point x="282.170898438" y="1023.0" type="line"/>
      <point x="551.829101562" y="0.0" type="line"/>
      <point x="750.829101562" y="0.0" type="line"/>
      <point x="484.170898438" y="1023.0" type="line"/>
    </contour>
  </outline>
</glyph>
<glyph name="y" format="2">
  <advance width="1024"/>
  <unicode hex="0079"/>
  <anchor x="783" y="1145" name="top"/>
  <anchor x="283" y="-500" name="base"/>
  <outline>
    <contour>
      <point x="939" y="1023" type="line"/>
      <point x="418" y="-406" type="line"/>
      <point x="618" y="-406" type="line"/>
      <point x="1139" y="1023" type="line"/>
    </contour>
    <contour>
      <point x="-44" y="-211" type="line"/>
      <point x="-115" y="-406" type="line"/>
      <point x="602" y="-406" type="line"/>
      <point x="673" y="-211" type="line"/>
    </contour>
    <contour>
      <point x="406" y="1023" type="line"/>
      <point x="129" y="264" type="line"/>
      <point x="329" y="264" type="line"/>
      <point x="606" y="1023" type="line"/>
    </contour>
    <contour>
      <point x="202" y="464" type="line"/>
      <point x="129" y="264" type="line"/>
      <point x="747" y="264" type="line"/>
      <point x="820" y="464" type="line"/>
    </contour>
  </outline>
</glyph>
<glyph name="z" format="2">
  <advance width="1024"/>
  <unicode hex="007A"/>
  <outline>
    <contour>
      <point x="284.170898438" y="1023.0" type="line"/>
      <point x="212.46875" y="826.0" type="line"/>
      <point x="1040.46875" y="826.0" type="line"/>
      <point x="1112.17089844" y="1023.0" type="line"/>
    </contour>
    <contour>
      <point x="-15.0126953125" y="201.0" type="line"/>
      <point x="-88.1708984375" y="0.0" type="line"/>
      <point x="739.829101562" y="0.0" type="line"/>
      <point x="812.987304688" y="201.0" type="line"/>
    </contour>
    <contour>
      <point x="748.46875" y="826.0" type="line"/>
      <point x="-15.0126953125" y="201.0" type="line"/>
      <point x="290.987304688" y="201.0" type="line"/>
      <point x="1040.46875" y="826.0" type="line"/>
    </contour>
  </outline>
</glyph>
<glyph name="braceleft" format="2">
  <advance width="1024"/>
  <unicode hex="007B"/>
  <outline>
    <contour>
      <point x="693.251953125" y="1548.0" type="line"/>
      <point x="434.83203125" y="838.0" type="line"/>
      <point x="580.83203125" y="838.0" type="line"/>
      <point x="839.251953125" y="1548.0" type="line"/>
    </contour>
    <contour>
      <point x="296.1484375" y="424.0" type="line"/>
      <point x="37.73046875" y="-286.0" type="line"/>
      <point x="183.73046875" y="-286.0" type="line"/>
      <point x="442.1484375" y="424.0" type="line"/>
    </contour>
    <contour>
      <point x="91.96484375" y="690.0" type="line"/>
      <point x="70.126953125" y="630.0" type="line"/>
      <point x="580.83203125" y="838.0" type="line"/>
      <point x="434.83203125" y="838.0" type="line"/>
    </contour>
    <contour>
      <point x="91.96484375" y="690.0" type="line"/>
      <point x="70.126953125" y="630.0" type="line"/>
      <point x="294.513671875" y="425.0" type="line"/>
      <point x="443.513671875" y="425.0" type="line"/>
    </contour>
    <contour>
      <point x="714.26953125" y="1603.0" type="line"/>
      <point x="659.310546875" y="1452.0" type="line"/>
      <point x="971.71484375" y="1574.0" type="line"/>
      <point x="986.26953125" y="1603.0" type="line"/>
    </contour>
    <contour>
      <point x="91.869140625" y="-140.0" type="line"/>
      <point x="38.3671875" y="-287.0" type="line"/>
      <point x="314.3671875" y="-287.0" type="line"/>
      <point x="319.09765625" y="-274.0" type="line"/>
    </contour>
  </outline>
</glyph>
<glyph name="bar" format="2">
  <advance width="1024"/>
  <unicode hex="007C"/>
  <outline>
    <contour>
      <point x="932.77" y="1435" type="line"/>
      <point x="377.77" y="-90" type="line"/>
      <point x="580.77" y="-90" type="line"/>
      <point x="1135.77" y="1435" type="line"/>
    </contour>
  </outline>
</glyph>
<glyph name="braceright" format="2">
  <advance width="2168"/>
  <unicode hex="007D"/>
  <outline>
    <contour>
      <point x="1559.38671875" y="1548.0" type="line"/>
      <point x="1397.38671875" y="1548.0" type="line"/>
      <point x="1138.96875" y="838.0" type="line"/>
      <point x="1300.96875" y="838.0" type="line"/>
    </contour>
    <contour>
      <point x="1136.28515625" y="424.0" type="line"/>
      <point x="976.28515625" y="424.0" type="line"/>
      <point x="717.865234375" y="-286.0" type="line"/>
      <point x="877.865234375" y="-286.0" type="line"/>
    </contour>
    <contour>
      <point x="1520.1015625" y="690.0" type="line"/>
      <point x="1295.96875" y="838.0" type="line"/>
      <point x="1134.96875" y="838.0" type="line"/>
      <point x="1498.26171875" y="630.0" type="line"/>
    </contour>
    <contour>
      <point x="1520.1015625" y="690.0" type="line"/>
      <point x="976.28515625" y="424.0" type="line"/>
      <point x="1136.28515625" y="424.0" type="line"/>
      <point x="1498.26171875" y="630.0" type="line"/>
    </contour>
    <contour>
      <point x="1580.40625" y="1603.0" type="line"/>
      <point x="1305.40625" y="1603.0" type="line"/>
      <point x="1298.84960938" y="1574.0" type="line"/>
      <point x="1525.4453125" y="1452.0" type="line"/>
    </contour>
    <contour>
      <point x="916.005859375" y="-140.0" type="line"/>
      <point x="591.234375" y="-274.0" type="line"/>
      <point x="587.59375" y="-284.0" type="line"/>
      <point x="863.59375" y="-284.0" type="line"/>
    </contour>
  </outline>
</glyph>
<glyph name="asciitilde" format="2">
  <advance width="1024"/>
  <unicode hex="007E"/>
  <outline>
    <contour>
      <point x="384" y="815" type="line"/>
      <point x="348" y="716" type="line"/>
      <point x="676" y="655" type="line"/>
      <point x="712" y="754" type="line"/>
    </contour>
    <contour>
      <point x="125" y="757" type="line"/>
      <point x="105" y="659" type="line"/>
      <point x="348" y="716" type="line"/>
      <point x="384" y="815" type="line"/>
    </contour>
    <contour>
      <point x="712" y="754" type="line"/>
      <point x="676" y="655" type="line"/>
      <point x="908" y="796" type="line"/>
      <point x="919" y="892" type="line"/>
    </contour>
  </outline>
</glyph>
<glyph name="exclamdown" format="2">
  <advance width="1024"/>
  <unicode hex="00A1"/>
  <outline>
    <contour>
      <point x="854.5234375" y="1520.0" type="line"/>
      <point x="710.5234375" y="1520.0" type="line"/>
      <point x="620.258789062" y="1272.0" type="line"/>
      <point x="764.258789062" y="1272.0" type="line"/>
    </contour>
    <contour>
      <point x="667.998046875" y="1035.0" type="line"/>
      <point x="539.998046875" y="1035.0" type="line"/>
      <point x="169.4765625" y="17.0" type="line"/>
      <point x="297.4765625" y="17.0" type="line"/>
    </contour>
  </outline>
</glyph>
<glyph name="cent" format="2">
  <advance width="1024"/>
  <unicode hex="00A2"/>
  <outline>
    <contour>
      <point x="934.40625" y="1183.0" type="line"/>
      <point x="787.40625" y="1183.0" type="line"/>
      <point x="325.52734375" y="-86.0" type="line"/>
      <point x="472.52734375" y="-86.0" type="line"/>
    </contour>
    <contour>
      <point x="349.170898438" y="1023.0" type="line"/>
      <point x="277.46875" y="826.0" type="line"/>
      <point x="973.46875" y="826.0" type="line"/>
      <point x="1045.17089844" y="1023.0" type="line"/>
    </contour>
    <contour>
      <point x="336.975585938" y="984.0" type="line"/>
      <point x="-21.1708984375" y="0.0" type="line"/>
      <point x="180.829101562" y="0.0" type="line"/>
      <point x="538.975585938" y="984.0" type="line"/>
    </contour>
    <contour>
      <point x="157.987304688" y="201.0" type="line"/>
      <point x="84.8291015625" y="0.0" type="line"/>
      <point x="666.829101562" y="0.0" type="line"/>
      <point x="739.987304688" y="201.0" type="line"/>
    </contour>
  </outline>
</glyph>
<glyph name="sterling" format="2">
  <advance width="1024"/>
  <unicode hex="00A3"/>
  <outline>
    <contour>
      <point x="756.803" y="1543" type="line"/>
      <point x="684.373" y="1344" type="line"/>
      <point x="975.373" y="1344" type="line"/>
      <point x="1047.8" y="1543" type="line"/>
    </contour>
    <contour>
      <point x="148.453" y="770" type="line"/>
      <point x="76.0234" y="571" type="line"/>
      <point x="802.023" y="571" type="line"/>
      <point x="874.453" y="770" type="line"/>
    </contour>
    <contour>
      <point x="712.439" y="1542" type="line"/>
      <point x="151.197" y="0" type="line"/>
      <point x="349.197" y="0" type="line"/>
      <point x="910.439" y="1542" type="line"/>
    </contour>
    <contour>
      <point x="49.7188" y="202" type="line"/>
      <point x="-23.8027" y="0" type="line"/>
      <point x="702.197" y="0" type="line"/>
      <point x="775.719" y="202" type="line"/>
    </contour>
  </outline>
</glyph>
<glyph name="currency" format="2">
  <advance width="1024"/>
  <unicode hex="00A4"/>
  <outline>
    <contour>
      <point x="278.61328125" y="1202.0" type="line"/>
      <point x="-93.36328125" y="180.0" type="line"/>
      <point x="106.63671875" y="180.0" type="line"/>
      <point x="478.61328125" y="1202.0" type="line"/>
    </contour>
    <contour>
      <point x="894.341796875" y="1204.0" type="line"/>
      <point x="521.63671875" y="180.0" type="line"/>
      <point x="723.63671875" y="180.0" type="line"/>
      <point x="1096.34179688" y="1204.0" type="line"/>
    </contour>
    <contour>
      <point x="402.341796875" y="1204.0" type="line"/>
      <point x="328.8203125" y="1002.0" type="line"/>
      <point x="914.8203125" y="1002.0" type="line"/>
      <point x="988.341796875" y="1204.0" type="line"/>
    </contour>
    <contour>
      <point x="106.4296875" y="380.0" type="line"/>
      <point x="34.0" y="181.0" type="line"/>
      <point x="606.0" y="181.0" type="line"/>
      <point x="678.4296875" y="380.0" type="line"/>
    </contour>
    <contour>
      <point x="255.666015625" y="1356.0" type="line"/>
      <point x="165.763671875" y="1109.0" type="line"/>
      <point x="433.763671875" y="1109.0" type="line"/>
      <point x="523.666015625" y="1356.0" type="line"/>
    </contour>
    <contour>
      <point x="944.56640625" y="1331.0" type="line"/>
      <point x="854.666015625" y="1084.0" type="line"/>
      <point x="1118.66601562" y="1084.0" type="line"/>
      <point x="1208.56640625" y="1331.0" type="line"/>
    </contour>
    <contour>
      <point x="-94.666015625" y="366.0" type="line"/>
      <point x="-184.56640625" y="119.0" type="line"/>
      <point x="79.43359375" y="119.0" type="line"/>
      <point x="169.333984375" y="366.0" type="line"/>
    </contour>
    <contour>
      <point x="577.154296875" y="371.0" type="line"/>
      <point x="487.25390625" y="124.0" type="line"/>
      <point x="751.25390625" y="124.0" type="line"/>
      <point x="841.154296875" y="371.0" type="line"/>
    </contour>
  </outline>
</glyph>
<glyph name="yen" format="2">
  <advance width="1024"/>
  <unicode hex="00A5"/>
  <outline>
    <contour>
      <point x="125.209960938" y="775.0" type="line"/>
      <point x="66.974609375" y="615.0" type="line"/>
      <point x="612.974609375" y="615.0" type="line"/>
      <point x="671.209960938" y="775.0" type="line"/>
    </contour>
    <contour>
      <point x="39.6767578125" y="540.0" type="line"/>
      <point x="-18.55859375" y="380.0" type="line"/>
      <point x="527.44140625" y="380.0" type="line"/>
      <point x="585.676757812" y="540.0" type="line"/>
    </contour>
    <contour>
      <point x="352.614257812" y="897.0" type="line"/>
      <point x="26.1328125" y="0.0" type="line"/>
      <point x="228.1328125" y="0.0" type="line"/>
      <point x="554.614257812" y="897.0" type="line"/>
    </contour>
    <contour>
      <point x="338.55859375" y="1548.0" type="line"/>
      <point x="87.783203125" y="859.0" type="line"/>
      <point x="287.783203125" y="859.0" type="line"/>
      <point x="538.55859375" y="1548.0" type="line"/>
    </contour>
    <contour>
      <point x="843.55859375" y="1548.0" type="line"/>
      <point x="592.783203125" y="859.0" type="line"/>
      <point x="791.783203125" y="859.0" type="line"/>
      <point x="1042.55859375" y="1548.0" type="line"/>
    </contour>
    <contour>
      <point x="215.474609375" y="1023.0" type="line"/>
      <point x="155.783203125" y="859.0" type="line"/>
      <point x="701.783203125" y="859.0" type="line"/>
      <point x="761.474609375" y="1023.0" type="line"/>
    </contour>
  </outline>
</glyph>
<glyph name="brokenbar" format="2">
  <advance width="1024"/>
  <unicode hex="00A6"/>
  <outline>
    <contour>
      <point x="334.342" y="-332" type="line"/>
      <point x="444.342" y="-332" type="line"/>
      <point x="813.342" y="682" type="line"/>
      <point x="703.342" y="682" type="line"/>
    </contour>
    <contour>
      <point x="746.342" y="790" type="line"/>
      <point x="856.342" y="790" type="line"/>
      <point x="1164.34" y="1636" type="line"/>
      <point x="1054.34" y="1636" type="line"/>
    </contour>
  </outline>
</glyph>
<glyph name="section" format="2">
  <advance width="2676"/>
  <unicode hex="00A7"/>
  <outline>
    <contour>
      <point x="1222.50292969" y="1238.0" type="line"/>
      <point x="1148.6171875" y="1035.0" type="line"/>
      <point x="1746.6171875" y="1035.0" type="line"/>
      <point x="1820.50292969" y="1238.0" type="line"/>
    </contour>
    <contour>
      <point x="1223.59570312" y="1241.0" type="line"/>
      <point x="992.110351562" y="605.0" type="line"/>
      <point x="1194.11035156" y="605.0" type="line"/>
      <point x="1425.59570312" y="1241.0" type="line"/>
    </contour>
    <contour>
      <point x="786.706054688" y="-61.0" type="line"/>
      <point x="714.276367188" y="-260.0" type="line"/>
      <point x="1422.27636719" y="-260.0" type="line"/>
      <point x="1494.70605469" y="-61.0" type="line"/>
    </contour>
    <contour>
      <point x="1257.63964844" y="-259.0" type="line"/>
      <point x="1458.63964844" y="-259.0" type="line"/>
      <point x="1587.48535156" y="95.0" type="line"/>
      <point x="1386.48535156" y="95.0" type="line"/>
    </contour>
    <contour>
      <point x="992.110351562" y="605.0" type="line"/>
      <point x="1386.48535156" y="95.0" type="line"/>
      <point x="1587.48535156" y="95.0" type="line"/>
      <point x="1194.11035156" y="605.0" type="line"/>
    </contour>
    <contour>
      <point x="1363.72363281" y="1626.0" type="line"/>
      <point x="1289.83789062" y="1423.0" type="line"/>
      <point x="1887.83789062" y="1423.0" type="line"/>
      <point x="1961.72363281" y="1626.0" type="line"/>
    </contour>
    <contour>
      <point x="1364.81542969" y="1629.0" type="line"/>
      <point x="1222.13964844" y="1237.0" type="line"/>
      <point x="1424.13964844" y="1237.0" type="line"/>
      <point x="1566.81542969" y="1629.0" type="line"/>
    </contour>
    <contour>
      <point x="904.00390625" y="286.0" type="line"/>
      <point x="831.573242188" y="87.0" type="line"/>
      <point x="1539.57324219" y="87.0" type="line"/>
      <point x="1612.00390625" y="286.0" type="line"/>
    </contour>
    <contour>
      <point x="1374.9375" y="88.0" type="line"/>
      <point x="1575.9375" y="88.0" type="line"/>
      <point x="1704.78320312" y="442.0" type="line"/>
      <point x="1503.78320312" y="442.0" type="line"/>
    </contour>
    <contour>
      <point x="1222.13964844" y="1237.0" type="line"/>
      <point x="1503.78320312" y="442.0" type="line"/>
      <point x="1704.78320312" y="442.0" type="line"/>
      <point x="1424.13964844" y="1237.0" type="line"/>
    </contour>
  </outline>
</glyph>
<glyph name="dieresis" format="2">
  <advance width="1020"/>
  <unicode hex="00A8"/>
  <outline>
    <contour>
      <point x="351.380859375" y="1030.0" type="line"/>
      <point x="314.619140625" y="929.0" type="line"/>
      <point x="426.619140625" y="929.0" type="line"/>
      <point x="463.380859375" y="1030.0" type="line"/>
    </contour>
    <contour>
      <point x="593.380859375" y="1030.0" type="line"/>
      <point x="556.619140625" y="929.0" type="line"/>
      <point x="668.619140625" y="929.0" type="line"/>
      <point x="705.380859375" y="1030.0" type="line"/>
    </contour>
  </outline>
</glyph>
<glyph name="copyright" format="2">
  <advance width="3310"/>
  <unicode hex="00A9"/>
  <outline>
    <contour>
      <point x="1434.2109375" y="1537.0" type="line"/>
      <point x="874.7890625" y="0.0" type="line"/>
      <point x="1075.7890625" y="0.0" type="line"/>
      <point x="1635.2109375" y="1537.0" type="line"/>
    </contour>
    <contour>
      <point x="2232.2109375" y="1537.0" type="line"/>
      <point x="1672.7890625" y="0.0" type="line"/>
      <point x="1875.7890625" y="0.0" type="line"/>
      <point x="2435.2109375" y="1537.0" type="line"/>
    </contour>
    <contour>
      <point x="1544.2109375" y="1537.0" type="line"/>
      <point x="1471.41699219" y="1337.0" type="line"/>
      <point x="2162.41699219" y="1337.0" type="line"/>
      <point x="2235.2109375" y="1537.0" type="line"/>
    </contour>
    <contour>
      <point x="1083.0390625" y="204.0" type="line"/>
      <point x="1008.7890625" y="0.0" type="line"/>
      <point x="1681.7890625" y="0.0" type="line"/>
      <point x="1756.0390625" y="204.0" type="line"/>
    </contour>
    <contour>
      <point x="1556.46191406" y="1197.0" type="line"/>
      <point x="1483.30371094" y="996.0" type="line"/>
      <point x="1918.30371094" y="996.0" type="line"/>
      <point x="1991.46191406" y="1197.0" type="line"/>
    </contour>
    <contour>
      <point x="1541.81054688" y="1154.0" type="line"/>
      <point x="1245.5390625" y="340.0" type="line"/>
      <point x="1414.5390625" y="340.0" type="line"/>
      <point x="1710.81054688" y="1154.0" type="line"/>
    </contour>
    <contour>
      <point x="1301.95410156" y="495.0" type="line"/>
      <point x="1228.79589844" y="294.0" type="line"/>
      <point x="1668.79589844" y="294.0" type="line"/>
      <point x="1741.95410156" y="495.0" type="line"/>
    </contour>
  </outline>
</glyph>
<glyph name="ordfeminine" format="2">
  <advance width="1024"/>
  <unicode hex="00AA"/>
  <outline>
    <contour>
      <point x="453.857" y="1319" type="line"/>
      <point x="381.062" y="1119" type="line"/>
      <point x="987.062" y="1119" type="line"/>
      <point x="1059.86" y="1319" type="line"/>
    </contour>
    <contour>
      <point x="947.221" y="1320" type="line"/>
      <point x="574.516" y="296" type="line"/>
      <point x="768.516" y="296" type="line"/>
      <point x="1141.22" y="1320" type="line"/>
    </contour>
    <contour>
      <point x="303.17" y="894" type="line"/>
      <point x="230.738" y="695" type="line"/>
      <point x="854.738" y="695" type="line"/>
      <point x="927.17" y="894" type="line"/>
    </contour>
    <contour>
      <point x="294.434" y="870" type="line"/>
      <point x="84.4238" y="293" type="line"/>
      <point x="285.424" y="293" type="line"/>
      <point x="495.434" y="870" type="line"/>
    </contour>
    <contour>
      <point x="156.309" y="496" type="line"/>
      <point x="83.5156" y="296" type="line"/>
      <point x="773.516" y="296" type="line"/>
      <point x="846.309" y="496" type="line"/>
    </contour>
    <contour>
      <point x="-58.2578" y="162" type="line"/>
      <point x="-117.221" y="0" type="line"/>
      <point x="750.779" y="0" type="line"/>
      <point x="809.742" y="162" type="line"/>
    </contour>
  </outline>
</glyph>
<glyph name="guillemotleft" format="2">
  <advance width="1024"/>
  <unicode hex="00AB"/>
  <outline>
    <contour>
      <point x="116.361" y="609" type="line"/>
      <point x="59.9453" y="454" type="line"/>
      <point x="493.367" y="631" type="line"/>
      <point x="549.055" y="784" type="line"/>
    </contour>
    <contour>
      <point x="116.361" y="609" type="line"/>
      <point x="59.9453" y="454" type="line"/>
      <point x="307.107" y="122" type="line"/>
      <point x="360.246" y="268" type="line"/>
    </contour>
    <contour>
      <point x="531.361" y="609" type="line"/>
      <point x="474.945" y="454" type="line"/>
      <point x="908.367" y="631" type="line"/>
      <point x="964.055" y="784" type="line"/>
    </contour>
    <contour>
      <point x="531.361" y="609" type="line"/>
      <point x="474.945" y="454" type="line"/>
      <point x="722.107" y="122" type="line"/>
      <point x="775.246" y="268" type="line"/>
    </contour>
  </outline>
</glyph>
<glyph name="logicalnot" format="2">
  <advance width="1398"/>
  <unicode hex="00AC"/>
  <outline>
    <contour>
      <point x="872.19921875" y="935.0" type="line"/>
      <point x="764.828125" y="640.0" type="line"/>
      <point x="874.828125" y="640.0" type="line"/>
      <point x="982.19921875" y="935.0" type="line"/>
    </contour>
    <contour>
      <point x="442.19921875" y="935.0" type="line"/>
      <point x="405.80078125" y="835.0" type="line"/>
      <point x="955.80078125" y="835.0" type="line"/>
      <point x="992.19921875" y="935.0" type="line"/>
    </contour>
  </outline>
</glyph>
<glyph name="registered" format="2">
  <advance width="1024"/>
  <unicode hex="00AE"/>
  <outline>
    <contour>
      <point x="492.906" y="1032" type="line"/>
      <point x="299.638" y="501" type="line"/>
      <point x="367.638" y="501" type="line"/>
      <point x="560.906" y="1032" type="line"/>
    </contour>
    <contour>
      <point x="517.906" y="1032" type="line"/>
      <point x="492.792" y="963" type="line"/>
      <point x="721.792" y="963" type="line"/>
      <point x="746.906" y="1032" type="line"/>
    </contour>
    <contour>
      <point x="686.906" y="1032" type="line"/>
      <point x="603.193" y="802" type="line"/>
      <point x="672.193" y="802" type="line"/>
      <point x="755.906" y="1032" type="line"/>
    </contour>
    <contour>
      <point x="456.763" y="875" type="line"/>
      <point x="429.829" y="801" type="line"/>
      <point x="667.829" y="801" type="line"/>
      <point x="694.763" y="875" type="line"/>
    </contour>
    <contour>
      <point x="479.741" y="809" type="line"/>
      <point x="506.274" y="500" type="line"/>
      <point x="589.274" y="500" type="line"/>
      <point x="549.741" y="809" type="line"/>
    </contour>
    <contour>
      <point x="320.711" y="1537" type="line"/>
      <point x="-238.711" y="0" type="line"/>
      <point x="-37.7109" y="0" type="line"/>
      <point x="521.711" y="1537" type="line"/>
    </contour>
    <contour>
      <point x="1059.71" y="1537" type="line"/>
      <point x="500.289" y="0" type="line"/>
      <point x="703.289" y="0" type="line"/>
      <point x="1262.71" y="1537" type="line"/>
    </contour>
    <contour>
      <point x="461.711" y="1537" type="line"/>
      <point x="388.917" y="1337" type="line"/>
      <point x="1031.92" y="1337" type="line"/>
      <point x="1104.71" y="1537" type="line"/>
    </contour>
    <contour>
      <point x="-47.4609" y="204" type="line"/>
      <point x="-121.711" y="0" type="line"/>
      <point x="551.289" y="0" type="line"/>
      <point x="625.539" y="204" type="line"/>
    </contour>
  </outline>
</glyph>
<glyph name="macron" format="2">
  <advance width="1024"/>
  <unicode hex="00AF"/>
  <outline>
    <contour>
      <point x="246.377" y="1023" type="line"/>
      <point x="217.623" y="944" type="line"/>
      <point x="777.623" y="944" type="line"/>
      <point x="806.377" y="1023" type="line"/>
    </contour>
  </outline>
</glyph>
<glyph name="degree" format="2">
  <advance width="1024"/>
  <unicode hex="00B0"/>
  <outline>
    <contour>
      <point x="459.9296875" y="1456.0" type="line"/>
      <point x="607.9296875" y="1456.0" type="line"/>
      <point x="560.615234375" y="1326.0" type="line"/>
      <point x="412.615234375" y="1326.0" type="line"/>
    </contour>
    <contour>
      <point x="388.416015625" y="1548.0" type="line"/>
      <point x="275.583984375" y="1238.0" type="line"/>
      <point x="635.583984375" y="1238.0" type="line"/>
      <point x="748.416015625" y="1548.0" type="line"/>
    </contour>
  </outline>
</glyph>
<glyph name="plusminus" format="2">
  <advance width="1024"/>
  <unicode hex="00B1"/>
  <outline>
    <contour>
      <point x="-12" y="108" type="line"/>
      <point x="-88" y="-100" type="line"/>
      <point x="738" y="-100" type="line"/>
      <point x="814" y="108" type="line"/>
    </contour>
    <contour>
      <point x="678" y="1221" type="line"/>
      <point x="294" y="165" type="line"/>
      <point x="519" y="165" type="line"/>
      <point x="903" y="1221" type="line"/>
    </contour>
    <contour>
      <point x="210" y="821" type="line"/>
      <point x="134" y="613" type="line"/>
      <point x="1036" y="613" type="line"/>
      <point x="1112" y="821" type="line"/>
    </contour>
  </outline>
</glyph>
<glyph name="uni00B2" format="2">
  <advance width="1632"/>
  <unicode hex="00B2"/>
  <outline>
    <contour>
      <point x="675.995117188" y="1455.0" type="line"/>
      <point x="1023.99511719" y="1455.0" type="line"/>
      <point x="952.65625" y="1259.0" type="line"/>
      <point x="608.65625" y="1259.0" type="line"/>
      <point x="460.15625" y="851.0" type="line"/>
      <point x="909.15625" y="851.0" type="line"/>
      <point x="941.549804688" y="940.0" type="line"/>
      <point x="608.549804688" y="940.0" type="line"/>
      <point x="691.53515625" y="1168.0" type="line"/>
      <point x="1033.53515625" y="1168.0" type="line"/>
      <point x="1171.84375" y="1548.0" type="line"/>
      <point x="709.84375" y="1548.0" type="line"/>
    </contour>
  </outline>
</glyph>
<glyph name="uni00B3" format="2">
  <advance width="1024"/>
  <unicode hex="00B3"/>
  <outline>
    <contour>
      <point x="224.857" y="1215" type="line"/>
      <point x="676.857" y="1215" type="line"/>
      <point x="594.965" y="990" type="line"/>
      <point x="113.965" y="990" type="line"/>
      <point x="84.1191" y="908" type="line"/>
      <point x="705.119" y="908" type="line"/>
      <point x="939.881" y="1553" type="line"/>
      <point x="339.881" y="1553" type="line"/>
      <point x="310.035" y="1471" type="line"/>
      <point x="769.035" y="1471" type="line"/>
      <point x="706.068" y="1298" type="line"/>
      <point x="255.068" y="1298" type="line"/>
    </contour>
  </outline>
</glyph>
<glyph name="acute" format="2">
  <advance width="1024"/>
  <unicode hex="00B4"/>
  <outline>
    <contour>
      <point x="1098.92" y="1556" type="line"/>
      <point x="875.924" y="1302" type="line"/>
      <point x="947.924" y="1256" type="line"/>
      <point x="1171.92" y="1511" type="line"/>
    </contour>
  </outline>
</glyph>
<glyph name="mu" format="2">
  <advance width="1024"/>
  <unicode hex="00B5"/>
  <outline>
    <contour>
      <point x="972.91015625" y="935.0" type="line"/>
      <point x="632.59765625" y="0.0" type="line"/>
      <point x="742.59765625" y="0.0" type="line"/>
      <point x="1082.91015625" y="935.0" type="line"/>
    </contour>
    <contour>
      <point x="241.2734375" y="120.0" type="line"/>
      <point x="197.59765625" y="0.0" type="line"/>
      <point x="712.59765625" y="0.0" type="line"/>
      <point x="756.2734375" y="120.0" type="line"/>
    </contour>
    <contour>
      <point x="437.91015625" y="935.0" type="line"/>
      <point x="-58.91015625" y="-430.0" type="line"/>
      <point x="36.08984375" y="-430.0" type="line"/>
      <point x="532.91015625" y="935.0" type="line"/>
    </contour>
  </outline>
</glyph>
<glyph name="paragraph" format="2">
  <advance width="1024"/>
  <unicode hex="00B6"/>
  <outline>
    <contour>
      <point x="39.8184" y="1130" type="line"/>
      <point x="-12.957" y="985" type="line"/>
      <point x="552.043" y="985" type="line"/>
      <point x="604.818" y="1130" type="line"/>
    </contour>
    <contour>
      <point x="191.957" y="1548" type="line"/>
      <point x="-7.49805" y="1000" type="line"/>
      <point x="152.502" y="1000" type="line"/>
      <point x="351.957" y="1548" type="line"/>
    </contour>
    <contour>
      <point x="191.957" y="1548" type="line"/>
      <point x="150.828" y="1435" type="line"/>
      <point x="970.828" y="1435" type="line"/>
      <point x="1011.96" y="1548" type="line"/>
    </contour>
    <contour>
      <point x="661.957" y="1548" type="line"/>
      <point x="98.5312" y="0" type="line"/>
      <point x="243.531" y="0" type="line"/>
      <point x="806.957" y="1548" type="line"/>
    </contour>
    <contour>
      <point x="931.957" y="1548" type="line"/>
      <point x="368.531" y="0" type="line"/>
      <point x="473.531" y="0" type="line"/>
      <point x="1036.96" y="1548" type="line"/>
    </contour>
  </outline>
</glyph>
<glyph name="periodcentered" format="2">
  <advance width="1024"/>
  <unicode hex="00B7"/>
  <outline>
    <contour>
      <point x="424.451171875" y="1146.0" type="line"/>
      <point x="334.548828125" y="899.0" type="line"/>
      <point x="599.548828125" y="899.0" type="line"/>
      <point x="689.451171875" y="1146.0" type="line"/>
    </contour>
  </outline>
</glyph>
<glyph name="cedilla" format="2">
  <advance width="1420"/>
  <unicode hex="00B8"/>
  <outline>
    <contour>
      <point x="625.764648438" y="242.0" type="line"/>
      <point x="507.837890625" y="-82.0" type="line"/>
      <point x="663.837890625" y="-82.0" type="line"/>
      <point x="781.764648438" y="242.0" type="line"/>
    </contour>
    <contour>
      <point x="456.426757812" y="-226.0" type="line"/>
      <point x="412.75" y="-346.0" type="line"/>
      <point x="858.75" y="-346.0" type="line"/>
      <point x="902.426757812" y="-226.0" type="line"/>
    </contour>
    <contour>
      <point x="855.25" y="62.0" type="line"/>
      <point x="719.852539062" y="-310.0" type="line"/>
      <point x="871.852539062" y="-310.0" type="line"/>
      <point x="1007.25" y="62.0" type="line"/>
    </contour>
    <contour>
      <point x="561.25" y="62.0" type="line"/>
      <point x="504.470703125" y="-94.0" type="line"/>
      <point x="950.470703125" y="-94.0" type="line"/>
      <point x="1007.25" y="62.0" type="line"/>
    </contour>
  </outline>
</glyph>
<glyph name="uni00B9" format="2">
  <advance width="968"/>
  <unicode hex="00B9"/>
  <outline>
    <contour>
      <point x="293.393554688" y="887.0" type="line"/>
      <point x="392.893554688" y="887.0" type="line"/>
      <point x="674.606445312" y="1661.0" type="line"/>
      <point x="575.106445312" y="1661.0" type="line"/>
    </contour>
    <contour>
      <point x="577.106445312" y="1661.0" type="line"/>
      <point x="424.23828125" y="1513.0" type="line"/>
      <point x="481.040039062" y="1463.0" type="line"/>
      <point x="634.08984375" y="1611.5" type="line"/>
    </contour>
  </outline>
</glyph>
<glyph name="ordmasculine" format="2">
  <advance width="1024"/>
  <unicode hex="00BA"/>
  <outline>
    <contour>
      <point x="369" y="1023" type="line"/>
      <point x="-3" y="0" type="line"/>
      <point x="197" y="0" type="line"/>
      <point x="569" y="1023" type="line"/>
    </contour>
    <contour>
      <point x="984" y="1023" type="line"/>
      <point x="612" y="0" type="line"/>
      <point x="814" y="0" type="line"/>
      <point x="1186" y="1023" type="line"/>
    </contour>
    <contour>
      <point x="492" y="1023" type="line"/>
      <point x="419" y="822" type="line"/>
      <point x="1005" y="822" type="line"/>
      <point x="1078" y="1023" type="line"/>
    </contour>
    <contour>
      <point x="196" y="200" type="line"/>
      <point x="124" y="0" type="line"/>
      <point x="696" y="0" type="line"/>
      <point x="768" y="200" type="line"/>
    </contour>
    <contour>
      <point x="-138" y="-70" type="line"/>
      <point x="-162" y="-136" type="line"/>
      <point x="862" y="-136" type="line"/>
      <point x="886" y="-70" type="line"/>
    </contour>
  </outline>
</glyph>
<glyph name="guillemotright" format="2">
  <advance width="1024"/>
  <unicode hex="00BB"/>
  <outline>
    <contour>
      <point x="992.126953125" y="609.0" type="line"/>
      <point x="686.821289062" y="784.0" type="line"/>
      <point x="631.133789062" y="631.0" type="line"/>
      <point x="935.7109375" y="454.0" type="line"/>
    </contour>
    <contour>
      <point x="992.126953125" y="609.0" type="line"/>
      <point x="500.012695312" y="268.0" type="line"/>
      <point x="446.873046875" y="122.0" type="line"/>
      <point x="935.7109375" y="454.0" type="line"/>
    </contour>
    <contour>
      <point x="577.126953125" y="609.0" type="line"/>
      <point x="271.821289062" y="784.0" type="line"/>
      <point x="216.133789062" y="631.0" type="line"/>
      <point x="520.7109375" y="454.0" type="line"/>
    </contour>
    <contour>
      <point x="577.126953125" y="609.0" type="line"/>
      <point x="85.0126953125" y="268.0" type="line"/>
      <point x="31.873046875" y="122.0" type="line"/>
      <point x="520.7109375" y="454.0" type="line"/>
    </contour>
  </outline>
</glyph>
<glyph name="onequarter" format="2">
  <advance width="2636"/>
  <unicode hex="00BC"/>
  <outline>
    <contour>
      <point x="1827.51757812" y="1480.0" type="line"/>
      <point x="705.482421875" y="10.0" type="line"/>
      <point x="808.482421875" y="10.0" type="line"/>
      <point x="1930.51757812" y="1480.0" type="line"/>
    </contour>
    <contour>
      <point x="1310.19140625" y="1045.0" type="line"/>
      <point x="1364.19140625" y="1045.0" type="line"/>
      <point x="1547.26757812" y="1548.0" type="line"/>
      <point x="1493.26757812" y="1548.0" type="line"/>
    </contour>
    <contour>
      <point x="1498.26757812" y="1548.0" type="line"/>
      <point x="1344.59179688" y="1428.0" type="line"/>
      <point x="1351.125" y="1391.0" type="line"/>
      <point x="1523.26367188" y="1537.0" type="line"/>
    </contour>
    <contour>
      <point x="1328.78710938" y="379.0" type="line"/>
      <point x="1633.78710938" y="379.0" type="line"/>
      <point x="1498.390625" y="7.0" type="line"/>
      <point x="1557.390625" y="7.0" type="line"/>
      <point x="1834.37109375" y="768.0" type="line"/>
      <point x="1774.37109375" y="768.0" type="line"/>
      <point x="1656.80859375" y="445.0" type="line"/>
      <point x="1411.80859375" y="445.0" type="line"/>
      <point x="1530.09960938" y="770.0" type="line"/>
      <point x="1471.09960938" y="770.0" type="line"/>
    </contour>
  </outline>
</glyph>
<glyph name="onehalf" format="2">
  <advance width="2726"/>
  <unicode hex="00BD"/>
  <outline>
    <contour>
      <point x="1834.84375" y="1483.0" type="line"/>
      <point x="727.259765625" y="6.0" type="line"/>
      <point x="891.15625" y="-30.0" type="line"/>
      <point x="1998.74023438" y="1447.0" type="line"/>
    </contour>
    <contour>
      <point x="1204.18164062" y="863.0" type="line"/>
      <point x="1287.18164062" y="863.0" type="line"/>
      <point x="1536.50195312" y="1548.0" type="line"/>
      <point x="1453.50195312" y="1548.0" type="line"/>
    </contour>
    <contour>
      <point x="1455.50195312" y="1548.0" type="line"/>
      <point x="1326.54882812" y="1419.0" type="line"/>
      <point x="1372.16992188" y="1374.0" type="line"/>
      <point x="1502.21484375" y="1506.0" type="line"/>
    </contour>
    <contour>
      <point x="1465.54882812" y="603.0" type="line"/>
      <point x="1664.54882812" y="603.0" type="line"/>
      <point x="1593.2109375" y="407.0" type="line"/>
      <point x="1396.2109375" y="407.0" type="line"/>
      <point x="1248.07617188" y="0.0" type="line"/>
      <point x="1505.07617188" y="0.0" type="line"/>
      <point x="1537.83203125" y="90.0" type="line"/>
      <point x="1346.83203125" y="90.0" type="line"/>
      <point x="1429.45507812" y="317.0" type="line"/>
      <point x="1625.45507812" y="317.0" type="line"/>
      <point x="1762.30664062" y="693.0" type="line"/>
      <point x="1498.30664062" y="693.0" type="line"/>
    </contour>
  </outline>
</glyph>
<glyph name="questiondown" format="2">
  <advance width="1024"/>
  <unicode hex="00BF"/>
  <outline>
    <contour>
      <point x="929.98828125" y="1273.0" type="line"/>
      <point x="1019.52539062" y="1519.0" type="line"/>
      <point x="769.525390625" y="1519.0" type="line"/>
      <point x="679.624023438" y="1272.0" type="line"/>
    </contour>
    <contour>
      <point x="643.654296875" y="0.0" type="line"/>
      <point x="711.352539062" y="186.0" type="line"/>
      <point x="74.3525390625" y="186.0" type="line"/>
      <point x="6.654296875" y="0.0" type="line"/>
    </contour>
    <contour>
      <point x="198.474609375" y="5.0" type="line"/>
      <point x="397.9296875" y="553.0" type="line"/>
      <point x="203.9296875" y="553.0" type="line"/>
      <point x="4.474609375" y="5.0" type="line"/>
    </contour>
    <contour>
      <point x="650.095703125" y="504.0" type="line"/>
      <point x="722.525390625" y="703.0" type="line"/>
      <point x="258.525390625" y="703.0" type="line"/>
      <point x="186.095703125" y="504.0" type="line"/>
    </contour>
    <contour>
      <point x="651.55078125" y="508.0" type="line"/>
      <point x="876.848632812" y="1127.0" type="line"/>
      <point x="628.848632812" y="1127.0" type="line"/>
      <point x="403.55078125" y="508.0" type="line"/>
    </contour>
  </outline>
</glyph>
<glyph name="AE" format="2">
  <advance width="1024"/>
  <unicode hex="00C6"/>
  <outline>
    <contour>
      <point x="713.335" y="185" type="line"/>
      <point x="646" y="0" type="line"/>
      <point x="996" y="0" type="line"/>
      <point x="1063.33" y="185" type="line"/>
    </contour>
    <contour>
      <point x="125" y="0" type="line"/>
      <point x="324" y="0" type="line"/>
      <point x="887.426" y="1548" type="line"/>
      <point x="688.426" y="1548" type="line"/>
    </contour>
    <contour>
      <point x="670.809" y="1332" type="line"/>
      <point x="1458.81" y="1332" type="line"/>
      <point x="1537.43" y="1548" type="line"/>
      <point x="749.426" y="1548" type="line"/>
    </contour>
    <contour>
      <point x="576.342" y="1023" type="line"/>
      <point x="513.011" y="849" type="line"/>
      <point x="1231.01" y="849" type="line"/>
      <point x="1294.34" y="1023" type="line"/>
    </contour>
    <contour>
      <point x="551" y="0" type="line"/>
      <point x="751" y="0" type="line"/>
      <point x="1314.43" y="1548" type="line"/>
      <point x="1114.43" y="1548" type="line"/>
    </contour>
  </outline>
</glyph>
<glyph name="multiply" format="2">
  <advance width="2622"/>
  <unicode hex="00D7"/>
  <outline>
    <contour>
      <point x="707.193359375" y="302.0" type="line"/>
      <point x="908.193359375" y="302.0" type="line"/>
      <point x="1914.80664062" y="1323.0" type="line"/>
      <point x="1715.80664062" y="1323.0" type="line"/>
    </contour>
    <contour>
      <point x="1081.53515625" y="1325.0" type="line"/>
      <point x="1349.73730469" y="298.0" type="line"/>
      <point x="1548.73730469" y="298.0" type="line"/>
      <point x="1283.53515625" y="1325.0" type="line"/>
    </contour>
  </outline>
</glyph>
<glyph name="Oslash" format="2">
  <advance width="1024"/>
  <unicode hex="00D8"/>
  <anchor x="1137" y="1639" name="top"/>
  <anchor x="553" y="-87" name="base"/>
  <outline>
    <contour>
      <point x="1395" y="1667" type="line"/>
      <point x="19" y="-45" type="line"/>
      <point x="180" y="-118" type="line"/>
      <point x="1556" y="1594" type="line"/>
    </contour>
    <contour>
      <point x="669" y="1537" type="line"/>
      <point x="110" y="0" type="line"/>
      <point x="311" y="0" type="line"/>
      <point x="870" y="1537" type="line"/>
    </contour>
    <contour>
      <point x="1266" y="1537" type="line"/>
      <point x="707" y="0" type="line"/>
      <point x="910" y="0" type="line"/>
      <point x="1469" y="1537" type="line"/>
    </contour>
    <contour>
      <point x="733" y="1537" type="line"/>
      <point x="661" y="1337" type="line"/>
      <point x="1304" y="1337" type="line"/>
      <point x="1376" y="1537" type="line"/>
    </contour>
    <contour>
      <point x="224" y="204" type="line"/>
      <point x="150" y="0" type="line"/>
      <point x="823" y="0" type="line"/>
      <point x="897" y="204" type="line"/>
    </contour>
  </outline>
</glyph>
<glyph name="Thorn" format="2">
  <advance width="1024"/>
  <unicode hex="00DE"/>
  <outline>
    <contour>
      <point x="469.716796875" y="1542.0" type="line"/>
      <point x="-88.25" y="9.0" type="line"/>
      <point x="101.75" y="9.0" type="line"/>
      <point x="659.716796875" y="1542.0" type="line"/>
    </contour>
    <contour>
      <point x="436.614257812" y="1234.0" type="line"/>
      <point x="364.18359375" y="1035.0" type="line"/>
      <point x="1020.18359375" y="1035.0" type="line"/>
      <point x="1092.61425781" y="1234.0" type="line"/>
    </contour>
    <contour>
      <point x="912.25" y="1233.0" type="line"/>
      <point x="670.573242188" y="569.0" type="line"/>
      <point x="870.573242188" y="569.0" type="line"/>
      <point x="1112.25" y="1233.0" type="line"/>
    </contour>
    <contour>
      <point x="224.430664062" y="684.0" type="line"/>
      <point x="151.635742188" y="484.0" type="line"/>
      <point x="838.635742188" y="484.0" type="line"/>
      <point x="911.430664062" y="684.0" type="line"/>
    </contour>
  </outline>
</glyph>
<glyph name="germandbls" format="2">
  <advance width="1024"/>
  <unicode hex="00DF"/>
  <outline>
    <contour>
      <point x="146.194335938" y="1221.0" type="line"/>
      <point x="74.12890625" y="1023.0" type="line"/>
      <point x="325.12890625" y="1023.0" type="line"/>
      <point x="397.194335938" y="1221.0" type="line"/>
    </contour>
    <contour>
      <point x="451.212890625" y="1548.0" type="line"/>
      <point x="-112.212890625" y="0.0" type="line"/>
      <point x="93.787109375" y="0.0" type="line"/>
      <point x="657.212890625" y="1548.0" type="line"/>
    </contour>
    <contour>
      <point x="657.212890625" y="1548.0" type="line"/>
      <point x="577.139648438" y="1328.0" type="line"/>
      <point x="972.139648438" y="1328.0" type="line"/>
      <point x="1052.21289062" y="1548.0" type="line"/>
    </contour>
    <contour>
      <point x="937.212890625" y="1548.0" type="line"/>
      <point x="746.12890625" y="1023.0" type="line"/>
      <point x="945.12890625" y="1023.0" type="line"/>
      <point x="1136.21289062" y="1548.0" type="line"/>
    </contour>
    <contour>
      <point x="760.323242188" y="1062.0" type="line"/>
      <point x="560.323242188" y="1062.0" type="line"/>
      <point x="474.426757812" y="826.0" type="line"/>
      <point x="674.426757812" y="826.0" type="line"/>
    </contour>
    <contour>
      <point x="682.43359375" y="848.0" type="line"/>
      <point x="437.481445312" y="175.0" type="line"/>
      <point x="637.481445312" y="175.0" type="line"/>
      <point x="882.43359375" y="848.0" type="line"/>
    </contour>
    <contour>
      <point x="322.143554688" y="251.0" type="line"/>
      <point x="245.345703125" y="40.0" type="line"/>
      <point x="588.345703125" y="40.0" type="line"/>
      <point x="665.143554688" y="251.0" type="line"/>
    </contour>
  </outline>
</glyph>
<glyph name="ae" format="2">
  <advance width="2714"/>
  <unicode hex="00E6"/>
  <outline>
    <contour>
      <point x="1072.67089844" y="1023.0" type="line"/>
      <point x="1000.24023438" y="824.0" type="line"/>
      <point x="1819.24023438" y="824.0" type="line"/>
      <point x="1891.67089844" y="1023.0" type="line"/>
    </contour>
    <contour>
      <point x="1473.67089844" y="1023.0" type="line"/>
      <point x="1101.32910156" y="0.0" type="line"/>
      <point x="1295.32910156" y="0.0" type="line"/>
      <point x="1667.67089844" y="1023.0" type="line"/>
    </contour>
    <contour>
      <point x="941.34765625" y="599.0" type="line"/>
      <point x="868.916992188" y="400.0" type="line"/>
      <point x="1665.91699219" y="400.0" type="line"/>
      <point x="1738.34765625" y="599.0" type="line"/>
    </contour>
    <contour>
      <point x="932.612304688" y="575.0" type="line"/>
      <point x="723.329101562" y="0.0" type="line"/>
      <point x="924.329101562" y="0.0" type="line"/>
      <point x="1133.61230469" y="575.0" type="line"/>
    </contour>
    <contour>
      <point x="794.487304688" y="201.0" type="line"/>
      <point x="721.329101562" y="0.0" type="line"/>
      <point x="1641.32910156" y="0.0" type="line"/>
      <point x="1714.48730469" y="201.0" type="line"/>
    </contour>
    <contour>
      <point x="1797.67089844" y="1023.0" type="line"/>
      <point x="1570.91699219" y="400.0" type="line"/>
      <point x="1765.91699219" y="400.0" type="line"/>
      <point x="1992.67089844" y="1023.0" type="line"/>
    </contour>
  </outline>
</glyph>
<glyph name="eth" format="2">
  <advance width="2326"/>
  <unicode hex="00F0"/>
  <outline>
    <contour>
      <point x="1297.234375" y="1548.0" type="line"/>
      <point x="1184.80859375" y="0.0" type="line"/>
      <point x="1385.80859375" y="0.0" type="line"/>
      <point x="1498.234375" y="1548.0" type="line"/>
    </contour>
    <contour>
      <point x="1093.15039062" y="1023.0" type="line"/>
      <point x="1019.9921875" y="822.0" type="line"/>
      <point x="1360.9921875" y="822.0" type="line"/>
      <point x="1434.15039062" y="1023.0" type="line"/>
    </contour>
    <contour>
      <point x="997.150390625" y="1023.0" type="line"/>
      <point x="624.80859375" y="0.0" type="line"/>
      <point x="825.80859375" y="0.0" type="line"/>
      <point x="1198.15039062" y="1023.0" type="line"/>
    </contour>
    <contour>
      <point x="791.783203125" y="195.0" type="line"/>
      <point x="720.80859375" y="0.0" type="line"/>
      <point x="1337.80859375" y="0.0" type="line"/>
      <point x="1408.78320312" y="195.0" type="line"/>
    </contour>
    <contour>
      <point x="1169.19140625" y="1416.0" type="line"/>
      <point x="1101.12890625" y="1229.0" type="line"/>
      <point x="1633.12890625" y="1229.0" type="line"/>
      <point x="1701.19140625" y="1416.0" type="line"/>
    </contour>
  </outline>
</glyph>
<glyph name="divide" format="2">
  <advance width="2008"/>
  <unicode hex="00F7"/>
  <outline>
    <contour>
      <point x="792.271484375" y="430.0" type="line"/>
      <point x="708.923828125" y="201.0" type="line"/>
      <point x="956.923828125" y="201.0" type="line"/>
      <point x="1040.27148438" y="430.0" type="line"/>
    </contour>
    <contour>
      <point x="1082.7421875" y="1294.0" type="line"/>
      <point x="992.841796875" y="1047.0" type="line"/>
      <point x="1258.84179688" y="1047.0" type="line"/>
      <point x="1348.7421875" y="1294.0" type="line"/>
    </contour>
    <contour>
      <point x="628.853515625" y="808.0" type="line"/>
      <point x="553.146484375" y="600.0" type="line"/>
      <point x="1379.14648438" y="600.0" type="line"/>
      <point x="1454.85351562" y="808.0" type="line"/>
    </contour>
  </outline>
</glyph>
<glyph name="oslash" format="2">
  <advance width="2934"/>
  <unicode hex="00F8"/>
  <outline>
    <contour>
      <point x="2030.07519531" y="1164.0" type="line"/>
      <point x="776.59375" y="-5.0" type="line"/>
      <point x="902.924804688" y="-103.0" type="line"/>
      <point x="2157.40625" y="1066.0" type="line"/>
    </contour>
    <contour>
      <point x="1245.75585938" y="1023.0" type="line"/>
      <point x="873.4140625" y="0.0" type="line"/>
      <point x="1073.4140625" y="0.0" type="line"/>
      <point x="1445.75585938" y="1023.0" type="line"/>
    </contour>
    <contour>
      <point x="1860.75585938" y="1023.0" type="line"/>
      <point x="1488.4140625" y="0.0" type="line"/>
      <point x="1690.4140625" y="0.0" type="line"/>
      <point x="2062.75585938" y="1023.0" type="line"/>
    </contour>
    <contour>
      <point x="1368.75585938" y="1023.0" type="line"/>
      <point x="1295.59765625" y="822.0" type="line"/>
      <point x="1881.59765625" y="822.0" type="line"/>
      <point x="1954.75585938" y="1023.0" type="line"/>
    </contour>
    <contour>
      <point x="1073.20800781" y="200.0" type="line"/>
      <point x="1000.4140625" y="0.0" type="line"/>
      <point x="1572.4140625" y="0.0" type="line"/>
      <point x="1645.20800781" y="200.0" type="line"/>
    </contour>
  </outline>
</glyph>
<glyph name="thorn" format="2">
  <advance width="2440"/>
  <unicode hex="00FE"/>
  <outline>
    <contour>
      <point x="1177.34765625" y="1034.0" type="line"/>
      <point x="653.23046875" y="-406.0" type="line"/>
      <point x="853.23046875" y="-406.0" type="line"/>
      <point x="1377.34765625" y="1034.0" type="line"/>
    </contour>
    <contour>
      <point x="1230.76953125" y="667.0" type="line"/>
      <point x="1158.33984375" y="468.0" type="line"/>
      <point x="1714.33984375" y="468.0" type="line"/>
      <point x="1786.76953125" y="667.0" type="line"/>
    </contour>
    <contour>
      <point x="998.185546875" y="6.0" type="line"/>
      <point x="925.02734375" y="-195.0" type="line"/>
      <point x="1471.02734375" y="-195.0" type="line"/>
      <point x="1544.18554688" y="6.0" type="line"/>
    </contour>
    <contour>
      <point x="1561.29101562" y="597.0" type="line"/>
      <point x="1306.1484375" y="-104.0" type="line"/>
      <point x="1504.1484375" y="-104.0" type="line"/>
      <point x="1759.29101562" y="597.0" type="line"/>
    </contour>
  </outline>
</glyph>
<glyph name="dcaron" format="2">
  <advance width="1024"/>
  <unicode hex="010F"/>
  <outline>
    <contour>
      <point x="1168.78" y="1527" type="line"/>
      <point x="613" y="0" type="line"/>
      <point x="814" y="0" type="line"/>
      <point x="1369.78" y="1527" type="line"/>
    </contour>
    <contour>
      <point x="521.342" y="1023" type="line"/>
      <point x="448.184" y="822" type="line"/>
      <point x="1001.18" y="822" type="line"/>
      <point x="1074.34" y="1023" type="line"/>
    </contour>
    <contour>
      <point x="425.342" y="1023" type="line"/>
      <point x="53" y="0" type="line"/>
      <point x="254" y="0" type="line"/>
      <point x="626.342" y="1023" type="line"/>
    </contour>
    <contour>
      <point x="219.975" y="195" type="line"/>
      <point x="149" y="0" type="line"/>
      <point x="766" y="0" type="line"/>
      <point x="836.975" y="195" type="line"/>
    </contour>
    <contour>
      <point x="1404.5" y="1496" type="line"/>
      <point x="1320.06" y="1264" type="line"/>
      <point x="1450.06" y="1264" type="line"/>
      <point x="1534.5" y="1496" type="line"/>
    </contour>
  </outline>
</glyph>
<glyph name="Dcroat" format="2">
  <advance width="1024"/>
  <unicode hex="0110"/>
  <outline>
    <contour>
      <point x="340.3125" y="935.0" type="line"/>
      <point x="265.698242188" y="730.0" type="line"/>
      <point x="741.698242188" y="730.0" type="line"/>
      <point x="816.3125" y="935.0" type="line"/>
    </contour>
    <contour>
      <point x="670.42578125" y="1548.0" type="line"/>
      <point x="107.0" y="0.0" type="line"/>
      <point x="309.0" y="0.0" type="line"/>
      <point x="872.42578125" y="1548.0" type="line"/>
    </contour>
    <contour>
      <point x="996.42578125" y="1548.0" type="line"/>
      <point x="924.359375" y="1350.0" type="line"/>
      <point x="1195.16503906" y="767.0" type="line"/>
      <point x="1288.34179688" y="1023.0" type="line"/>
    </contour>
    <contour>
      <point x="514.158203125" y="201.0" type="line"/>
      <point x="441.0" y="0.0" type="line"/>
      <point x="1192.89355469" y="769.0" type="line"/>
      <point x="1285.34179688" y="1023.0" type="line"/>
    </contour>
    <contour>
      <point x="834.42578125" y="1548.0" type="line"/>
      <point x="761.99609375" y="1349.0" type="line"/>
      <point x="923.99609375" y="1349.0" type="line"/>
      <point x="996.42578125" y="1548.0" type="line"/>
    </contour>
    <contour>
      <point x="351.793945312" y="200.0" type="line"/>
      <point x="279.0" y="0.0" type="line"/>
      <point x="441.0" y="0.0" type="line"/>
      <point x="513.793945312" y="200.0" type="line"/>
    </contour>
  </outline>
</glyph>
<glyph name="dcroat" format="2">
  <advance width="2930"/>
  <unicode hex="0111"/>
  <outline>
    <contour>
      <point x="1891.95703125" y="1527.0" type="line"/>
      <point x="1336.17480469" y="0.0" type="line"/>
      <point x="1537.17480469" y="0.0" type="line"/>
      <point x="2092.95703125" y="1527.0" type="line"/>
    </contour>
    <contour>
      <point x="1244.51660156" y="1023.0" type="line"/>
      <point x="1171.35839844" y="822.0" type="line"/>
      <point x="1724.35839844" y="822.0" type="line"/>
      <point x="1797.51660156" y="1023.0" type="line"/>
    </contour>
    <contour>
      <point x="1148.51660156" y="1023.0" type="line"/>
      <point x="776.174804688" y="0.0" type="line"/>
      <point x="977.174804688" y="0.0" type="line"/>
      <point x="1349.51660156" y="1023.0" type="line"/>
    </contour>
    <contour>
      <point x="943.149414062" y="195.0" type="line"/>
      <point x="872.174804688" y="0.0" type="line"/>
      <point x="1489.17480469" y="0.0" type="line"/>
      <point x="1560.14941406" y="195.0" type="line"/>
    </contour>
    <contour>
      <point x="1709.82519531" y="1403.0" type="line"/>
      <point x="1636.66699219" y="1202.0" type="line"/>
      <point x="2080.66699219" y="1202.0" type="line"/>
      <point x="2153.82519531" y="1403.0" type="line"/>
    </contour>
  </outline>
</glyph>
<glyph name="uni0123" format="2">
  <advance width="1024"/>
  <unicode hex="0123"/>
  <outline>
    <contour>
      <point x="487.330078125" y="1023.0" type="line"/>
      <point x="114.98828125" y="0.0" type="line"/>
      <point x="306.98828125" y="0.0" type="line"/>
      <point x="679.330078125" y="1023.0" type="line"/>
    </contour>
    <contour>
      <point x="527.330078125" y="1023.0" type="line"/>
      <point x="454.537109375" y="823.0" type="line"/>
      <point x="970.537109375" y="823.0" type="line"/>
      <point x="1043.33007812" y="1023.0" type="line"/>
    </contour>
    <contour>
      <point x="871.330078125" y="1023.0" type="line"/>
      <point x="349.396484375" y="-411.0" type="line"/>
      <point x="543.396484375" y="-411.0" type="line"/>
      <point x="1065.33007812" y="1023.0" type="line"/>
    </contour>
    <contour>
      <point x="250.0546875" y="198.0" type="line"/>
      <point x="177.98828125" y="0.0" type="line"/>
      <point x="634.98828125" y="0.0" type="line"/>
      <point x="707.0546875" y="198.0" type="line"/>
    </contour>
    <contour>
      <point x="31.099609375" y="-214.0" type="line"/>
      <point x="-41.330078125" y="-413.0" type="line"/>
      <point x="493.669921875" y="-413.0" type="line"/>
      <point x="566.099609375" y="-214.0" type="line"/>
    </contour>
    <contour>
      <point x="809.48828125" y="1496.0" type="line"/>
      <point x="701.025390625" y="1198.0" type="line"/>
      <point x="831.025390625" y="1198.0" type="line"/>
      <point x="939.48828125" y="1496.0" type="line"/>
    </contour>
  </outline>
</glyph>
<glyph name="Hbar" format="2">
  <advance width="1024"/>
  <unicode hex="0126"/>
  <outline>
    <contour>
      <point x="648.422" y="1537" type="line"/>
      <point x="89" y="0" type="line"/>
      <point x="289" y="0" type="line"/>
      <point x="848.422" y="1537" type="line"/>
    </contour>
    <contour>
      <point x="1234.42" y="1537" type="line"/>
      <point x="675" y="0" type="line"/>
      <point x="885" y="0" type="line"/>
      <point x="1444.42" y="1537" type="line"/>
    </contour>
    <contour>
      <point x="581.342" y="1023" type="line"/>
      <point x="506.728" y="818" type="line"/>
      <point x="1052.73" y="818" type="line"/>
      <point x="1127.34" y="1023" type="line"/>
    </contour>
    <contour>
      <point x="549.934" y="1434" type="line"/>
      <point x="474.228" y="1226" type="line"/>
      <point x="1399.23" y="1226" type="line"/>
      <point x="1474.93" y="1434" type="line"/>
    </contour>
  </outline>
</glyph>
<glyph name="hbar" format="2">
  <advance width="1024"/>
  <unicode hex="0127"/>
  <outline>
    <contour>
      <point x="733.421875" y="1537.0" type="line"/>
      <point x="176.18359375" y="6.0" type="line"/>
      <point x="376.18359375" y="6.0" type="line"/>
      <point x="933.421875" y="1537.0" type="line"/>
    </contour>
    <contour>
      <point x="683.341796875" y="1023.0" type="line"/>
      <point x="611.639648438" y="826.0" type="line"/>
      <point x="1142.63964844" y="826.0" type="line"/>
      <point x="1214.34179688" y="1023.0" type="line"/>
    </contour>
    <contour>
      <point x="1023.34179688" y="1023.0" type="line"/>
      <point x="651.0" y="0.0" type="line"/>
      <point x="850.0" y="0.0" type="line"/>
      <point x="1222.34179688" y="1023.0" type="line"/>
    </contour>
    <contour>
      <point x="558.11328125" y="1429.0" type="line"/>
      <point x="482.407226562" y="1221.0" type="line"/>
      <point x="938.407226562" y="1221.0" type="line"/>
      <point x="1014.11328125" y="1429.0" type="line"/>
    </contour>
  </outline>
</glyph>
<glyph name="dotlessi" format="2">
  <advance width="1852"/>
  <unicode hex="0131"/>
  <outline>
    <contour>
      <point x="1144.16894531" y="1018.0" type="line"/>
      <point x="824.239257812" y="139.0" type="line"/>
      <point x="1026.23925781" y="139.0" type="line"/>
      <point x="1346.16894531" y="1018.0" type="line"/>
    </contour>
    <contour>
      <point x="577.897460938" y="204.0" type="line"/>
      <point x="505.831054688" y="6.0" type="line"/>
      <point x="1247.83105469" y="6.0" type="line"/>
      <point x="1319.89746094" y="204.0" type="line"/>
    </contour>
    <contour>
      <point x="924.168945312" y="1018.0" type="line"/>
      <point x="851.375" y="818.0" type="line"/>
      <point x="1227.375" y="818.0" type="line"/>
      <point x="1300.16894531" y="1018.0" type="line"/>
    </contour>
  </outline>
</glyph>
<glyph name="kgreenlandic" format="2">
  <advance width="1024"/>
  <unicode hex="0138"/>
  <anchor x="297" y="-89" name="base"/>
  <anchor x="329" y="1141" name="top"/>
  <outline>
    <contour>
      <point x="228" y="1022" type="line"/>
      <point x="-142" y="5" type="line"/>
      <point x="58" y="5" type="line"/>
      <point x="428" y="1022" type="line"/>
    </contour>
    <contour>
      <point x="93" y="516" type="line"/>
      <point x="62" y="298" type="line"/>
      <point x="1198" y="1023" type="line"/>
      <point x="981" y="1023" type="line"/>
    </contour>
    <contour>
      <point x="467" y="631" type="line"/>
      <point x="186" y="483" type="line"/>
      <point x="579" y="0" type="line"/>
      <point x="817" y="0" type="line"/>
    </contour>
  </outline>
</glyph>
<glyph name="Lcaron" format="2">
  <advance width="2308"/>
  <unicode hex="013D"/>
  <outline>
    <contour>
      <point x="1180.9921875" y="1542.0" type="line"/>
      <point x="619.75" y="0.0" type="line"/>
      <point x="817.75" y="0.0" type="line"/>
      <point x="1378.9921875" y="1542.0" type="line"/>
    </contour>
    <contour>
      <point x="802.2734375" y="202.0" type="line"/>
      <point x="728.75" y="0.0" type="line"/>
      <point x="1454.75" y="0.0" type="line"/>
      <point x="1528.2734375" y="202.0" type="line"/>
    </contour>
    <contour>
      <point x="1558.25" y="1496.0" type="line"/>
      <point x="1473.80859375" y="1264.0" type="line"/>
      <point x="1603.80859375" y="1264.0" type="line"/>
      <point x="1688.25" y="1496.0" type="line"/>
    </contour>
  </outline>
</glyph>
<glyph name="lcaron" format="2">
  <advance width="1024"/>
  <unicode hex="013E"/>
  <outline>
    <contour>
      <point x="209.069" y="209" type="line"/>
      <point x="136.275" y="9" type="line"/>
      <point x="770.275" y="9" type="line"/>
      <point x="843.069" y="209" type="line"/>
    </contour>
    <contour>
      <point x="913.426" y="1548" type="line"/>
      <point x="381.302" y="86" type="line"/>
      <point x="581.302" y="86" type="line"/>
      <point x="1113.43" y="1548" type="line"/>
    </contour>
    <contour>
      <point x="757.426" y="1548" type="line"/>
      <point x="684.996" y="1349" type="line"/>
      <point x="919.996" y="1349" type="line"/>
      <point x="992.426" y="1548" type="line"/>
    </contour>
    <contour>
      <point x="1174.5" y="1496" type="line"/>
      <point x="1090.06" y="1264" type="line"/>
      <point x="1220.06" y="1264" type="line"/>
      <point x="1304.5" y="1496" type="line"/>
    </contour>
  </outline>
</glyph>
<glyph name="Lslash" format="2">
  <advance width="1024"/>
  <unicode hex="0141"/>
  <outline>
    <contour>
      <point x="618.98046875" y="1542.0" type="line"/>
      <point x="57.73828125" y="0.0" type="line"/>
      <point x="255.73828125" y="0.0" type="line"/>
      <point x="816.98046875" y="1542.0" type="line"/>
    </contour>
    <contour>
      <point x="240.26171875" y="202.0" type="line"/>
      <point x="166.73828125" y="0.0" type="line"/>
      <point x="892.73828125" y="0.0" type="line"/>
      <point x="966.26171875" y="202.0" type="line"/>
    </contour>
    <contour>
      <point x="231.0390625" y="902.0" type="line"/>
      <point x="248.4375" y="730.0" type="line"/>
      <point x="755.958984375" y="932.0" type="line"/>
      <point x="738.5625" y="1104.0" type="line"/>
    </contour>
  </outline>
</glyph>
<glyph name="lslash" format="2">
  <advance width="1024"/>
  <unicode hex="0142"/>
  <outline>
    <contour>
      <point x="271.069" y="209" type="line"/>
      <point x="198.275" y="9" type="line"/>
      <point x="832.275" y="9" type="line"/>
      <point x="905.069" y="209" type="line"/>
    </contour>
    <contour>
      <point x="975.426" y="1548" type="line"/>
      <point x="443.302" y="86" type="line"/>
      <point x="643.302" y="86" type="line"/>
      <point x="1175.43" y="1548" type="line"/>
    </contour>
    <contour>
      <point x="819.426" y="1548" type="line"/>
      <point x="746.996" y="1349" type="line"/>
      <point x="981.996" y="1349" type="line"/>
      <point x="1054.43" y="1548" type="line"/>
    </contour>
    <contour>
      <point x="1256.5" y="1213" type="line"/>
      <point x="414.096" y="830" type="line"/>
      <point x="452.765" y="656" type="line"/>
      <point x="1295.17" y="1039" type="line"/>
    </contour>
  </outline>
</glyph>
<glyph name="Eng" format="2">
  <advance width="2900"/>
  <unicode hex="014A"/>
  <outline>
    <contour>
      <point x="1103.625" y="-211.0" type="line"/>
      <point x="1031.92285156" y="-408.0" type="line"/>
      <point x="1418.92285156" y="-408.0" type="line"/>
      <point x="1490.625" y="-211.0" type="line"/>
    </contour>
    <contour>
      <point x="1310.73828125" y="1490.0" type="line"/>
      <point x="768.422851562" y="0.0" type="line"/>
      <point x="969.422851562" y="0.0" type="line"/>
      <point x="1511.73828125" y="1490.0" type="line"/>
    </contour>
    <contour>
      <point x="1904.64257812" y="1476.0" type="line"/>
      <point x="1218.92285156" y="-408.0" type="line"/>
      <point x="1419.92285156" y="-408.0" type="line"/>
      <point x="2105.64257812" y="1476.0" type="line"/>
    </contour>
    <contour>
      <point x="1332.57714844" y="1550.0" type="line"/>
      <point x="1260.875" y="1353.0" type="line"/>
      <point x="2059.875" y="1353.0" type="line"/>
      <point x="2131.57714844" y="1550.0" type="line"/>
    </contour>
  </outline>
</glyph>
<glyph name="eng" format="2">
  <advance width="1024"/>
  <unicode hex="014B"/>
  <outline>
    <contour>
      <point x="161.53125" y="-211.0" type="line"/>
      <point x="89.8291015625" y="-408.0" type="line"/>
      <point x="476.829101562" y="-408.0" type="line"/>
      <point x="548.53125" y="-211.0" type="line"/>
    </contour>
    <contour>
      <point x="386.659179688" y="990.0" type="line"/>
      <point x="26.3291015625" y="0.0" type="line"/>
      <point x="227.329101562" y="0.0" type="line"/>
      <point x="587.659179688" y="990.0" type="line"/>
    </contour>
    <contour>
      <point x="780.564453125" y="976.0" type="line"/>
      <point x="276.829101562" y="-408.0" type="line"/>
      <point x="477.829101562" y="-408.0" type="line"/>
      <point x="981.564453125" y="976.0" type="line"/>
    </contour>
    <contour>
      <point x="219.670898438" y="1023.0" type="line"/>
      <point x="147.96875" y="826.0" type="line"/>
      <point x="925.96875" y="826.0" type="line"/>
      <point x="997.670898438" y="1023.0" type="line"/>
    </contour>
  </outline>
</glyph>
<glyph name="OE" format="2">
  <advance width="2836"/>
  <unicode hex="0152"/>
  <outline>
    <contour>
      <point x="1315.21289062" y="1548.0" type="line"/>
      <point x="751.787109375" y="0.0" type="line"/>
      <point x="952.787109375" y="0.0" type="line"/>
      <point x="1516.21289062" y="1548.0" type="line"/>
    </contour>
    <contour>
      <point x="1707.21289062" y="1548.0" type="line"/>
      <point x="1143.78710938" y="0.0" type="line"/>
      <point x="1344.78710938" y="0.0" type="line"/>
      <point x="1908.21289062" y="1548.0" type="line"/>
    </contour>
    <contour>
      <point x="1352.21289062" y="1548.0" type="line"/>
      <point x="1279.78320312" y="1349.0" type="line"/>
      <point x="2011.78320312" y="1349.0" type="line"/>
      <point x="2084.21289062" y="1548.0" type="line"/>
    </contour>
    <contour>
      <point x="863.581054688" y="200.0" type="line"/>
      <point x="790.787109375" y="0.0" type="line"/>
      <point x="1528.78710938" y="0.0" type="line"/>
      <point x="1601.58105469" y="200.0" type="line"/>
    </contour>
    <contour>
      <point x="1559.4375" y="859.0" type="line"/>
      <point x="1486.64355469" y="659.0" type="line"/>
      <point x="1730.64355469" y="659.0" type="line"/>
      <point x="1803.4375" y="859.0" type="line"/>
    </contour>
  </outline>
</glyph>
<glyph name="oe" format="2">
  <advance width="1024"/>
  <unicode hex="0153"/>
  <outline>
    <contour>
      <point x="606.58984375" y="645.0" type="line"/>
      <point x="534.16015625" y="446.0" type="line"/>
      <point x="761.16015625" y="446.0" type="line"/>
      <point x="833.58984375" y="645.0" type="line"/>
    </contour>
    <contour>
      <point x="946.170898438" y="1023.0" type="line"/>
      <point x="735.795898438" y="445.0" type="line"/>
      <point x="935.795898438" y="445.0" type="line"/>
      <point x="1146.17089844" y="1023.0" type="line"/>
    </contour>
    <contour>
      <point x="250.170898438" y="1023.0" type="line"/>
      <point x="-122.170898438" y="0.0" type="line"/>
      <point x="77.8291015625" y="0.0" type="line"/>
      <point x="450.170898438" y="1023.0" type="line"/>
    </contour>
    <contour>
      <point x="598.170898438" y="1023.0" type="line"/>
      <point x="225.829101562" y="0.0" type="line"/>
      <point x="425.829101562" y="0.0" type="line"/>
      <point x="798.170898438" y="1023.0" type="line"/>
    </contour>
    <contour>
      <point x="305.170898438" y="1023.0" type="line"/>
      <point x="232.376953125" y="823.0" type="line"/>
      <point x="933.376953125" y="823.0" type="line"/>
      <point x="1006.17089844" y="1023.0" type="line"/>
    </contour>
    <contour>
      <point x="-3.376953125" y="200.0" type="line"/>
      <point x="-76.1708984375" y="0.0" type="line"/>
      <point x="773.829101562" y="0.0" type="line"/>
      <point x="846.623046875" y="200.0" type="line"/>
    </contour>
  </outline>
</glyph>
<glyph name="tcaron" format="2">
  <advance width="1024"/>
  <unicode hex="0165"/>
  <outline>
    <contour>
      <point x="566.26171875" y="1529.0" type="line"/>
      <point x="9.75" y="0.0" type="line"/>
      <point x="210.75" y="0.0" type="line"/>
      <point x="767.26171875" y="1529.0" type="line"/>
    </contour>
    <contour>
      <point x="235.1796875" y="199.0" type="line"/>
      <point x="162.75" y="0.0" type="line"/>
      <point x="553.75" y="0.0" type="line"/>
      <point x="626.1796875" y="199.0" type="line"/>
    </contour>
    <contour>
      <point x="110.091796875" y="1023.0" type="line"/>
      <point x="37.662109375" y="824.0" type="line"/>
      <point x="816.662109375" y="824.0" type="line"/>
      <point x="889.091796875" y="1023.0" type="line"/>
    </contour>
    <contour>
      <point x="884.25" y="1496.0" type="line"/>
      <point x="809.63671875" y="1291.0" type="line"/>
      <point x="939.63671875" y="1291.0" type="line"/>
      <point x="1014.25" y="1496.0" type="line"/>
    </contour>
  </outline>
</glyph>
<glyph name="longs" format="2">
  <advance width="1024"/>
  <unicode hex="017F"/>
  <outline>
    <contour>
      <point x="462" y="1221" type="line"/>
      <point x="390" y="1023" type="line"/>
      <point x="641" y="1023" type="line"/>
      <point x="713" y="1221" type="line"/>
    </contour>
    <contour>
      <point x="767" y="1548" type="line"/>
      <point x="204" y="0" type="line"/>
      <point x="410" y="0" type="line"/>
      <point x="973" y="1548" type="line"/>
    </contour>
    <contour>
      <point x="973" y="1548" type="line"/>
      <point x="893" y="1328" type="line"/>
      <point x="1288" y="1328" type="line"/>
      <point x="1368" y="1548" type="line"/>
    </contour>
  </outline>
</glyph>
<glyph name="Btopbar" format="2">
  <advance width="1024"/>
  <unicode hex="0182"/>
  <anchor x="1110.12" y="1657" name="top"/>
  <anchor x="692.117" y="-67" name="base"/>
  <outline>
    <contour>
      <point x="93.0586" y="0" type="line"/>
      <point x="301.059" y="0" type="line"/>
      <point x="860.059" y="1537" type="line"/>
      <point x="652.059" y="1537" type="line"/>
    </contour>
    <contour>
      <point x="431.059" y="201" type="line"/>
      <point x="358.059" y="0" type="line"/>
      <point x="1044.06" y="364" type="line"/>
      <point x="1126.06" y="588" type="line"/>
    </contour>
    <contour>
      <point x="631.059" y="567" type="line"/>
      <point x="1044.06" y="364" type="line"/>
      <point x="1125.06" y="586" type="line"/>
      <point x="704.059" y="766" type="line"/>
    </contour>
    <contour>
      <point x="532.059" y="766" type="line"/>
      <point x="459.059" y="567" type="line"/>
      <point x="631.059" y="567" type="line"/>
      <point x="704.059" y="766" type="line"/>
    </contour>
    <contour>
      <point x="264.059" y="200" type="line"/>
      <point x="191.059" y="0" type="line"/>
      <point x="358.059" y="0" type="line"/>
      <point x="431.059" y="200" type="line"/>
    </contour>
    <contour>
      <point x="812.059" y="1537" type="line"/>
      <point x="737.059" y="1331" type="line"/>
      <point x="1378" y="1331" type="line"/>
      <point x="1453" y="1537" type="line"/>
    </contour>
  </outline>
</glyph>
<glyph name="uni018F" format="2">
  <advance width="1024"/>
  <unicode hex="018F"/>
  <outline>
    <contour>
      <point x="804.0" y="0.0" type="line"/>
      <point x="880.797851562" y="211.0" type="line"/>
      <point x="341.797851562" y="211.0" type="line"/>
      <point x="265.0" y="0.0" type="line"/>
    </contour>
    <contour>
      <point x="854.0" y="0.0" type="line"/>
      <point x="1415.60644531" y="1543.0" type="line"/>
      <point x="1213.60644531" y="1543.0" type="line"/>
      <point x="652.0" y="0.0" type="line"/>
    </contour>
    <contour>
      <point x="1240.44824219" y="1342.0" type="line"/>
      <point x="1313.60644531" y="1543.0" type="line"/>
      <point x="731.606445312" y="1543.0" type="line"/>
      <point x="658.448242188" y="1342.0" type="line"/>
    </contour>
    <contour>
      <point x="1034.77539062" y="689.0" type="line"/>
      <point x="1099.92578125" y="868.0" type="line"/>
      <point x="445.92578125" y="868.0" type="line"/>
      <point x="380.775390625" y="689.0" type="line"/>
    </contour>
    <contour>
      <point x="472.918945312" y="30.0" type="line"/>
      <point x="618.290039062" y="869.0" type="line"/>
      <point x="423.290039062" y="869.0" type="line"/>
      <point x="277.918945312" y="30.0" type="line"/>
    </contour>
  </outline>
</glyph>
<glyph name="Eopen" format="2">
  <advance width="1024"/>
  <unicode hex="0190"/>
  <outline>
    <contour>
      <point x="518" y="1542" type="line"/>
      <point x="421" y="930" type="line"/>
      <point x="621" y="929" type="line"/>
      <point x="718" y="1541" type="line"/>
    </contour>
    <contour>
      <point x="596" y="1541" type="line"/>
      <point x="521" y="1337" type="line"/>
      <point x="1240" y="1337" type="line"/>
      <point x="1315" y="1541" type="line"/>
    </contour>
    <contour>
      <point x="244" y="203" type="line"/>
      <point x="170" y="0" type="line"/>
      <point x="916" y="0" type="line"/>
      <point x="990" y="203" type="line"/>
    </contour>
    <contour>
      <point x="601" y="931" type="line"/>
      <point x="528" y="731" type="line"/>
      <point x="840" y="731" type="line"/>
      <point x="913" y="931" type="line"/>
    </contour>
    <contour>
      <point x="357" y="734" type="line"/>
      <point x="97" y="2" type="line"/>
      <point x="296" y="1" type="line"/>
      <point x="557" y="733" type="line"/>
    </contour>
  </outline>
</glyph>
<glyph name="uni0192" format="2">
  <advance width="2792"/>
  <unicode hex="0192"/>
  <outline>
    <contour>
      <point x="1507.05664062" y="1023.0" type="line"/>
      <point x="986.943359375" y="-406.0" type="line"/>
      <point x="1186.94335938" y="-406.0" type="line"/>
      <point x="1707.05664062" y="1023.0" type="line"/>
    </contour>
    <contour>
      <point x="1569.05664062" y="1023.0" type="line"/>
      <point x="1499.17382812" y="831.0" type="line"/>
      <point x="1981.17382812" y="831.0" type="line"/>
      <point x="2051.05664062" y="1023.0" type="line"/>
    </contour>
    <contour>
      <point x="1154.17382812" y="559.0" type="line"/>
      <point x="1080.28808594" y="356.0" type="line"/>
      <point x="1711.28808594" y="356.0" type="line"/>
      <point x="1785.17382812" y="559.0" type="line"/>
    </contour>
    <contour>
      <point x="815.556640625" y="-201.0" type="line"/>
      <point x="740.943359375" y="-406.0" type="line"/>
      <point x="1188.94335938" y="-406.0" type="line"/>
      <point x="1263.55664062" y="-201.0" type="line"/>
    </contour>
  </outline>
</glyph>
<glyph name="Gamma_latin" format="2">
  <advance width="1024"/>
  <unicode hex="0194"/>
  <outline>
    <contour>
      <point x="740" y="1543" type="line"/>
      <point x="630" y="-158" type="line"/>
      <point x="830" y="-158" type="line"/>
      <point x="940" y="1543" type="line"/>
    </contour>
    <contour>
      <point x="1400" y="1543" type="line"/>
      <point x="292" y="-158" type="line"/>
      <point x="491" y="-158" type="line"/>
      <point x="1600" y="1543" type="line"/>
    </contour>
    <contour>
      <point x="219" y="-360" type="line"/>
      <point x="757" y="-361" type="line"/>
      <point x="831" y="-158" type="line"/>
      <point x="293" y="-158" type="line"/>
    </contour>
  </outline>
</glyph>
<glyph name="Iota-latin" format="2">
  <advance width="1024"/>
  <unicode hex="0196"/>
  <outline>
    <contour>
      <point x="664" y="1543" type="line"/>
      <point x="381" y="239" type="line"/>
      <point x="583" y="239" type="line"/>
      <point x="866" y="1543" type="line"/>
    </contour>
    <contour>
      <point x="404" y="304" type="line"/>
      <point x="332" y="106" type="line"/>
      <point x="792" y="6" type="line"/>
      <point x="864" y="204" type="line"/>
    </contour>
  </outline>
</glyph>
<glyph name="uni0196" format="2">
  <advance width="1024"/>
  <unicode hex="0196"/>
  <anchor x="814" y="1639" name="top"/>
  <anchor x="499.217" y="-50" name="base"/>
  <outline>
    <contour>
      <point x="664" y="1543" type="line"/>
      <point x="381" y="239" type="line"/>
      <point x="583" y="239" type="line"/>
      <point x="866" y="1543" type="line"/>
    </contour>
    <contour>
      <point x="404" y="304" type="line"/>
      <point x="332" y="106" type="line"/>
      <point x="792" y="6" type="line"/>
      <point x="864" y="204" type="line"/>
    </contour>
  </outline>
</glyph>
<glyph name="uni0198" format="2">
  <advance width="1024"/>
  <unicode hex="0198"/>
  <outline>
    <contour>
      <point x="677" y="1537" type="line"/>
      <point x="120" y="5" type="line"/>
      <point x="321" y="5" type="line"/>
      <point x="878" y="1537" type="line"/>
    </contour>
    <contour>
      <point x="527" y="999" type="line"/>
      <point x="586" y="835" type="line"/>
      <point x="1496" y="1529" type="line"/>
      <point x="1229" y="1529" type="line"/>
    </contour>
    <contour>
      <point x="583" y="798" type="line"/>
      <point x="390" y="643" type="line"/>
      <point x="711" y="0" type="line"/>
      <point x="992" y="0" type="line"/>
    </contour>
    <contour>
      <point x="1890" y="1729" type="line"/>
      <point x="1846" y="1944" type="line"/>
      <point x="1605" y="1830" type="line"/>
      <point x="1651" y="1615" type="line"/>
    </contour>
    <contour>
      <point x="1655" y="1712" type="line"/>
      <point x="1605" y="1828" type="line"/>
      <point x="1222" y="1523" type="line"/>
      <point x="1495" y="1529" type="line"/>
    </contour>
  </outline>
</glyph>
<glyph name="Mturned" format="2">
  <advance width="1024"/>
  <unicode hex="019C"/>
  <anchor x="544.938" y="-112" name="base"/>
  <anchor x="939.938" y="1110" name="top"/>
  <outline>
    <contour>
      <point x="975" y="30" type="line"/>
      <point x="1337" y="1546" type="line"/>
      <point x="1137" y="1546" type="line"/>
      <point x="775" y="30" type="line"/>
    </contour>
    <contour>
      <point x="668" y="51" type="line"/>
      <point x="1022" y="1546" type="line"/>
      <point x="822" y="1546" type="line"/>
      <point x="468" y="51" type="line"/>
    </contour>
    <contour>
      <point x="351" y="47" type="line"/>
      <point x="707" y="1546" type="line"/>
      <point x="507" y="1546" type="line"/>
      <point x="151" y="47" type="line"/>
    </contour>
    <contour>
      <point x="1041" y="0" type="line"/>
      <point x="1113" y="197" type="line"/>
      <point x="207" y="197" type="line"/>
      <point x="135" y="0" type="line"/>
    </contour>
  </outline>
</glyph>
<glyph name="Phook" format="2">
  <advance width="1024"/>
  <unicode hex="01A4"/>
  <anchor x="932.351" y="-19" name="base"/>
  <anchor x="1154.35" y="1658" name="top"/>
  <outline>
    <contour>
      <point x="839.351" y="1548" type="line"/>
      <point x="278.351" y="9" type="line"/>
      <point x="468.351" y="9" type="line"/>
      <point x="1029.35" y="1548" type="line"/>
    </contour>
    <contour>
      <point x="918.351" y="1548" type="line"/>
      <point x="844.351" y="1346" type="line"/>
      <point x="1500.35" y="1346" type="line"/>
      <point x="1574.35" y="1548" type="line"/>
    </contour>
    <contour>
      <point x="1394.35" y="1548" type="line"/>
      <point x="1151.35" y="881" type="line"/>
      <point x="1351.35" y="881" type="line"/>
      <point x="1594.35" y="1548" type="line"/>
    </contour>
    <contour>
      <point x="727.351" y="1068" type="line"/>
      <point x="654.351" y="868" type="line"/>
      <point x="1341.35" y="868" type="line"/>
      <point x="1414.35" y="1068" type="line"/>
    </contour>
    <contour>
      <point x="421.799" y="1301.86" type="line"/>
      <point x="663.847" y="1332.02" type="line"/>
      <point x="550.309" y="1552.5" type="line"/>
      <point x="308.261" y="1522.34" type="line"/>
    </contour>
    <contour>
      <point x="592.656" y="1376.34" type="line"/>
      <point x="869.232" y="1361.29" type="line"/>
      <point x="867.914" y="1547.33" type="line"/>
      <point x="550.767" y="1551.61" type="line"/>
    </contour>
  </outline>
</glyph>
<glyph name="Thook" format="2">
  <advance width="1024"/>
  <unicode hex="01AC"/>
  <anchor x="1238.53" y="1629" name="top"/>
  <anchor x="634.529" y="-79" name="base"/>
  <outline>
    <contour>
      <point x="796.529" y="1548" type="line"/>
      <point x="723.529" y="1348" type="line"/>
      <point x="1497.53" y="1348" type="line"/>
      <point x="1570.53" y="1548" type="line"/>
    </contour>
    <contour>
      <point x="1042.53" y="1436" type="line"/>
      <point x="522.529" y="6" type="line"/>
      <point x="722.529" y="6" type="line"/>
      <point x="1242.53" y="1436" type="line"/>
    </contour>
    <contour>
      <point x="962.895" y="1544.24" type="line"/>
      <point x="368.177" y="1545.45" type="line"/>
      <point x="435.724" y="1358.26" type="line"/>
      <point x="1028.56" y="1356.38" type="line"/>
    </contour>
    <contour>
      <point x="368.177" y="1545.45" type="line"/>
      <point x="492.41" y="1201.18" type="line"/>
      <point x="705.314" y="1200.4" type="line"/>
      <point x="581.082" y="1544.67" type="line"/>
    </contour>
  </outline>
</glyph>
<glyph name="uni01AE" format="2">
  <advance width="1024"/>
  <unicode hex="01AE"/>
  <anchor x="1130.53" y="1629" name="top"/>
  <anchor x="526.529" y="-79" name="base"/>
  <outline>
    <contour>
      <point x="688.529" y="1548" type="line"/>
      <point x="615.529" y="1348" type="line"/>
      <point x="1389.53" y="1348" type="line"/>
      <point x="1462.53" y="1548" type="line"/>
    </contour>
    <contour>
      <point x="934.529" y="1436" type="line"/>
      <point x="414.529" y="6" type="line"/>
      <point x="614.529" y="6" type="line"/>
      <point x="1134.53" y="1436" type="line"/>
    </contour>
    <contour>
      <point x="492" y="219" type="line"/>
      <point x="289" y="-340" type="line"/>
      <point x="488" y="-340" type="line"/>
      <point x="691" y="217" type="line"/>
    </contour>
    <contour>
      <point x="289" y="-340" type="line"/>
      <point x="655" y="-340" type="line"/>
      <point x="728" y="-140" type="line"/>
      <point x="362" y="-140" type="line"/>
    </contour>
  </outline>
</glyph>
<glyph name="uni01B1" format="2">
  <advance width="1024"/>
  <unicode hex="01B1"/>
  <anchor x="944" y="1612" name="top"/>
  <outline>
    <contour>
      <point x="672" y="1455" type="line"/>
      <point x="139" y="0" type="line"/>
      <point x="340" y="0" type="line"/>
      <point x="873" y="1455" type="line"/>
    </contour>
    <contour>
      <point x="971" y="1455" type="line"/>
      <point x="717" y="0" type="line"/>
      <point x="917" y="0" type="line"/>
      <point x="1171" y="1455" type="line"/>
    </contour>
    <contour>
      <point x="257" y="196" type="line"/>
      <point x="186" y="0" type="line"/>
      <point x="867" y="0" type="line"/>
      <point x="941" y="203" type="line"/>
    </contour>
    <contour>
      <point x="1080" y="1455" type="line"/>
      <point x="1012" y="1255" type="line"/>
      <point x="1310" y="1255" type="line"/>
      <point x="1378" y="1455" type="line"/>
    </contour>
    <contour>
      <point x="461" y="1455" type="line"/>
      <point x="388" y="1255" type="line"/>
      <point x="686" y="1255" type="line"/>
      <point x="759" y="1455" type="line"/>
    </contour>
  </outline>
</glyph>
<glyph name="uni01B2" format="2">
  <advance width="1024"/>
  <unicode hex="01B2"/>
  <anchor x="881.171" y="1127" name="top"/>
  <anchor x="490.171" y="-69" name="base"/>
  <outline>
    <contour>
      <point x="476" y="1623" type="line"/>
      <point x="103.171" y="0" type="line"/>
      <point x="303.171" y="0" type="line"/>
      <point x="676" y="1623" type="line"/>
    </contour>
    <contour>
      <point x="1091" y="1623" type="line"/>
      <point x="718.171" y="0" type="line"/>
      <point x="920.171" y="0" type="line"/>
      <point x="1293" y="1623" type="line"/>
    </contour>
    <contour>
      <point x="958" y="1623" type="line"/>
      <point x="885" y="1422" type="line"/>
      <point x="1112" y="1422" type="line"/>
      <point x="1185" y="1623" type="line"/>
    </contour>
    <contour>
      <point x="303.171" y="200" type="line"/>
      <point x="230.171" y="0" type="line"/>
      <point x="802.171" y="0" type="line"/>
      <point x="875.171" y="200" type="line"/>
    </contour>
  </outline>
</glyph>
<glyph name="Ezh" format="2">
  <advance width="1024"/>
  <unicode hex="01B7"/>
  <outline>
    <contour>
      <point x="860" y="0" type="line"/>
      <point x="932" y="197" type="line"/>
      <point x="236" y="197" type="line"/>
      <point x="164" y="0" type="line"/>
    </contour>
    <contour>
      <point x="872" y="39" type="line"/>
      <point x="1186" y="889" type="line"/>
      <point x="984" y="889" type="line"/>
      <point x="670" y="39" type="line"/>
    </contour>
    <contour>
      <point x="1006" y="688" type="line"/>
      <point x="1080" y="889" type="line"/>
      <point x="498" y="889" type="line"/>
      <point x="424" y="688" type="line"/>
    </contour>
    <contour>
      <point x="683" y="1544" type="line"/>
      <point x="611" y="1347" type="line"/>
      <point x="1439" y="1347" type="line"/>
      <point x="1511" y="1544" type="line"/>
    </contour>
    <contour>
      <point x="1147" y="1347" type="line"/>
      <point x="493" y="889" type="line"/>
      <point x="799" y="889" type="line"/>
      <point x="1439" y="1347" type="line"/>
    </contour>
  </outline>
</glyph>
<glyph name="Ezhreversed" format="2">
  <advance width="1024"/>
  <unicode hex="01B8"/>
  <outline>
    <contour>
      <point x="210" y="0" type="line"/>
      <point x="906" y="0" type="line"/>
      <point x="906" y="197" type="line"/>
      <point x="210" y="197" type="line"/>
    </contour>
    <contour>
      <point x="212" y="39" type="line"/>
      <point x="414" y="39" type="line"/>
      <point x="662" y="889" type="line"/>
      <point x="460" y="889" type="line"/>
    </contour>
    <contour>
      <point x="493" y="688" type="line"/>
      <point x="1075" y="688" type="line"/>
      <point x="1148" y="889" type="line"/>
      <point x="566" y="889" type="line"/>
    </contour>
    <contour>
      <point x="1439" y="1544" type="line"/>
      <point x="611" y="1544" type="line"/>
      <point x="540" y="1347" type="line"/>
      <point x="1368" y="1347" type="line"/>
    </contour>
    <contour>
      <point x="832" y="1347" type="line"/>
      <point x="540" y="1347" type="line"/>
      <point x="847" y="889" type="line"/>
      <point x="1153" y="889" type="line"/>
    </contour>
  </outline>
</glyph>
<glyph name="uni01B9" format="2">
  <advance width="1024"/>
  <unicode hex="01B9"/>
  <outline>
    <contour>
      <point x="210" y="0" type="line"/>
      <point x="906" y="0" type="line"/>
      <point x="978" y="197" type="line"/>
      <point x="282" y="197" type="line"/>
    </contour>
    <contour>
      <point x="226" y="39" type="line"/>
      <point x="428" y="39" type="line"/>
      <point x="635" y="619" type="line"/>
      <point x="433" y="619" type="line"/>
    </contour>
    <contour>
      <point x="466" y="418" type="line"/>
      <point x="1048" y="418" type="line"/>
      <point x="1121" y="619" type="line"/>
      <point x="539" y="619" type="line"/>
    </contour>
    <contour>
      <point x="1413" y="1274" type="line"/>
      <point x="585" y="1274" type="line"/>
      <point x="513" y="1077" type="line"/>
      <point x="1341" y="1077" type="line"/>
    </contour>
    <contour>
      <point x="805" y="1077" type="line"/>
      <point x="513" y="1077" type="line"/>
      <point x="820" y="619" type="line"/>
      <point x="1126" y="619" type="line"/>
    </contour>
  </outline>
</glyph>
<glyph name="uni021C" format="2">
  <advance width="1024"/>
  <unicode hex="021C"/>
  <outline>
    <contour>
      <point x="297" y="502" type="line"/>
      <point x="955" y="736" type="line"/>
      <point x="757" y="192" type="line"/>
      <point x="57" y="-42" type="line"/>
      <point x="-16" y="-242" type="line"/>
      <point x="888" y="-8" type="line"/>
      <point x="1456" y="1553" type="line"/>
      <point x="582" y="1368" type="line"/>
      <point x="509" y="1168" type="line"/>
      <point x="1177" y="1353" type="line"/>
      <point x="1026" y="936" type="line"/>
      <point x="370" y="702" type="line"/>
    </contour>
  </outline>
</glyph>
<glyph name="uni021D" format="2">
  <advance width="1024"/>
  <unicode hex="021D"/>
  <outline>
    <contour>
      <point x="297" y="93" type="line"/>
      <point x="955" y="327" type="line"/>
      <point x="757" y="-137" type="line"/>
      <point x="57" y="-371" type="line"/>
      <point x="-16" y="-571" type="line"/>
      <point x="888" y="-337" type="line"/>
      <point x="1456" y="1100" type="line"/>
      <point x="582" y="915" type="line"/>
      <point x="509" y="715" type="line"/>
      <point x="1177" y="900" type="line"/>
      <point x="1026" y="527" type="line"/>
      <point x="370" y="293" type="line"/>
    </contour>
  </outline>
</glyph>
<glyph name="dcurl" format="2">
  <advance width="1024"/>
  <unicode hex="0221"/>
  <anchor x="575.671" y="-63" name="base"/>
  <anchor x="1309.67" y="1632" name="top"/>
  <outline>
    <contour>
      <point x="931" y="1543" type="line"/>
      <point x="376" y="16" type="line"/>
      <point x="577" y="16" type="line"/>
      <point x="1132" y="1543" type="line"/>
    </contour>
    <contour>
      <point x="452" y="1023" type="line"/>
      <point x="401" y="822" type="line"/>
      <point x="793" y="822" type="line"/>
      <point x="845" y="1023" type="line"/>
    </contour>
    <contour>
      <point x="378" y="1023" type="line"/>
      <point x="6" y="0" type="line"/>
      <point x="207" y="0" type="line"/>
      <point x="579" y="1023" type="line"/>
    </contour>
    <contour>
      <point x="198" y="195" type="line"/>
      <point x="102" y="0" type="line"/>
      <point x="936" y="0" type="line"/>
      <point x="1032" y="195" type="line"/>
    </contour>
    <contour>
      <point x="517" y="-144" type="line"/>
      <point x="633" y="-138" type="line"/>
      <point x="924" y="297" type="line"/>
      <point x="1035" y="549" type="line"/>
    </contour>
    <contour>
      <point x="1036" y="549" type="line"/>
      <point x="792" y="4" type="line"/>
      <point x="997" y="-1" type="line"/>
      <point x="1229" y="555" type="line"/>
    </contour>
  </outline>
</glyph>
<glyph name="uni0222" format="2">
  <advance width="1024"/>
  <unicode hex="0222"/>
  <outline>
    <contour>
      <point x="680" y="1552" type="line"/>
      <point x="447" y="911" type="line"/>
      <point x="647" y="911" type="line"/>
      <point x="880" y="1552" type="line"/>
    </contour>
    <contour>
      <point x="1292" y="1552" type="line"/>
      <point x="1057" y="915" type="line"/>
      <point x="1257" y="915" type="line"/>
      <point x="1492" y="1552" type="line"/>
    </contour>
    <contour>
      <point x="386" y="779" type="line"/>
      <point x="311" y="581" type="line"/>
      <point x="1154" y="578" type="line"/>
      <point x="1227" y="783" type="line"/>
    </contour>
    <contour>
      <point x="386" y="779" type="line"/>
      <point x="104" y="24" type="line"/>
      <point x="308" y="24" type="line"/>
      <point x="583" y="779" type="line"/>
    </contour>
    <contour>
      <point x="1027" y="780" type="line"/>
      <point x="749" y="0" type="line"/>
      <point x="952" y="3" type="line"/>
      <point x="1227" y="783" type="line"/>
    </contour>
    <contour>
      <point x="167" y="200" type="line"/>
      <point x="92" y="0" type="line"/>
      <point x="942" y="0" type="line"/>
      <point x="1015" y="200" type="line"/>
    </contour>
    <contour>
      <point x="1227" y="783" type="line"/>
      <point x="529" y="1143" type="line"/>
      <point x="448" y="910" type="line"/>
      <point x="1154" y="578" type="line"/>
    </contour>
    <contour>
      <point x="312" y="581" type="line"/>
      <point x="1257" y="915" type="line"/>
      <point x="1334" y="1139" type="line"/>
      <point x="386" y="780" type="line"/>
    </contour>
    <contour>
      <point x="991" y="1552" type="line"/>
      <point x="679" y="1550" type="line"/>
      <point x="620" y="1352" type="line"/>
      <point x="936" y="1351" type="line"/>
    </contour>
    <contour>
      <point x="1088" y="1351" type="line"/>
      <point x="1430" y="1349" type="line"/>
      <point x="1487" y="1554" type="line"/>
      <point x="1142" y="1552" type="line"/>
    </contour>
  </outline>
</glyph>
<glyph name="uni0222" format="2">
  <advance width="1024"/>
  <unicode hex="0222"/>
  <outline>
    <contour>
      <point x="668" y="1546" type="line"/>
      <point x="437" y="911" type="line"/>
      <point x="637" y="911" type="line"/>
      <point x="868" y="1546" type="line"/>
    </contour>
    <contour>
      <point x="1275" y="1533" type="line"/>
      <point x="1047" y="915" type="line"/>
      <point x="1247" y="915" type="line"/>
      <point x="1475" y="1533" type="line"/>
    </contour>
    <contour>
      <point x="376" y="779" type="line"/>
      <point x="301" y="581" type="line"/>
      <point x="1144" y="578" type="line"/>
      <point x="1217" y="783" type="line"/>
    </contour>
    <contour>
      <point x="376" y="779" type="line"/>
      <point x="94" y="24" type="line"/>
      <point x="298" y="24" type="line"/>
      <point x="573" y="779" type="line"/>
    </contour>
    <contour>
      <point x="1017" y="780" type="line"/>
      <point x="739" y="0" type="line"/>
      <point x="942" y="3" type="line"/>
      <point x="1217" y="783" type="line"/>
    </contour>
    <contour>
      <point x="157" y="200" type="line"/>
      <point x="82" y="0" type="line"/>
      <point x="932" y="0" type="line"/>
      <point x="1005" y="200" type="line"/>
    </contour>
    <contour>
      <point x="1217" y="783" type="line"/>
      <point x="519" y="1143" type="line"/>
      <point x="438" y="910" type="line"/>
      <point x="1144" y="578" type="line"/>
    </contour>
    <contour>
      <point x="302" y="581" type="line"/>
      <point x="1247" y="915" type="line"/>
      <point x="1324" y="1139" type="line"/>
      <point x="376" y="780" type="line"/>
    </contour>
    <contour>
      <point x="992" y="1548" type="line"/>
      <point x="669" y="1546" type="line"/>
      <point x="596" y="1348" type="line"/>
      <point x="921" y="1347" type="line"/>
    </contour>
    <contour>
      <point x="1083" y="1348" type="line"/>
      <point x="1409" y="1346" type="line"/>
      <point x="1481" y="1550" type="line"/>
      <point x="1153" y="1548" type="line"/>
    </contour>
  </outline>
</glyph>
<glyph name="ou" format="2">
  <advance width="1024"/>
  <unicode hex="0223"/>
  <outline>
    <contour>
      <point x="680" y="1552" type="line"/>
      <point x="447" y="911" type="line"/>
      <point x="647" y="911" type="line"/>
      <point x="880" y="1552" type="line"/>
    </contour>
    <contour>
      <point x="1292" y="1552" type="line"/>
      <point x="1057" y="915" type="line"/>
      <point x="1257" y="915" type="line"/>
      <point x="1492" y="1552" type="line"/>
    </contour>
    <contour>
      <point x="386" y="779" type="line"/>
      <point x="311" y="581" type="line"/>
      <point x="1154" y="578" type="line"/>
      <point x="1227" y="783" type="line"/>
    </contour>
    <contour>
      <point x="386" y="779" type="line"/>
      <point x="104" y="24" type="line"/>
      <point x="308" y="24" type="line"/>
      <point x="583" y="779" type="line"/>
    </contour>
    <contour>
      <point x="1027" y="780" type="line"/>
      <point x="749" y="0" type="line"/>
      <point x="952" y="3" type="line"/>
      <point x="1227" y="783" type="line"/>
    </contour>
    <contour>
      <point x="167" y="200" type="line"/>
      <point x="92" y="0" type="line"/>
      <point x="942" y="0" type="line"/>
      <point x="1015" y="200" type="line"/>
    </contour>
    <contour>
      <point x="1227" y="783" type="line"/>
      <point x="529" y="1143" type="line"/>
      <point x="448" y="910" type="line"/>
      <point x="1154" y="578" type="line"/>
    </contour>
    <contour>
      <point x="312" y="581" type="line"/>
      <point x="1257" y="915" type="line"/>
      <point x="1334" y="1139" type="line"/>
      <point x="386" y="780" type="line"/>
    </contour>
  </outline>
</glyph>
<glyph name="lcurl" format="2">
  <advance width="1024"/>
  <unicode hex="0234"/>
  <anchor x="522.172" y="-61" name="base"/>
  <anchor x="1100.17" y="1640" name="top"/>
  <outline>
    <contour>
      <point x="712" y="285" type="line"/>
      <point x="639" y="85" type="line"/>
      <point x="846" y="349" type="line"/>
      <point x="919" y="549" type="line"/>
    </contour>
    <contour>
      <point x="976.172" y="1548" type="line"/>
      <point x="443.172" y="86" type="line"/>
      <point x="640" y="86" type="line"/>
      <point x="1173" y="1548" type="line"/>
    </contour>
    <contour>
      <point x="820.172" y="1548" type="line"/>
      <point x="747.172" y="1349" type="line"/>
      <point x="982.172" y="1349" type="line"/>
      <point x="1055.17" y="1548" type="line"/>
    </contour>
    <contour>
      <point x="253" y="499" type="line"/>
      <point x="180" y="299" type="line"/>
      <point x="849" y="361" type="line"/>
      <point x="922" y="561" type="line"/>
    </contour>
  </outline>
</glyph>
<glyph name="ncurl" format="2">
  <advance width="1024"/>
  <unicode hex="0235"/>
  <anchor x="596.938" y="-33" name="base"/>
  <anchor x="998.938" y="1127" name="top"/>
  <outline>
    <contour>
      <point x="441" y="990" type="line"/>
      <point x="80" y="0" type="line"/>
      <point x="281" y="0" type="line"/>
      <point x="642" y="990" type="line"/>
    </contour>
    <contour>
      <point x="889" y="966" type="line"/>
      <point x="600" y="-10" type="line"/>
      <point x="734" y="-10" type="line"/>
      <point x="1090" y="966" type="line"/>
    </contour>
    <contour>
      <point x="395" y="1013" type="line"/>
      <point x="323" y="816" type="line"/>
      <point x="1034" y="816" type="line"/>
      <point x="1106" y="1013" type="line"/>
    </contour>
    <contour>
      <point x="434" y="177" type="line"/>
      <point x="347" y="0" type="line"/>
      <point x="991" y="250" type="line"/>
      <point x="1078" y="427" type="line"/>
    </contour>
    <contour>
      <point x="753" y="134" type="line"/>
      <point x="730" y="-14" type="line"/>
      <point x="905" y="-14" type="line"/>
      <point x="928" y="134" type="line"/>
    </contour>
    <contour>
      <point x="1078" y="426" type="line"/>
      <point x="822" y="-10" type="line"/>
      <point x="981" y="-6" type="line"/>
      <point x="1237" y="430" type="line"/>
    </contour>
  </outline>
</glyph>
<glyph name="tcurl" format="2">
  <advance width="1024"/>
  <unicode hex="0236"/>
  <anchor x="1109.13" y="1649" name="top"/>
  <anchor x="485.127" y="-82" name="base"/>
  <outline>
    <contour>
      <point x="974.127" y="1548" type="line"/>
      <point x="411.127" y="0" type="line"/>
      <point x="611.127" y="0" type="line"/>
      <point x="1174.13" y="1548" type="line"/>
    </contour>
    <contour>
      <point x="491.127" y="199" type="line"/>
      <point x="419.127" y="0" type="line"/>
      <point x="810.127" y="0" type="line"/>
      <point x="887" y="199" type="line"/>
    </contour>
    <contour>
      <point x="547.127" y="1023" type="line"/>
      <point x="475.127" y="824" type="line"/>
      <point x="1149.13" y="824" type="line"/>
      <point x="1221.13" y="1023" type="line"/>
    </contour>
    <contour>
      <point x="199" y="211" type="line"/>
      <point x="127" y="12" type="line"/>
      <point x="958" y="386" type="line"/>
      <point x="1030" y="585" type="line"/>
    </contour>
    <contour>
      <point x="809" y="0" type="line"/>
      <point x="1010" y="2" type="line"/>
      <point x="1229" y="537" type="line"/>
      <point x="1030" y="585" type="line"/>
    </contour>
  </outline>
</glyph>
<glyph name="uni0237" format="2">
  <advance width="1024"/>
  <unicode hex="0237"/>
  <anchor x="1150.21" y="1182" name="top"/>
  <outline>
    <contour>
      <point x="969.132" y="940" type="line"/>
      <point x="477.408" y="-411" type="line"/>
      <point x="676.408" y="-411" type="line"/>
      <point x="1168.13" y="940" type="line"/>
    </contour>
    <contour>
      <point x="120.931" y="-209" type="line"/>
      <point x="49.2285" y="-406" type="line"/>
      <point x="579.229" y="-406" type="line"/>
      <point x="650.931" y="-209" type="line"/>
    </contour>
    <contour>
      <point x="195.816" y="-6" type="line"/>
      <point x="70.2461" y="-351" type="line"/>
      <point x="270.246" y="-351" type="line"/>
      <point x="395.816" y="-6" type="line"/>
    </contour>
  </outline>
</glyph>
<glyph name="aturned" format="2">
  <advance width="1024"/>
  <unicode hex="0250"/>
  <anchor x="551.045" y="-121" name="top"/>
  <anchor x="863.045" y="1099" name="base"/>
  <outline>
    <contour>
      <point x="856.045" y="0" type="line"/>
      <point x="929.0450000000001" y="199" type="line"/>
      <point x="323.03999999999996" y="199" type="line"/>
      <point x="250.03999999999996" y="0" type="line"/>
    </contour>
    <contour>
      <point x="387" y="0" type="line"/>
      <point x="760" y="1080" type="line"/>
      <point x="566" y="1080" type="line"/>
      <point x="193" y="0" type="line"/>
    </contour>
    <contour>
      <point x="1007.0450000000001" y="424" type="line"/>
      <point x="1079.045" y="623" type="line"/>
      <point x="455.04499999999996" y="623" type="line"/>
      <point x="383.03999999999996" y="424" type="line"/>
    </contour>
    <contour>
      <point x="1015.0450000000001" y="448" type="line"/>
      <point x="1225.045" y="1023" type="line"/>
      <point x="1024.045" y="1023" type="line"/>
      <point x="814.045" y="448" type="line"/>
    </contour>
    <contour>
      <point x="1155" y="822" type="line"/>
      <point x="1227" y="1023" type="line"/>
      <point x="549" y="1023" type="line"/>
      <point x="477" y="822" type="line"/>
    </contour>
  </outline>
</glyph>
<glyph name="oopen" format="2">
  <advance width="1024"/>
  <unicode hex="0254"/>
  <anchor x="539.49" y="-67" name="base"/>
  <anchor x="864.49" y="1116" name="top"/>
  <outline>
    <contour>
      <point x="862" y="0" type="line"/>
      <point x="934" y="197" type="line"/>
      <point x="238" y="197" type="line"/>
      <point x="166" y="0" type="line"/>
    </contour>
    <contour>
      <point x="874" y="39" type="line"/>
      <point x="1232" y="1023" type="line"/>
      <point x="1030" y="1023" type="line"/>
      <point x="672" y="39" type="line"/>
    </contour>
    <contour>
      <point x="1053" y="822" type="line"/>
      <point x="1126" y="1023" type="line"/>
      <point x="544" y="1023" type="line"/>
      <point x="471" y="822" type="line"/>
    </contour>
  </outline>
</glyph>
<glyph name="uni0259" format="2">
  <advance width="1024"/>
  <unicode hex="0259"/>
  <outline>
    <contour>
      <point x="804.0" y="0.0" type="line"/>
      <point x="804.0" y="211.0" type="line"/>
      <point x="240.0" y="278.0" type="line"/>
      <point x="240.0" y="67.0" type="line"/>
    </contour>
    <contour>
      <point x="854.0" y="0.0" type="line"/>
      <point x="854.0" y="1023.0" type="line"/>
      <point x="652.0" y="1023.0" type="line"/>
      <point x="652.0" y="0.0" type="line"/>
    </contour>
    <contour>
      <point x="752.0" y="822.0" type="line"/>
      <point x="752.0" y="1023.0" type="line"/>
      <point x="170.0" y="1023.0" type="line"/>
      <point x="170.0" y="822.0" type="line"/>
    </contour>
    <contour>
      <point x="784.0" y="398.0" type="line"/>
      <point x="784.0" y="577.0" type="line"/>
      <point x="194.0" y="577.0" type="line"/>
      <point x="194.0" y="398.0" type="line"/>
    </contour>
    <contour>
      <point x="437.0" y="97.0" type="line"/>
      <point x="366.0" y="578.0" type="line"/>
      <point x="171.0" y="578.0" type="line"/>
      <point x="242.0" y="97.0" type="line"/>
    </contour>
  </outline>
</glyph>
<glyph name="eopen" format="2">
  <advance width="1024"/>
  <unicode hex="025B"/>
  <anchor x="989" y="1225" name="top"/>
  <outline>
    <contour>
      <point x="518" y="1140" type="line"/>
      <point x="421" y="669" type="line"/>
      <point x="621" y="668" type="line"/>
      <point x="718" y="1139" type="line"/>
    </contour>
    <contour>
      <point x="596" y="1139" type="line"/>
      <point x="521" y="935" type="line"/>
      <point x="1240" y="935" type="line"/>
      <point x="1315" y="1139" type="line"/>
    </contour>
    <contour>
      <point x="244" y="203" type="line"/>
      <point x="170" y="0" type="line"/>
      <point x="916" y="0" type="line"/>
      <point x="990" y="203" type="line"/>
    </contour>
    <contour>
      <point x="601" y="670" type="line"/>
      <point x="528" y="470" type="line"/>
      <point x="840" y="470" type="line"/>
      <point x="913" y="670" type="line"/>
    </contour>
    <contour>
      <point x="357" y="473" type="line"/>
      <point x="97" y="2" type="line"/>
      <point x="296" y="1" type="line"/>
      <point x="557" y="472" type="line"/>
    </contour>
  </outline>
</glyph>
<glyph name="gamma-latin" format="2">
  <advance width="1024"/>
  <unicode hex="0263"/>
  <outline>
    <contour>
      <point x="740" y="935" type="line"/>
      <point x="630" y="-158" type="line"/>
      <point x="830" y="-158" type="line"/>
      <point x="940" y="935" type="line"/>
    </contour>
    <contour>
      <point x="1400" y="965" type="line"/>
      <point x="292" y="-158" type="line"/>
      <point x="491" y="-158" type="line"/>
      <point x="1600" y="965" type="line"/>
    </contour>
    <contour>
      <point x="219" y="-360" type="line"/>
      <point x="757" y="-361" type="line"/>
      <point x="831" y="-158" type="line"/>
      <point x="293" y="-158" type="line"/>
    </contour>
  </outline>
</glyph>
<glyph name="ramshorn" format="2">
  <advance width="1024"/>
  <unicode hex="0264"/>
  <outline>
    <contour>
      <point x="740" y="935" type="line"/>
      <point x="630" y="202" type="line"/>
      <point x="830" y="202" type="line"/>
      <point x="940" y="935" type="line"/>
    </contour>
    <contour>
      <point x="1400" y="965" type="line"/>
      <point x="292" y="202" type="line"/>
      <point x="491" y="202" type="line"/>
      <point x="1600" y="965" type="line"/>
    </contour>
    <contour>
      <point x="219" y="0" type="line"/>
      <point x="757" y="-1" type="line"/>
      <point x="831" y="202" type="line"/>
      <point x="293" y="202" type="line"/>
    </contour>
  </outline>
</glyph>
<glyph name="uni0269" format="2">
  <advance width="1024"/>
  <unicode hex="0269"/>
  <anchor x="925" y="1191" name="top"/>
  <outline>
    <contour>
      <point x="664" y="1018" type="line"/>
      <point x="381" y="239" type="line"/>
      <point x="583" y="239" type="line"/>
      <point x="866" y="1018" type="line"/>
    </contour>
    <contour>
      <point x="404" y="304" type="line"/>
      <point x="332" y="106" type="line"/>
      <point x="792" y="6" type="line"/>
      <point x="864" y="204" type="line"/>
    </contour>
  </outline>
</glyph>
<glyph name="uni026A" format="2">
  <advance width="1024"/>
  <unicode hex="026A"/>
  <anchor x="1053.22" y="1645" name="top"/>
  <anchor x="499.217" y="-50" name="base"/>
  <outline>
    <contour>
      <point x="713" y="1019" type="line"/>
      <point x="640" y="817" type="line"/>
      <point x="1341" y="817" type="line"/>
      <point x="1414" y="1019" type="line"/>
    </contour>
    <contour>
      <point x="921" y="950" type="line"/>
      <point x="417.217" y="84" type="line"/>
      <point x="617.217" y="84" type="line"/>
      <point x="1121" y="950" type="line"/>
    </contour>
    <contour>
      <point x="208.217" y="204" type="line"/>
      <point x="136.217" y="6" type="line"/>
      <point x="892.217" y="6" type="line"/>
      <point x="964.217" y="204" type="line"/>
    </contour>
  </outline>
</glyph>
<glyph name="uni026C" format="2">
  <advance width="1024"/>
  <unicode hex="026C"/>
  <anchor x="522.172" y="-61" name="base"/>
  <anchor x="1100.17" y="1640" name="top"/>
  <outline>
    <contour>
      <point x="336" y="742" type="line"/>
      <point x="293" y="624" type="line"/>
      <point x="1081" y="624" type="line"/>
      <point x="1124" y="742" type="line"/>
    </contour>
    <contour>
      <point x="441" y="1030" type="line"/>
      <point x="293" y="624" type="line"/>
      <point x="411" y="624" type="line"/>
      <point x="559" y="1030" type="line"/>
    </contour>
    <contour>
      <point x="441" y="1030" type="line"/>
      <point x="397" y="909" type="line"/>
      <point x="939" y="909" type="line"/>
      <point x="983" y="1030" type="line"/>
    </contour>
    <contour>
      <point x="271.172" y="209" type="line"/>
      <point x="198.172" y="9" type="line"/>
      <point x="832.172" y="9" type="line"/>
      <point x="905.172" y="209" type="line"/>
    </contour>
    <contour>
      <point x="976.172" y="1548" type="line"/>
      <point x="443.172" y="86" type="line"/>
      <point x="643.172" y="86" type="line"/>
      <point x="1176.17" y="1548" type="line"/>
    </contour>
    <contour>
      <point x="820.172" y="1548" type="line"/>
      <point x="747.172" y="1349" type="line"/>
      <point x="982.172" y="1349" type="line"/>
      <point x="1055.17" y="1548" type="line"/>
    </contour>
  </outline>
</glyph>
<glyph name="obarred" format="2">
  <advance width="1024"/>
  <unicode hex="0275"/>
  <anchor x="923" y="1127" name="top"/>
  <anchor x="490.171" y="-69" name="base"/>
  <outline>
    <contour>
      <point x="476.171" y="1023" type="line"/>
      <point x="103.171" y="0" type="line"/>
      <point x="303.171" y="0" type="line"/>
      <point x="676.171" y="1023" type="line"/>
    </contour>
    <contour>
      <point x="1091.17" y="1023" type="line"/>
      <point x="718.171" y="0" type="line"/>
      <point x="920.171" y="0" type="line"/>
      <point x="1293.17" y="1023" type="line"/>
    </contour>
    <contour>
      <point x="599.171" y="1023" type="line"/>
      <point x="526.171" y="822" type="line"/>
      <point x="1112.17" y="822" type="line"/>
      <point x="1185.17" y="1023" type="line"/>
    </contour>
    <contour>
      <point x="303.171" y="200" type="line"/>
      <point x="230.171" y="0" type="line"/>
      <point x="802.171" y="0" type="line"/>
      <point x="875.171" y="200" type="line"/>
    </contour>
    <contour>
      <point x="399.985" y="644" type="line"/>
      <point x="339.526" y="436" type="line"/>
      <point x="996.619" y="436" type="line"/>
      <point x="1057.08" y="644" type="line"/>
    </contour>
  </outline>
</glyph>
<glyph name="uni027F" format="2">
  <advance width="1024"/>
  <unicode hex="027F"/>
  <anchor x="797.58" y="1174" name="top"/>
  <anchor x="450.58" y="-73" name="base"/>
  <outline>
    <contour>
      <point x="517.58" y="1023" type="line"/>
      <point x="444.58" y="821" type="line"/>
      <point x="1177.58" y="821" type="line"/>
      <point x="1250.58" y="1023" type="line"/>
    </contour>
    <contour>
      <point x="1024" y="954" type="line"/>
      <point x="677" y="-492" type="line"/>
      <point x="877" y="-492" type="line"/>
      <point x="1224" y="954" type="line"/>
    </contour>
  </outline>
</glyph>
<glyph name="uni0283" format="2">
  <advance width="1024"/>
  <unicode hex="0283"/>
  <outline>
    <contour>
      <point x="1276" y="1641" type="line"/>
      <point x="311" y="-399" type="line"/>
      <point x="504" y="-399" type="line"/>
      <point x="1469" y="1641" type="line"/>
    </contour>
    <contour>
      <point x="204" y="-198" type="line"/>
      <point x="131" y="-399" type="line"/>
      <point x="469" y="-399" type="line"/>
      <point x="542" y="-198" type="line"/>
    </contour>
    <contour>
      <point x="1331" y="1641" type="line"/>
      <point x="1259" y="1442" type="line"/>
      <point x="1595" y="1442" type="line"/>
      <point x="1667" y="1641" type="line"/>
    </contour>
  </outline>
</glyph>
<glyph name="uni0285" format="2">
  <advance width="1024"/>
  <unicode hex="0285"/>
  <outline>
    <contour>
      <point x="900" y="1001" type="line"/>
      <point x="493" y="-408" type="line"/>
      <point x="686" y="-408" type="line"/>
      <point x="1093" y="1001" type="line"/>
    </contour>
    <contour>
      <point x="615" y="-207" type="line"/>
      <point x="542" y="-408" type="line"/>
      <point x="940" y="-408" type="line"/>
      <point x="1013" y="-207" type="line"/>
    </contour>
    <contour>
      <point x="581" y="1001" type="line"/>
      <point x="508" y="802" type="line"/>
      <point x="889" y="802" type="line"/>
      <point x="962" y="1001" type="line"/>
    </contour>
  </outline>
</glyph>
<glyph name="uni0288" format="2">
  <advance width="1024"/>
  <unicode hex="0288"/>
  <anchor x="1109.13" y="1649" name="top"/>
  <anchor x="506" y="-487" name="base"/>
  <outline>
    <contour>
      <point x="974.127" y="1548" type="line"/>
      <point x="411" y="-423" type="line"/>
      <point x="611" y="-423" type="line"/>
      <point x="1174.13" y="1548" type="line"/>
    </contour>
    <contour>
      <point x="491" y="-224" type="line"/>
      <point x="419" y="-423" type="line"/>
      <point x="810" y="-423" type="line"/>
      <point x="882" y="-224" type="line"/>
    </contour>
    <contour>
      <point x="547.127" y="1023" type="line"/>
      <point x="475.127" y="824" type="line"/>
      <point x="1149.13" y="824" type="line"/>
      <point x="1221.13" y="1023" type="line"/>
    </contour>
  </outline>
</glyph>
<glyph name="upsilon_latin" format="2">
  <advance width="1024"/>
  <unicode hex="028A"/>
  <anchor x="932" y="1122" name="top"/>
  <outline>
    <contour>
      <point x="672" y="1023" type="line"/>
      <point x="139" y="0" type="line"/>
      <point x="340" y="0" type="line"/>
      <point x="873" y="1023" type="line"/>
    </contour>
    <contour>
      <point x="971" y="1023" type="line"/>
      <point x="717" y="0" type="line"/>
      <point x="917" y="0" type="line"/>
      <point x="1171" y="1023" type="line"/>
    </contour>
    <contour>
      <point x="257" y="196" type="line"/>
      <point x="186" y="0" type="line"/>
      <point x="867" y="0" type="line"/>
      <point x="941" y="203" type="line"/>
    </contour>
    <contour>
      <point x="1080" y="1023" type="line"/>
      <point x="1012" y="823" type="line"/>
      <point x="1310" y="823" type="line"/>
      <point x="1378" y="1023" type="line"/>
    </contour>
    <contour>
      <point x="461" y="1023" type="line"/>
      <point x="388" y="823" type="line"/>
      <point x="686" y="823" type="line"/>
      <point x="759" y="1023" type="line"/>
    </contour>
  </outline>
</glyph>
<glyph name="vhook" format="2">
  <advance width="1024"/>
  <unicode hex="028B"/>
  <anchor x="881.171" y="1127" name="top"/>
  <anchor x="490.171" y="-69" name="base"/>
  <outline>
    <contour>
      <point x="476.171" y="1023" type="line"/>
      <point x="103.171" y="0" type="line"/>
      <point x="303.171" y="0" type="line"/>
      <point x="676.171" y="1023" type="line"/>
    </contour>
    <contour>
      <point x="1091.17" y="1023" type="line"/>
      <point x="718.171" y="0" type="line"/>
      <point x="920.171" y="0" type="line"/>
      <point x="1293.17" y="1023" type="line"/>
    </contour>
    <contour>
      <point x="958" y="1023" type="line"/>
      <point x="885" y="822" type="line"/>
      <point x="1112.17" y="822" type="line"/>
      <point x="1185.17" y="1023" type="line"/>
    </contour>
    <contour>
      <point x="303.171" y="200" type="line"/>
      <point x="230.171" y="0" type="line"/>
      <point x="802.171" y="0" type="line"/>
      <point x="875.171" y="200" type="line"/>
    </contour>
  </outline>
</glyph>
<glyph name="ezh" format="2">
  <advance width="1024"/>
  <unicode hex="0292"/>
  <outline>
    <contour>
      <point x="860" y="0" type="line"/>
      <point x="932" y="197" type="line"/>
      <point x="236" y="197" type="line"/>
      <point x="164" y="0" type="line"/>
    </contour>
    <contour>
      <point x="872" y="39" type="line"/>
      <point x="1087" y="619" type="line"/>
      <point x="885" y="619" type="line"/>
      <point x="670" y="39" type="line"/>
    </contour>
    <contour>
      <point x="908" y="418" type="line"/>
      <point x="981" y="619" type="line"/>
      <point x="399" y="619" type="line"/>
      <point x="326" y="418" type="line"/>
    </contour>
    <contour>
      <point x="585" y="1274" type="line"/>
      <point x="513" y="1077" type="line"/>
      <point x="1341" y="1077" type="line"/>
      <point x="1413" y="1274" type="line"/>
    </contour>
    <contour>
      <point x="1049" y="1077" type="line"/>
      <point x="394" y="619" type="line"/>
      <point x="700" y="619" type="line"/>
      <point x="1341" y="1077" type="line"/>
    </contour>
  </outline>
</glyph>
<glyph name="uni0294" format="2">
  <advance width="1024"/>
  <unicode hex="0294"/>
  <outline>
    <contour>
      <point x="645" y="1543" type="line"/>
      <point x="573" y="1343" type="line"/>
      <point x="1101" y="1343" type="line"/>
      <point x="1173" y="1543" type="line"/>
    </contour>
    <contour>
      <point x="973" y="1543" type="line"/>
      <point x="786" y="1028" type="line"/>
      <point x="986" y="1028" type="line"/>
      <point x="1173" y="1543" type="line"/>
    </contour>
    <contour>
      <point x="542" y="1073" type="line"/>
      <point x="470" y="873" type="line"/>
      <point x="930" y="873" type="line"/>
      <point x="1002" y="1073" type="line"/>
    </contour>
    <contour>
      <point x="529" y="1073" type="line"/>
      <point x="266" y="167" type="line"/>
      <point x="466" y="167" type="line"/>
      <point x="729" y="1073" type="line"/>
    </contour>
  </outline>
</glyph>
